{
.appVersion = "1272";
DisplayStrings = (

glyphs = (
{
color = 1;
glyphname = .notdef;
lastChange = "2020-07-02 15:19:18 +0000";
layers = (
{
background = {
paths = (
{
closed = 1;
nodes = (
"420 0 LINE",
"420 599 LINE",
"0 599 LINE",
"0 0 LINE"
);
},
{
closed = 1;
nodes = (
"58.978 549 LINE",
"361.022 549 LINE",
"361.022 50 LINE",
"58.978 50 LINE"
);
}
);
};
layerId = "083550D2-F2E8-44E3-BE3D-E8BDF41EDFC4";
paths = (
{
closed = 1;
nodes = (
"420 0 LINE",
"420 599 LINE",
"0 599 LINE",
"0 0 LINE"
);
},
{
closed = 1;
nodes = (
"58.978 549 LINE",
"361.022 549 LINE",
"361.022 50 LINE",
"58.978 50 LINE"
);
}
);
width = 420;
},
{
background = {
paths = (
{
closed = 1;
nodes = (
"420 0 LINE",
"420 599 LINE",
"0 599 LINE",
"0 0 LINE"
);
},
{
closed = 1;
nodes = (
"79 529 LINE",
"341 529 LINE",
"341 70 LINE",
"79 70 LINE"
);
}
);
};
layerId = "1A280FA7-9E72-4FC3-84C1-49B7BD56B269";
paths = (
{
closed = 1;
nodes = (
"420 0 LINE",
"420 599 LINE",
"0 599 LINE",
"0 0 LINE"
);
},
{
closed = 1;
nodes = (
"79 529 LINE",
"341 529 LINE",
"341 70 LINE",
"79 70 LINE"
);
}
);
width = 420;
},
{
background = {
paths = (
{
closed = 1;
nodes = (
"420 0 LINE",
"420 599 LINE",
"0 599 LINE",
"0 0 LINE"
);
},
{
closed = 1;
nodes = (
"39 569 LINE",
"381 569 LINE",
"381 30 LINE",
"39 30 LINE"
);
}
);
};
layerId = "CA5CD7F6-F0E6-40F5-9716-481B35A0BC32";
paths = (
{
closed = 1;
nodes = (
"420 0 LINE",
"420 599 LINE",
"0 599 LINE",
"0 0 LINE"
);
},
{
closed = 1;
nodes = (
"39 569 LINE",
"381 569 LINE",
"381 30 LINE",
"39 30 LINE"
);
}
);
width = 420;
}
);
leftKerningGroup = .notdef;
rightKerningGroup = .notdef;
},
{
color = 1;
glyphname = A;
lastChange = "2020-07-02 15:20:05 +0000";
layers = (
{
anchors = (
{
name = bottom;
position = "{370, 50}";
},
{
name = ogonek;
position = "{663, 10}";
},
{
name = top;
position = "{370, 600}";
}
);
background = {
anchors = (
{
name = bottom;
position = "{370, 50}";
},
{
name = ogonek;
position = "{663, 10}";
},
{
name = top;
position = "{370, 600}";
}
);
paths = (
{
closed = 1;
nodes = (
"176 0 LINE",
"176 0 OFFCURVE",
"154 1 OFFCURVE",
"170 61 CURVE",
"173 74 OFFCURVE",
"179 91 OFFCURVE",
"184 107 CURVE",
"193 135 OFFCURVE",
"202 136 OFFCURVE",
"241 136 CURVE",
"497 136 LINE",
"531 136 OFFCURVE",
"539 133 OFFCURVE",
"551 106 CURVE",
"556 96 OFFCURVE",
"564 71 OFFCURVE",
"567 61 CURVE",
"583 4 OFFCURVE",
"553 0 OFFCURVE",
"553 0 CURVE",
"738 0 LINE",
"738 0 OFFCURVE",
"717 1 OFFCURVE",
"688 61 CURVE",
"657 125 OFFCURVE",
"494 479 OFFCURVE",
"468 540 CURVE",
"443 599 OFFCURVE",
"457 600 OFFCURVE",
"457 600 CURVE",
"282 600 LINE",
"282 600 OFFCURVE",
"297 599 OFFCURVE",
"271 540 CURVE",
"244 478 OFFCURVE",
"76 120 OFFCURVE",
"48 61 CURVE",
"19 1 OFFCURVE",
"8 0 OFFCURVE",
"8 0 CURVE"
);
},
{
closed = 1;
nodes = (
"228 216 OFFCURVE",
"231 224 OFFCURVE",
"240 246 CURVE",
"240 247 OFFCURVE",
"368 520 OFFCURVE",
"368 520 CURVE",
"370 520 LINE",
"370 520 OFFCURVE",
"447 360 OFFCURVE",
"497 243 CURVE",
"505 220 OFFCURVE",
"506 216 OFFCURVE",
"468 216 CURVE",
"267 216 LINE"
);
}
);
};
layerId = "083550D2-F2E8-44E3-BE3D-E8BDF41EDFC4";
paths = (
{
closed = 1;
nodes = (
"176 0 LINE SMOOTH",
"167 0 OFFCURVE",
"158 17 OFFCURVE",
"170 61 CURVE SMOOTH",
"173 74 OFFCURVE",
"179 91 OFFCURVE",
"184 107 CURVE SMOOTH",
"193 135 OFFCURVE",
"202 136 OFFCURVE",
"241 136 CURVE SMOOTH",
"497 136 LINE SMOOTH",
"531 136 OFFCURVE",
"539 133 OFFCURVE",
"551 106 CURVE SMOOTH",
"556 96 OFFCURVE",
"564 71 OFFCURVE",
"567 61 CURVE SMOOTH",
"579 19 OFFCURVE",
"566 2 OFFCURVE",
"553 0 CURVE",
"738 0 LINE SMOOTH",
"729 0 OFFCURVE",
"709 17 OFFCURVE",
"688 61 CURVE SMOOTH",
"657 125 OFFCURVE",
"494 479 OFFCURVE",
"468 540 CURVE SMOOTH",
"450 583 OFFCURVE",
"451 600 OFFCURVE",
"457 600 CURVE SMOOTH",
"282 600 LINE SMOOTH",
"288 600 OFFCURVE",
"290 583 OFFCURVE",
"271 540 CURVE SMOOTH",
"244 478 OFFCURVE",
"76 120 OFFCURVE",
"48 61 CURVE SMOOTH",
"27 17 OFFCURVE",
"13 0 OFFCURVE",
"8 0 CURVE SMOOTH"
);
},
{
closed = 1;
nodes = (
"228 216 OFFCURVE",
"231 224 OFFCURVE",
"240 246 CURVE",
"240 247 OFFCURVE",
"313 403 OFFCURVE",
"368 520 CURVE",
"370 520 LINE",
"403 451 OFFCURVE",
"461 328 OFFCURVE",
"497 243 CURVE",
"505 220 OFFCURVE",
"506 216 OFFCURVE",
"468 216 CURVE SMOOTH",
"267 216 LINE SMOOTH"
);
}
);
width = 742;
},
{
anchors = (
{
name = bottom;
position = "{360, 50}";
},
{
name = ogonek;
position = "{601, 7}";
},
{
name = top;
position = "{363, 600}";
}
);
background = {
anchors = (
{
name = bottom;
position = "{360, 50}";
},
{
name = ogonek;
position = "{601, 7}";
},
{
name = top;
position = "{363, 600}";
}
);
paths = (
{
closed = 1;
nodes = (
"208 0 LINE",
"208 0 OFFCURVE",
"190 2 OFFCURVE",
"202 61 CURVE",
"203 68 OFFCURVE",
"206 80 OFFCURVE",
"207 87 CURVE",
"213 114 OFFCURVE",
"218 116 OFFCURVE",
"273 116 CURVE",
"445 116 LINE",
"497 116 OFFCURVE",
"499 116 OFFCURVE",
"508 86 CURVE",
"512 74 OFFCURVE",
"512 70 OFFCURVE",
"514 61 CURVE",
"525 3 OFFCURVE",
"501 0 OFFCURVE",
"501 0 CURVE",
"728 0 LINE",
"728 0 OFFCURVE",
"705 1 OFFCURVE",
"678 61 CURVE",
"649 125 OFFCURVE",
"503 477 OFFCURVE",
"479 540 CURVE",
"456 600 OFFCURVE",
"468 600 OFFCURVE",
"468 600 CURVE",
"250 600 LINE",
"250 600 OFFCURVE",
"263 599 OFFCURVE",
"240 540 CURVE",
"215 477 OFFCURVE",
"64 121 OFFCURVE",
"38 61 CURVE",
"12 1 OFFCURVE",
"-2 0 OFFCURVE",
"-2 0 CURVE"
);
},
{
closed = 1;
nodes = (
"259 226 OFFCURVE",
"263 234 OFFCURVE",
"272 256 CURVE",
"272 257 OFFCURVE",
"358 490 OFFCURVE",
"358 490 CURVE",
"360 490 LINE",
"360 490 OFFCURVE",
"395 370 OFFCURVE",
"445 253 CURVE",
"453 230 OFFCURVE",
"455 226 OFFCURVE",
"416 226 CURVE",
"299 226 LINE"
);
}
);
};
layerId = "1A280FA7-9E72-4FC3-84C1-49B7BD56B269";
paths = (
{
closed = 1;
nodes = (
"208 0 LINE",
"200 1 OFFCURVE",
"193 18 OFFCURVE",
"202 61 CURVE SMOOTH",
"203 68 OFFCURVE",
"206 80 OFFCURVE",
"207 87 CURVE SMOOTH",
"213 114 OFFCURVE",
"218 116 OFFCURVE",
"273 116 CURVE SMOOTH",
"445 116 LINE SMOOTH",
"497 116 OFFCURVE",
"499 116 OFFCURVE",
"508 86 CURVE SMOOTH",
"512 74 OFFCURVE",
"512 70 OFFCURVE",
"514 61 CURVE SMOOTH",
"522 19 OFFCURVE",
"511 1 OFFCURVE",
"501 0 CURVE",
"728 0 LINE SMOOTH",
"718 0 OFFCURVE",
"698 17 OFFCURVE",
"678 61 CURVE SMOOTH",
"649 125 OFFCURVE",
"503 477 OFFCURVE",
"479 540 CURVE SMOOTH",
"462 584 OFFCURVE",
"463 600 OFFCURVE",
"468 600 CURVE SMOOTH",
"250 600 LINE SMOOTH",
"256 600 OFFCURVE",
"257 583 OFFCURVE",
"240 540 CURVE SMOOTH",
"215 477 OFFCURVE",
"64 121 OFFCURVE",
"38 61 CURVE SMOOTH",
"19 17 OFFCURVE",
"4 0 OFFCURVE",
"-2 0 CURVE SMOOTH"
);
},
{
closed = 1;
nodes = (
"259 226 OFFCURVE",
"263 234 OFFCURVE",
"272 256 CURVE",
"272 257 OFFCURVE",
"321 390 OFFCURVE",
"358 490 CURVE",
"360 490 LINE",
"375 438 OFFCURVE",
"409 338 OFFCURVE",
"445 253 CURVE",
"453 230 OFFCURVE",
"455 226 OFFCURVE",
"416 226 CURVE SMOOTH",
"299 226 LINE SMOOTH"
);
}
);
width = 730;
},
{
associatedMasterId = "083550D2-F2E8-44E3-BE3D-E8BDF41EDFC4";
layerId = "0AAF2CB4-2EBD-42C4-BAB4-4CEC92C737FB";
width = 600;
},
{
anchors = (
{
name = bottom;
position = "{346, 50}";
},
{
name = ogonek;
position = "{695, 10}";
},
{
name = top;
position = "{344, 600}";
}
);
background = {
anchors = (
{
name = bottom;
position = "{346, 50}";
},
{
name = ogonek;
position = "{695, 10}";
},
{
name = top;
position = "{344, 600}";
}
);
paths = (
{
closed = 1;
nodes = (
"102 0 LINE",
"102 0 OFFCURVE",
"81 1 OFFCURVE",
"106 61 CURVE",
"115 84 OFFCURVE",
"132 122 OFFCURVE",
"140 137 CURVE",
"152 162 OFFCURVE",
"153 166 OFFCURVE",
"192 166 CURVE",
"499 166 LINE",
"533 166 OFFCURVE",
"536 163 OFFCURVE",
"549 136 CURVE",
"554 126 OFFCURVE",
"570 93 OFFCURVE",
"580 71 CURVE",
"610 1 OFFCURVE",
"589 0 OFFCURVE",
"589 0 CURVE",
"693 0 LINE",
"693 0 OFFCURVE",
"674 -1 OFFCURVE",
"643 61 CURVE",
"611 124 OFFCURVE",
"433 480 OFFCURVE",
"405 540 CURVE",
"377 599 OFFCURVE",
"394 600 OFFCURVE",
"394 600 CURVE",
"296 600 LINE",
"296 600 OFFCURVE",
"316 599 OFFCURVE",
"286 540 CURVE",
"254 480 OFFCURVE",
"77 125 OFFCURVE",
"45 61 CURVE",
"16 3 OFFCURVE",
"5 0 OFFCURVE",
"5 0 CURVE"
);
},
{
closed = 1;
nodes = (
"175 206 OFFCURVE",
"176 215 OFFCURVE",
"187 236 CURVE",
"231 320 OFFCURVE",
"344 552 OFFCURVE",
"344 552 CURVE",
"346 552 LINE",
"346 552 OFFCURVE",
"461 315 OFFCURVE",
"502 233 CURVE",
"511 210 OFFCURVE",
"512 206 OFFCURVE",
"474 206 CURVE",
"214 206 LINE"
);
}
);
};
layerId = "CA5CD7F6-F0E6-40F5-9716-481B35A0BC32";
paths = (
{
closed = 1;
nodes = (
"102 0 LINE SMOOTH",
"93 0 OFFCURVE",
"88 17 OFFCURVE",
"106 61 CURVE SMOOTH",
"115 84 OFFCURVE",
"132 122 OFFCURVE",
"140 137 CURVE SMOOTH",
"152 162 OFFCURVE",
"153 166 OFFCURVE",
"192 166 CURVE SMOOTH",
"499 166 LINE SMOOTH",
"533 166 OFFCURVE",
"536 163 OFFCURVE",
"549 136 CURVE SMOOTH",
"554 126 OFFCURVE",
"570 93 OFFCURVE",
"580 71 CURVE SMOOTH",
"602 20 OFFCURVE",
"598 0 OFFCURVE",
"589 0 CURVE SMOOTH",
"693 0 LINE SMOOTH",
"685 0 OFFCURVE",
"666 16 OFFCURVE",
"643 61 CURVE SMOOTH",
"611 124 OFFCURVE",
"433 480 OFFCURVE",
"405 540 CURVE SMOOTH",
"385 583 OFFCURVE",
"387 600 OFFCURVE",
"394 600 CURVE SMOOTH",
"296 600 LINE SMOOTH",
"305 600 OFFCURVE",
"308 583 OFFCURVE",
"286 540 CURVE SMOOTH",
"254 480 OFFCURVE",
"77 125 OFFCURVE",
"45 61 CURVE SMOOTH",
"24 19 OFFCURVE",
"10 1 OFFCURVE",
"5 0 CURVE"
);
},
{
closed = 1;
nodes = (
"175 206 OFFCURVE",
"176 215 OFFCURVE",
"187 236 CURVE SMOOTH",
"219 297 OFFCURVE",
"295 452 OFFCURVE",
"344 552 CURVE",
"346 552 LINE",
"395 450 OFFCURVE",
"472 293 OFFCURVE",
"502 233 CURVE",
"511 210 OFFCURVE",
"512 206 OFFCURVE",
"474 206 CURVE SMOOTH",
"214 206 LINE SMOOTH"
);
}
);
width = 695;
},
{
associatedMasterId = "CA5CD7F6-F0E6-40F5-9716-481B35A0BC32";
layerId = "FB78EF16-4CC4-4124-A2B3-B572133361B3";
width = 600;
}
);
leftKerningGroup = A;
rightKerningGroup = A;
unicode = 0041;
},
{
color = 1;
glyphname = AE;
lastChange = "2020-07-02 15:20:05 +0000";
layers = (
{
anchors = (
{
name = bottom;
position = "{526, 0}";
},
{
name = top;
position = "{526, 600}";
}
);
background = {
anchors = (
{
name = bottom;
position = "{526, 0}";
},
{
name = top;
position = "{526, 600}";
}
);
components = (
{
name = E;
transform = "{1, 0, 0, 1, 368, 0}";
}
);
paths = (
{
closed = 1;
nodes = (
"176 0 LINE",
"176 0 OFFCURVE",
"154 1 OFFCURVE",
"170 61 CURVE",
"173 74 OFFCURVE",
"179 91 OFFCURVE",
"184 107 CURVE",
"193 135 OFFCURVE",
"202 136 OFFCURVE",
"241 136 CURVE",
"458 136 LINE",
"458 216 LINE",
"267 216 LINE",
"228 216 OFFCURVE",
"231 224 OFFCURVE",
"240 246 CURVE",
"240 247 OFFCURVE",
"368 520 OFFCURVE",
"368 520 CURVE",
"458 520 LINE",
"458 600 LINE",
"281 600 LINE",
"281 600 OFFCURVE",
"304 599 OFFCURVE",
"271 540 CURVE",
"238 481 OFFCURVE",
"78 119 OFFCURVE",
"48 61 CURVE",
"18 3 OFFCURVE",
"8 0 OFFCURVE",
"8 0 CURVE"
);
}
);
};
components = (
{
name = E;
transform = "{1, 0, 0, 1, 368, 0}";
}
);
layerId = "083550D2-F2E8-44E3-BE3D-E8BDF41EDFC4";
paths = (
{
closed = 1;
nodes = (
"176 0 LINE SMOOTH",
"167 0 OFFCURVE",
"158 17 OFFCURVE",
"170 61 CURVE SMOOTH",
"173 74 OFFCURVE",
"179 91 OFFCURVE",
"184 107 CURVE SMOOTH",
"193 135 OFFCURVE",
"202 136 OFFCURVE",
"241 136 CURVE SMOOTH",
"458 136 LINE",
"458 216 LINE",
"267 216 LINE SMOOTH",
"228 216 OFFCURVE",
"231 224 OFFCURVE",
"240 246 CURVE",
"240 247 OFFCURVE",
"313 403 OFFCURVE",
"368 520 CURVE",
"458 520 LINE",
"458 600 LINE",
"281 600 LINE SMOOTH",
"291 600 OFFCURVE",
"295 583 OFFCURVE",
"271 540 CURVE SMOOTH",
"238 481 OFFCURVE",
"78 119 OFFCURVE",
"48 61 CURVE SMOOTH",
"26 19 OFFCURVE",
"12 1 OFFCURVE",
"8 0 CURVE"
);
}
);
width = 1052;
},
{
anchors = (
{
name = bottom;
position = "{516, 0}";
},
{
name = top;
position = "{516, 600}";
}
);
background = {
anchors = (
{
name = bottom;
position = "{516, 0}";
},
{
name = top;
position = "{516, 600}";
}
);
components = (
{
name = E;
transform = "{1, 0, 0, 1, 358, 0}";
}
);
paths = (
{
closed = 1;
nodes = (
"208 0 LINE",
"208 0 OFFCURVE",
"190 2 OFFCURVE",
"202 61 CURVE",
"203 68 OFFCURVE",
"206 80 OFFCURVE",
"207 87 CURVE",
"213 114 OFFCURVE",
"218 116 OFFCURVE",
"273 116 CURVE",
"448 116 LINE",
"448 226 LINE",
"299 226 LINE",
"259 226 OFFCURVE",
"263 234 OFFCURVE",
"272 256 CURVE",
"272 257 OFFCURVE",
"358 490 OFFCURVE",
"358 490 CURVE",
"448 490 LINE",
"448 600 LINE",
"250 600 LINE",
"250 600 OFFCURVE",
"263 599 OFFCURVE",
"240 540 CURVE",
"215 477 OFFCURVE",
"68 119 OFFCURVE",
"38 61 CURVE",
"8 3 OFFCURVE",
"-2 0 OFFCURVE",
"-2 0 CURVE"
);
}
);
};
components = (
{
name = E;
transform = "{1, 0, 0, 1, 358, 0}";
}
);
layerId = "1A280FA7-9E72-4FC3-84C1-49B7BD56B269";
paths = (
{
closed = 1;
nodes = (
"208 0 LINE",
"200 1 OFFCURVE",
"193 18 OFFCURVE",
"202 61 CURVE SMOOTH",
"203 68 OFFCURVE",
"206 80 OFFCURVE",
"207 87 CURVE SMOOTH",
"213 114 OFFCURVE",
"218 116 OFFCURVE",
"273 116 CURVE SMOOTH",
"448 116 LINE",
"448 226 LINE",
"299 226 LINE SMOOTH",
"259 226 OFFCURVE",
"263 234 OFFCURVE",
"272 256 CURVE",
"272 257 OFFCURVE",
"321 390 OFFCURVE",
"358 490 CURVE",
"448 490 LINE",
"448 600 LINE",
"250 600 LINE SMOOTH",
"256 600 OFFCURVE",
"257 583 OFFCURVE",
"240 540 CURVE SMOOTH",
"215 477 OFFCURVE",
"68 119 OFFCURVE",
"38 61 CURVE SMOOTH",
"16 19 OFFCURVE",
"2 1 OFFCURVE",
"-2 0 CURVE"
);
}
);
width = 1053;
},
{
associatedMasterId = "083550D2-F2E8-44E3-BE3D-E8BDF41EDFC4";
layerId = "0AAF2CB4-2EBD-42C4-BAB4-4CEC92C737FB";
width = 600;
},
{
anchors = (
{
name = bottom;
position = "{513, 0}";
},
{
name = top;
position = "{513, 600}";
}
);
background = {
anchors = (
{
name = bottom;
position = "{513, 0}";
},
{
name = top;
position = "{513, 600}";
}
);
components = (
{
name = E;
transform = "{1, 0, 0, 1, 335, 0}";
}
);
paths = (
{
closed = 1;
nodes = (
"113 0 LINE",
"113 0 OFFCURVE",
"92 0 OFFCURVE",
"107 61 CURVE",
"113 85 OFFCURVE",
"128 122 OFFCURVE",
"134 137 CURVE",
"146 165 OFFCURVE",
"147 166 OFFCURVE",
"186 166 CURVE",
"434 166 LINE",
"434 206 LINE",
"207 206 LINE",
"168 206 OFFCURVE",
"171 214 OFFCURVE",
"180 236 CURVE",
"181 237 OFFCURVE",
"324 560 OFFCURVE",
"324 560 CURVE",
"434 560 LINE",
"434 600 LINE",
"278 600 LINE",
"278 600 OFFCURVE",
"295 599 OFFCURVE",
"268 540 CURVE",
"240 478 OFFCURVE",
"75 119 OFFCURVE",
"45 61 CURVE",
"15 3 OFFCURVE",
"5 0 OFFCURVE",
"5 0 CURVE"
);
}
);
};
components = (
{
name = E;
transform = "{1, 0, 0, 1, 335, 0}";
}
);
layerId = "CA5CD7F6-F0E6-40F5-9716-481B35A0BC32";
paths = (
{
closed = 1;
nodes = (
"113 0 LINE SMOOTH",
"104 0 OFFCURVE",
"96 16 OFFCURVE",
"107 61 CURVE SMOOTH",
"113 85 OFFCURVE",
"128 122 OFFCURVE",
"134 137 CURVE SMOOTH",
"146 165 OFFCURVE",
"147 166 OFFCURVE",
"186 166 CURVE SMOOTH",
"434 166 LINE",
"434 206 LINE",
"207 206 LINE SMOOTH",
"168 206 OFFCURVE",
"171 214 OFFCURVE",
"180 236 CURVE",
"181 237 OFFCURVE",
"263 421 OFFCURVE",
"324 560 CURVE",
"434 560 LINE",
"434 600 LINE",
"278 600 LINE SMOOTH",
"285 600 OFFCURVE",
"288 583 OFFCURVE",
"268 540 CURVE SMOOTH",
"240 478 OFFCURVE",
"75 119 OFFCURVE",
"45 61 CURVE SMOOTH",
"23 19 OFFCURVE",
"9 1 OFFCURVE",
"5 0 CURVE"
);
}
);
width = 1008;
},
{
associatedMasterId = "CA5CD7F6-F0E6-40F5-9716-481B35A0BC32";
layerId = "88B8E799-5A63-49E9-9541-634D69D7319E";
width = 600;
}
);
leftKerningGroup = A;
leftMetricsKey = A;
rightKerningGroup = E;
rightMetricsKey = E;
unicode = 00C6;
},
{
color = 1;
glyphname = B;
lastChange = "2020-07-02 15:20:05 +0000";
layers = (
{
background = {
paths = (
{
closed = 1;
nodes = (
"455 0 LINE",
"621 0 OFFCURVE",
"685 75 OFFCURVE",
"685 174 CURVE",
"685 256 OFFCURVE",
"640 310 OFFCURVE",
"554 330 CURVE",
"554 332 LINE",
"592 345 OFFCURVE",
"636 385 OFFCURVE",
"636 452 CURVE",
"636 542 OFFCURVE",
"576 600 OFFCURVE",
"415 600 CURVE",
"60 600 LINE",
"60 600 OFFCURVE",
"81 598 OFFCURVE",
"81 540 CURVE",
"81 60 LINE",
"81 1 OFFCURVE",
"60 0 OFFCURVE",
"60 0 CURVE"
);
},
{
closed = 1;
nodes = (
"194 81 OFFCURVE",
"193 81 OFFCURVE",
"193 111 CURVE",
"193 245 LINE",
"193 276 OFFCURVE",
"194 276 OFFCURVE",
"234 276 CURVE",
"407 276 LINE",
"534 276 OFFCURVE",
"573 246 OFFCURVE",
"573 178 CURVE",
"573 119 OFFCURVE",
"534 81 OFFCURVE",
"437 81 CURVE",
"233 81 LINE"
);
},
{
closed = 1;
nodes = (
"194 346 OFFCURVE",
"193 346 OFFCURVE",
"193 376 CURVE",
"193 490 LINE",
"193 520 OFFCURVE",
"194 520 OFFCURVE",
"234 520 CURVE",
"407 520 LINE",
"493 520 OFFCURVE",
"525 492 OFFCURVE",
"525 438 CURVE",
"525 372 OFFCURVE",
"491 346 OFFCURVE",
"416 346 CURVE",
"234 346 LINE"
);
}
);
};
layerId = "083550D2-F2E8-44E3-BE3D-E8BDF41EDFC4";
paths = (
{
closed = 1;
nodes = (
"455 0 LINE SMOOTH",
"621 0 OFFCURVE",
"685 75 OFFCURVE",
"685 174 CURVE SMOOTH",
"685 256 OFFCURVE",
"640 310 OFFCURVE",
"554 330 CURVE",
"554 332 LINE",
"592 345 OFFCURVE",
"636 385 OFFCURVE",
"636 452 CURVE SMOOTH",
"636 542 OFFCURVE",
"576 600 OFFCURVE",
"415 600 CURVE SMOOTH",
"60 600 LINE",
"69 599 OFFCURVE",
"81 582 OFFCURVE",
"81 540 CURVE SMOOTH",
"81 60 LINE SMOOTH",
"81 17 OFFCURVE",
"69 0 OFFCURVE",
"60 0 CURVE SMOOTH"
);
},
{
closed = 1;
nodes = (
"194 81 OFFCURVE",
"193 81 OFFCURVE",
"193 111 CURVE SMOOTH",
"193 245 LINE SMOOTH",
"193 276 OFFCURVE",
"194 276 OFFCURVE",
"234 276 CURVE SMOOTH",
"407 276 LINE SMOOTH",
"534 276 OFFCURVE",
"573 246 OFFCURVE",
"573 178 CURVE SMOOTH",
"573 119 OFFCURVE",
"534 81 OFFCURVE",
"437 81 CURVE SMOOTH",
"233 81 LINE SMOOTH"
);
},
{
closed = 1;
nodes = (
"194 346 OFFCURVE",
"193 346 OFFCURVE",
"193 376 CURVE SMOOTH",
"193 490 LINE SMOOTH",
"193 520 OFFCURVE",
"194 520 OFFCURVE",
"234 520 CURVE SMOOTH",
"407 520 LINE SMOOTH",
"493 520 OFFCURVE",
"525 492 OFFCURVE",
"525 438 CURVE SMOOTH",
"525 372 OFFCURVE",
"491 346 OFFCURVE",
"416 346 CURVE SMOOTH",
"234 346 LINE SMOOTH"
);
}
);
width = 715;
},
{
background = {
paths = (
{
closed = 1;
nodes = (
"464 0 LINE",
"635 0 OFFCURVE",
"675 88 OFFCURVE",
"675 174 CURVE",
"675 259 OFFCURVE",
"630 310 OFFCURVE",
"544 330 CURVE",
"544 332 LINE",
"582 345 OFFCURVE",
"626 379 OFFCURVE",
"626 452 CURVE",
"626 542 OFFCURVE",
"580 600 OFFCURVE",
"424 600 CURVE",
"50 600 LINE",
"50 600 OFFCURVE",
"71 598 OFFCURVE",
"71 540 CURVE",
"71 60 LINE",
"71 1 OFFCURVE",
"50 0 OFFCURVE",
"50 0 CURVE"
);
},
{
closed = 1;
nodes = (
"226 111 OFFCURVE",
"225 111 OFFCURVE",
"225 141 CURVE",
"225 224 LINE",
"225 255 OFFCURVE",
"226 255 OFFCURVE",
"266 255 CURVE",
"405 255 LINE",
"487 255 OFFCURVE",
"521 228 OFFCURVE",
"521 181 CURVE",
"521 132 OFFCURVE",
"491 111 OFFCURVE",
"415 111 CURVE",
"265 111 LINE"
);
},
{
closed = 1;
nodes = (
"226 357 OFFCURVE",
"225 357 OFFCURVE",
"225 387 CURVE",
"225 458 LINE",
"225 488 OFFCURVE",
"225 488 OFFCURVE",
"265 488 CURVE",
"385 488 LINE",
"450 488 OFFCURVE",
"473 467 OFFCURVE",
"473 423 CURVE",
"473 379 OFFCURVE",
"448 357 OFFCURVE",
"384 357 CURVE",
"266 357 LINE"
);
}
);
};
layerId = "1A280FA7-9E72-4FC3-84C1-49B7BD56B269";
paths = (
{
closed = 1;
nodes = (
"464 0 LINE SMOOTH",
"635 0 OFFCURVE",
"675 88 OFFCURVE",
"675 174 CURVE SMOOTH",
"675 259 OFFCURVE",
"630 310 OFFCURVE",
"544 330 CURVE",
"544 332 LINE",
"582 345 OFFCURVE",
"626 379 OFFCURVE",
"626 452 CURVE SMOOTH",
"626 542 OFFCURVE",
"580 600 OFFCURVE",
"424 600 CURVE SMOOTH",
"50 600 LINE",
"59 599 OFFCURVE",
"71 582 OFFCURVE",
"71 540 CURVE SMOOTH",
"71 60 LINE SMOOTH",
"71 17 OFFCURVE",
"59 0 OFFCURVE",
"50 0 CURVE SMOOTH"
);
},
{
closed = 1;
nodes = (
"226 111 OFFCURVE",
"225 111 OFFCURVE",
"225 141 CURVE SMOOTH",
"225 224 LINE SMOOTH",
"225 255 OFFCURVE",
"226 255 OFFCURVE",
"266 255 CURVE SMOOTH",
"405 255 LINE SMOOTH",
"487 255 OFFCURVE",
"521 228 OFFCURVE",
"521 181 CURVE SMOOTH",
"521 132 OFFCURVE",
"491 111 OFFCURVE",
"415 111 CURVE SMOOTH",
"265 111 LINE SMOOTH"
);
},
{
closed = 1;
nodes = (
"226 357 OFFCURVE",
"225 357 OFFCURVE",
"225 387 CURVE SMOOTH",
"225 458 LINE SMOOTH",
"225 488 OFFCURVE",
"225 488 OFFCURVE",
"265 488 CURVE SMOOTH",
"385 488 LINE SMOOTH",
"450 488 OFFCURVE",
"473 467 OFFCURVE",
"473 423 CURVE SMOOTH",
"473 379 OFFCURVE",
"448 357 OFFCURVE",
"384 357 CURVE SMOOTH",
"266 357 LINE SMOOTH"
);
}
);
width = 705;
},
{
associatedMasterId = "083550D2-F2E8-44E3-BE3D-E8BDF41EDFC4";
layerId = "0AAF2CB4-2EBD-42C4-BAB4-4CEC92C737FB";
width = 600;
},
{
background = {
paths = (
{
closed = 1;
nodes = (
"464 0 LINE",
"622 0 OFFCURVE",
"674 62 OFFCURVE",
"674 166 CURVE",
"674 240 OFFCURVE",
"628 303 OFFCURVE",
"547 317 CURVE",
"547 319 LINE",
"580 330 OFFCURVE",
"626 372 OFFCURVE",
"626 450 CURVE",
"626 546 OFFCURVE",
"568 600 OFFCURVE",
"425 600 CURVE",
"70 600 LINE",
"70 600 OFFCURVE",
"91 598 OFFCURVE",
"91 540 CURVE",
"91 60 LINE",
"91 1 OFFCURVE",
"70 0 OFFCURVE",
"70 0 CURVE"
);
},
{
closed = 1;
nodes = (
"145 41 OFFCURVE",
"144 41 OFFCURVE",
"144 71 CURVE",
"144 266 LINE",
"144 297 OFFCURVE",
"145 297 OFFCURVE",
"185 297 CURVE",
"445 297 LINE",
"559 297 OFFCURVE",
"622 248 OFFCURVE",
"622 168 CURVE",
"622 82 OFFCURVE",
"575 41 OFFCURVE",
"475 41 CURVE",
"184 41 LINE"
);
},
{
closed = 1;
nodes = (
"145 336 OFFCURVE",
"144 336 OFFCURVE",
"144 366 CURVE",
"144 531 LINE",
"144 561 OFFCURVE",
"145 561 OFFCURVE",
"185 561 CURVE",
"435 561 LINE",
"529 561 OFFCURVE",
"574 519 OFFCURVE",
"574 447 CURVE",
"574 369 OFFCURVE",
"524 336 OFFCURVE",
"444 336 CURVE",
"185 336 LINE"
);
}
);
};
layerId = "CA5CD7F6-F0E6-40F5-9716-481B35A0BC32";
paths = (
{
closed = 1;
nodes = (
"464 0 LINE SMOOTH",
"622 0 OFFCURVE",
"674 62 OFFCURVE",
"674 166 CURVE SMOOTH",
"674 240 OFFCURVE",
"628 303 OFFCURVE",
"547 317 CURVE",
"547 319 LINE",
"580 330 OFFCURVE",
"626 372 OFFCURVE",
"626 450 CURVE SMOOTH",
"626 546 OFFCURVE",
"568 600 OFFCURVE",
"425 600 CURVE SMOOTH",
"70 600 LINE",
"79 599 OFFCURVE",
"91 582 OFFCURVE",
"91 540 CURVE SMOOTH",
"91 60 LINE SMOOTH",
"91 17 OFFCURVE",
"79 0 OFFCURVE",
"70 0 CURVE SMOOTH"
);
},
{
closed = 1;
nodes = (
"145 41 OFFCURVE",
"144 41 OFFCURVE",
"144 71 CURVE SMOOTH",
"144 266 LINE SMOOTH",
"144 297 OFFCURVE",
"145 297 OFFCURVE",
"185 297 CURVE SMOOTH",
"445 297 LINE SMOOTH",
"559 297 OFFCURVE",
"622 248 OFFCURVE",
"622 168 CURVE SMOOTH",
"622 82 OFFCURVE",
"575 41 OFFCURVE",
"475 41 CURVE SMOOTH",
"184 41 LINE SMOOTH"
);
},
{
closed = 1;
nodes = (
"145 336 OFFCURVE",
"144 336 OFFCURVE",
"144 366 CURVE SMOOTH",
"144 531 LINE SMOOTH",
"144 561 OFFCURVE",
"145 561 OFFCURVE",
"185 561 CURVE SMOOTH",
"435 561 LINE SMOOTH",
"529 561 OFFCURVE",
"574 519 OFFCURVE",
"574 447 CURVE SMOOTH",
"574 369 OFFCURVE",
"524 336 OFFCURVE",
"444 336 CURVE SMOOTH",
"185 336 LINE SMOOTH"
);
}
);
width = 704;
},
{
associatedMasterId = "CA5CD7F6-F0E6-40F5-9716-481B35A0BC32";
layerId = "96032563-2FD3-42F5-8F0B-50A3AD4B56BE";
width = 600;
}
);
leftKerningGroup = H;
leftMetricsKey = H;
rightKerningGroup = B;
unicode = 0042;
},
{
color = 1;
glyphname = C;
lastChange = "2020-07-02 15:20:05 +0000";
layers = (
{
anchors = (
{
name = bottom;
position = "{390, 0}";
},
{
name = top;
position = "{390, 600}";
}
);
background = {
anchors = (
{
name = bottom;
position = "{390, 0}";
},
{
name = top;
position = "{390, 600}";
}
);
paths = (
{
closed = 1;
nodes = (
"597 -10 OFFCURVE",
"651 40 OFFCURVE",
"651 40 CURVE",
"641 101 LINE",
"641 131 LINE",
"641 131 OFFCURVE",
"575 71 OFFCURVE",
"419 71 CURVE",
"207 71 OFFCURVE",
"157 166 OFFCURVE",
"157 300 CURVE",
"157 434 OFFCURVE",
"212 530 OFFCURVE",
"390 530 CURVE",
"562 530 OFFCURVE",
"651 470 OFFCURVE",
"651 470 CURVE",
"631 560 LINE",
"631 580 LINE",
"631 580 OFFCURVE",
"562 610 OFFCURVE",
"388 610 CURVE",
"145 610 OFFCURVE",
"45 485 OFFCURVE",
"45 300 CURVE",
"45 85 OFFCURVE",
"158 -10 OFFCURVE",
"388 -10 CURVE"
);
}
);
};
layerId = "083550D2-F2E8-44E3-BE3D-E8BDF41EDFC4";
paths = (
{
closed = 1;
nodes = (
"541 -10 OFFCURVE",
"628 19 OFFCURVE",
"651 40 CURVE",
"641 101 LINE",
"641 131 LINE",
"613 105 OFFCURVE",
"533 71 OFFCURVE",
"419 71 CURVE SMOOTH",
"207 71 OFFCURVE",
"157 166 OFFCURVE",
"157 300 CURVE SMOOTH",
"157 434 OFFCURVE",
"212 530 OFFCURVE",
"390 530 CURVE SMOOTH",
"516 530 OFFCURVE",
"613 496 OFFCURVE",
"651 470 CURVE",
"631 560 LINE",
"631 580 LINE",
"601 593 OFFCURVE",
"515 610 OFFCURVE",
"388 610 CURVE SMOOTH",
"145 610 OFFCURVE",
"45 485 OFFCURVE",
"45 300 CURVE SMOOTH",
"45 85 OFFCURVE",
"158 -10 OFFCURVE",
"388 -10 CURVE SMOOTH"
);
}
);
width = 691;
},
{
anchors = (
{
name = bottom;
position = "{385, 0}";
},
{
name = top;
position = "{385, 600}";
}
);
background = {
anchors = (
{
name = bottom;
position = "{385, 0}";
},
{
name = top;
position = "{385, 600}";
}
);
paths = (
{
closed = 1;
nodes = (
"592 -10 OFFCURVE",
"646 40 OFFCURVE",
"646 40 CURVE",
"636 141 LINE",
"636 171 LINE",
"636 171 OFFCURVE",
"570 101 OFFCURVE",
"414 101 CURVE",
"242 101 OFFCURVE",
"192 166 OFFCURVE",
"192 300 CURVE",
"192 434 OFFCURVE",
"247 500 OFFCURVE",
"385 500 CURVE",
"557 500 OFFCURVE",
"646 440 OFFCURVE",
"646 440 CURVE",
"626 550 LINE",
"626 580 LINE",
"626 580 OFFCURVE",
"557 610 OFFCURVE",
"383 610 CURVE",
"140 610 OFFCURVE",
"40 485 OFFCURVE",
"40 300 CURVE",
"40 85 OFFCURVE",
"153 -10 OFFCURVE",
"383 -10 CURVE"
);
}
);
};
layerId = "1A280FA7-9E72-4FC3-84C1-49B7BD56B269";
paths = (
{
closed = 1;
nodes = (
"536 -10 OFFCURVE",
"623 19 OFFCURVE",
"646 40 CURVE",
"636 141 LINE",
"636 171 LINE",
"608 141 OFFCURVE",
"528 101 OFFCURVE",
"414 101 CURVE SMOOTH",
"242 101 OFFCURVE",
"192 166 OFFCURVE",
"192 300 CURVE SMOOTH",
"192 434 OFFCURVE",
"247 500 OFFCURVE",
"385 500 CURVE SMOOTH",
"511 500 OFFCURVE",
"608 466 OFFCURVE",
"646 440 CURVE",
"626 550 LINE",
"626 580 LINE",
"596 593 OFFCURVE",
"510 610 OFFCURVE",
"383 610 CURVE SMOOTH",
"140 610 OFFCURVE",
"40 485 OFFCURVE",
"40 300 CURVE SMOOTH",
"40 85 OFFCURVE",
"153 -10 OFFCURVE",
"383 -10 CURVE SMOOTH"
);
}
);
width = 686;
},
{
associatedMasterId = "083550D2-F2E8-44E3-BE3D-E8BDF41EDFC4";
layerId = "0AAF2CB4-2EBD-42C4-BAB4-4CEC92C737FB";
width = 600;
},
{
anchors = (
{
name = bottom;
position = "{395, 0}";
},
{
name = top;
position = "{375, 600}";
}
);
background = {
anchors = (
{
name = bottom;
position = "{395, 0}";
},
{
name = top;
position = "{375, 600}";
}
);
paths = (
{
closed = 1;
nodes = (
"570 -10 OFFCURVE",
"636 40 OFFCURVE",
"636 40 CURVE",
"626 80 LINE",
"626 91 LINE",
"626 91 OFFCURVE",
"566 31 OFFCURVE",
"394 31 CURVE",
"184 31 OFFCURVE",
"104 126 OFFCURVE",
"104 300 CURVE",
"104 469 OFFCURVE",
"187 570 OFFCURVE",
"375 570 CURVE",
"543 570 OFFCURVE",
"626 500 OFFCURVE",
"626 500 CURVE",
"616 550 LINE",
"616 560 LINE",
"616 560 OFFCURVE",
"527 610 OFFCURVE",
"373 610 CURVE",
"135 610 OFFCURVE",
"50 485 OFFCURVE",
"50 300 CURVE",
"50 85 OFFCURVE",
"158 -10 OFFCURVE",
"383 -10 CURVE"
);
}
);
};
layerId = "CA5CD7F6-F0E6-40F5-9716-481B35A0BC32";
paths = (
{
closed = 1;
nodes = (
"520 -10 OFFCURVE",
"608 19 OFFCURVE",
"636 40 CURVE",
"626 80 LINE",
"626 91 LINE",
"600 65 OFFCURVE",
"520 31 OFFCURVE",
"394 31 CURVE SMOOTH",
"184 31 OFFCURVE",
"104 126 OFFCURVE",
"104 300 CURVE SMOOTH",
"104 469 OFFCURVE",
"187 570 OFFCURVE",
"375 570 CURVE SMOOTH",
"498 570 OFFCURVE",
"590 530 OFFCURVE",
"626 500 CURVE",
"616 550 LINE",
"616 560 LINE",
"578 582 OFFCURVE",
"485 610 OFFCURVE",
"373 610 CURVE SMOOTH",
"135 610 OFFCURVE",
"50 485 OFFCURVE",
"50 300 CURVE SMOOTH",
"50 85 OFFCURVE",
"158 -10 OFFCURVE",
"383 -10 CURVE SMOOTH"
);
}
);
width = 676;
},
{
associatedMasterId = "CA5CD7F6-F0E6-40F5-9716-481B35A0BC32";
layerId = "F7114C36-C09F-4B3A-BED6-CC2AC47003C4";
width = 600;
}
);
leftKerningGroup = O;
leftMetricsKey = O;
rightKerningGroup = C;
unicode = 0043;
},
{
color = 1;
glyphname = D;
lastChange = "2020-07-02 15:20:05 +0000";
layers = (
{
anchors = (
{
name = bottom;
position = "{373, 0}";
},
{
name = center;
position = "{173, 300}";
},
{
name = top;
position = "{373, 600}";
}
);
background = {
anchors = (
{
name = bottom;
position = "{373, 0}";
},
{
name = center;
position = "{173, 300}";
},
{
name = top;
position = "{373, 600}";
}
);
paths = (
{
closed = 1;
nodes = (
"374 0 LINE",
"667 0 OFFCURVE",
"706 164 OFFCURVE",
"706 299 CURVE",
"706 445 OFFCURVE",
"669 600 OFFCURVE",
"374 600 CURVE",
"60 600 LINE",
"60 600 OFFCURVE",
"81 598 OFFCURVE",
"81 540 CURVE",
"81 60 LINE",
"81 1 OFFCURVE",
"60 0 OFFCURVE",
"60 0 CURVE"
);
},
{
closed = 1;
nodes = (
"194 81 OFFCURVE",
"193 81 OFFCURVE",
"193 111 CURVE",
"193 490 LINE",
"193 518 OFFCURVE",
"194 518 OFFCURVE",
"233 518 CURVE",
"356 518 LINE",
"535 518 OFFCURVE",
"594 465 OFFCURVE",
"594 310 CURVE",
"594 292 LINE",
"594 144 OFFCURVE",
"527 81 OFFCURVE",
"356 81 CURVE",
"233 81 LINE"
);
}
);
};
layerId = "083550D2-F2E8-44E3-BE3D-E8BDF41EDFC4";
paths = (
{
closed = 1;
nodes = (
"374 0 LINE SMOOTH",
"667 0 OFFCURVE",
"706 164 OFFCURVE",
"706 299 CURVE SMOOTH",
"706 445 OFFCURVE",
"669 600 OFFCURVE",
"374 600 CURVE SMOOTH",
"60 600 LINE",
"69 599 OFFCURVE",
"81 582 OFFCURVE",
"81 540 CURVE SMOOTH",
"81 60 LINE SMOOTH",
"81 17 OFFCURVE",
"69 0 OFFCURVE",
"60 0 CURVE SMOOTH"
);
},
{
closed = 1;
nodes = (
"194 81 OFFCURVE",
"193 81 OFFCURVE",
"193 111 CURVE SMOOTH",
"193 490 LINE SMOOTH",
"193 518 OFFCURVE",
"194 518 OFFCURVE",
"233 518 CURVE SMOOTH",
"356 518 LINE SMOOTH",
"535 518 OFFCURVE",
"594 465 OFFCURVE",
"594 310 CURVE SMOOTH",
"594 292 LINE SMOOTH",
"594 144 OFFCURVE",
"527 81 OFFCURVE",
"356 81 CURVE SMOOTH",
"233 81 LINE SMOOTH"
);
}
);
width = 751;
},
{
anchors = (
{
name = bottom;
position = "{363, 0}";
},
{
name = center;
position = "{163, 300}";
},
{
name = top;
position = "{363, 600}";
}
);
background = {
anchors = (
{
name = bottom;
position = "{363, 0}";
},
{
name = center;
position = "{163, 300}";
},
{
name = top;
position = "{363, 600}";
}
);
paths = (
{
closed = 1;
nodes = (
"364 0 LINE",
"657 0 OFFCURVE",
"696 164 OFFCURVE",
"696 299 CURVE",
"696 445 OFFCURVE",
"659 600 OFFCURVE",
"364 600 CURVE",
"50 600 LINE",
"50 600 OFFCURVE",
"71 598 OFFCURVE",
"71 540 CURVE",
"71 60 LINE",
"71 1 OFFCURVE",
"50 0 OFFCURVE",
"50 0 CURVE"
);
},
{
closed = 1;
nodes = (
"226 111 OFFCURVE",
"225 111 OFFCURVE",
"225 141 CURVE",
"225 459 LINE",
"225 487 OFFCURVE",
"226 487 OFFCURVE",
"265 487 CURVE",
"306 487 LINE",
"485 487 OFFCURVE",
"544 465 OFFCURVE",
"544 310 CURVE",
"544 292 LINE",
"544 144 OFFCURVE",
"477 111 OFFCURVE",
"306 111 CURVE",
"265 111 LINE"
);
}
);
};
layerId = "1A280FA7-9E72-4FC3-84C1-49B7BD56B269";
paths = (
{
closed = 1;
nodes = (
"364 0 LINE SMOOTH",
"657 0 OFFCURVE",
"696 164 OFFCURVE",
"696 299 CURVE SMOOTH",
"696 445 OFFCURVE",
"659 600 OFFCURVE",
"364 600 CURVE SMOOTH",
"50 600 LINE",
"59 599 OFFCURVE",
"71 582 OFFCURVE",
"71 540 CURVE SMOOTH",
"71 60 LINE SMOOTH",
"71 17 OFFCURVE",
"59 0 OFFCURVE",
"50 0 CURVE SMOOTH"
);
},
{
closed = 1;
nodes = (
"226 111 OFFCURVE",
"225 111 OFFCURVE",
"225 141 CURVE SMOOTH",
"225 459 LINE SMOOTH",
"225 487 OFFCURVE",
"226 487 OFFCURVE",
"265 487 CURVE SMOOTH",
"306 487 LINE SMOOTH",
"485 487 OFFCURVE",
"544 465 OFFCURVE",
"544 310 CURVE SMOOTH",
"544 292 LINE SMOOTH",
"544 144 OFFCURVE",
"477 111 OFFCURVE",
"306 111 CURVE SMOOTH",
"265 111 LINE SMOOTH"
);
}
);
width = 736;
},
{
associatedMasterId = "083550D2-F2E8-44E3-BE3D-E8BDF41EDFC4";
layerId = "0AAF2CB4-2EBD-42C4-BAB4-4CEC92C737FB";
width = 600;
},
{
anchors = (
{
name = bottom;
position = "{383, 0}";
},
{
name = center;
position = "{183, 300}";
},
{
name = top;
position = "{383, 600}";
}
);
background = {
anchors = (
{
name = bottom;
position = "{383, 0}";
},
{
name = center;
position = "{183, 300}";
},
{
name = top;
position = "{383, 600}";
}
);
paths = (
{
closed = 1;
nodes = (
"384 0 LINE",
"677 0 OFFCURVE",
"716 164 OFFCURVE",
"716 299 CURVE",
"716 445 OFFCURVE",
"679 600 OFFCURVE",
"384 600 CURVE",
"70 600 LINE",
"70 600 OFFCURVE",
"91 598 OFFCURVE",
"91 540 CURVE",
"91 60 LINE",
"91 1 OFFCURVE",
"70 0 OFFCURVE",
"70 0 CURVE"
);
},
{
closed = 1;
nodes = (
"144 41 OFFCURVE",
"143 41 OFFCURVE",
"143 71 CURVE",
"143 532 LINE",
"143 560 OFFCURVE",
"144 560 OFFCURVE",
"183 560 CURVE",
"366 560 LINE",
"580 560 OFFCURVE",
"662 487 OFFCURVE",
"662 310 CURVE",
"662 292 LINE",
"662 114 OFFCURVE",
"579 41 OFFCURVE",
"366 41 CURVE",
"183 41 LINE"
);
}
);
};
layerId = "CA5CD7F6-F0E6-40F5-9716-481B35A0BC32";
paths = (
{
closed = 1;
nodes = (
"384 0 LINE SMOOTH",
"677 0 OFFCURVE",
"716 164 OFFCURVE",
"716 299 CURVE SMOOTH",
"716 445 OFFCURVE",
"679 600 OFFCURVE",
"384 600 CURVE SMOOTH",
"70 600 LINE",
"79 599 OFFCURVE",
"91 582 OFFCURVE",
"91 540 CURVE SMOOTH",
"91 60 LINE SMOOTH",
"91 17 OFFCURVE",
"79 0 OFFCURVE",
"70 0 CURVE SMOOTH"
);
},
{
closed = 1;
nodes = (
"144 41 OFFCURVE",
"143 41 OFFCURVE",
"143 71 CURVE SMOOTH",
"143 532 LINE SMOOTH",
"143 560 OFFCURVE",
"144 560 OFFCURVE",
"183 560 CURVE SMOOTH",
"366 560 LINE SMOOTH",
"580 560 OFFCURVE",
"662 487 OFFCURVE",
"662 310 CURVE SMOOTH",
"662 292 LINE SMOOTH",
"662 114 OFFCURVE",
"579 41 OFFCURVE",
"366 41 CURVE SMOOTH",
"183 41 LINE SMOOTH"
);
}
);
width = 766;
},
{
associatedMasterId = "CA5CD7F6-F0E6-40F5-9716-481B35A0BC32";
layerId = "4365D739-F4F6-486E-9C79-6A4B13E086DA";
width = 600;
}
);
leftKerningGroup = H;
leftMetricsKey = H;
rightKerningGroup = O;
rightMetricsKey = O;
unicode = 0044;
},
{
color = 1;
glyphname = E;
lastChange = "2020-07-02 15:20:05 +0000";
layers = (
{
anchors = (
{
name = bottom;
position = "{364, 0}";
},
{
name = ogonek;
position = "{644, 10}";
},
{
name = top;
position = "{364, 600}";
},
{
name = topleft;
position = "{90, 600}";
}
);
background = {
anchors = (
{
name = bottom;
position = "{364, 0}";
},
{
name = ogonek;
position = "{644, 10}";
},
{
name = top;
position = "{364, 600}";
},
{
name = topleft;
position = "{90, 600}";
}
);
paths = (
{
closed = 1;
nodes = (
"644 0 LINE",
"644 31 LINE",
"664 121 LINE",
"664 121 OFFCURVE",
"630 81 OFFCURVE",
"524 81 CURVE",
"233 81 LINE",
"193 81 OFFCURVE",
"193 81 OFFCURVE",
"193 112 CURVE",
"193 236 LINE",
"193 266 OFFCURVE",
"194 266 OFFCURVE",
"233 266 CURVE",
"518 266 LINE",
"518 306 OFFCURVE",
"538 366 OFFCURVE",
"538 366 CURVE",
"538 366 OFFCURVE",
"504 346 OFFCURVE",
"398 346 CURVE",
"233 346 LINE",
"194 346 OFFCURVE",
"193 346 OFFCURVE",
"193 376 CURVE",
"193 490 LINE",
"193 518 OFFCURVE",
"194 520 OFFCURVE",
"234 520 CURVE",
"403 520 LINE",
"565 520 OFFCURVE",
"643 484 OFFCURVE",
"643 484 CURVE",
"623 580 LINE",
"623 600 LINE",
"60 600 LINE",
"60 600 OFFCURVE",
"81 598 OFFCURVE",
"81 540 CURVE",
"81 60 LINE",
"81 1 OFFCURVE",
"60 0 OFFCURVE",
"60 0 CURVE"
);
}
);
};
layerId = "083550D2-F2E8-44E3-BE3D-E8BDF41EDFC4";
paths = (
{
closed = 1;
nodes = (
"644 0 LINE",
"644 31 LINE",
"664 121 LINE",
"649 104 OFFCURVE",
"601 81 OFFCURVE",
"524 81 CURVE SMOOTH",
"233 81 LINE SMOOTH",
"193 81 OFFCURVE",
"193 81 OFFCURVE",
"193 112 CURVE SMOOTH",
"193 236 LINE SMOOTH",
"193 266 OFFCURVE",
"194 266 OFFCURVE",
"233 266 CURVE SMOOTH",
"518 266 LINE",
"518 295 OFFCURVE",
"529 340 OFFCURVE",
"538 366 CURVE",
"523 357 OFFCURVE",
"475 346 OFFCURVE",
"398 346 CURVE SMOOTH",
"233 346 LINE SMOOTH",
"194 346 OFFCURVE",
"193 346 OFFCURVE",
"193 376 CURVE SMOOTH",
"193 490 LINE SMOOTH",
"193 518 OFFCURVE",
"194 520 OFFCURVE",
"234 520 CURVE SMOOTH",
"403 520 LINE SMOOTH",
"521 520 OFFCURVE",
"609 499 OFFCURVE",
"643 484 CURVE",
"623 580 LINE",
"623 600 LINE",
"60 600 LINE",
"69 599 OFFCURVE",
"81 582 OFFCURVE",
"81 540 CURVE SMOOTH",
"81 60 LINE SMOOTH",
"81 17 OFFCURVE",
"69 0 OFFCURVE",
"60 0 CURVE SMOOTH"
);
}
);
width = 684;
},
{
anchors = (
{
name = bottom;
position = "{364, 0}";
},
{
name = ogonek;
position = "{634, 10}";
},
{
name = top;
position = "{364, 600}";
},
{
name = topleft;
position = "{80, 600}";
}
);
background = {
anchors = (
{
name = bottom;
position = "{364, 0}";
},
{
name = ogonek;
position = "{634, 10}";
},
{
name = top;
position = "{364, 600}";
},
{
name = topleft;
position = "{80, 600}";
}
);
paths = (
{
closed = 1;
nodes = (
"655 0 LINE",
"655 31 LINE",
"675 151 LINE",
"675 151 OFFCURVE",
"641 111 OFFCURVE",
"535 111 CURVE",
"265 111 LINE",
"225 111 OFFCURVE",
"225 111 OFFCURVE",
"225 142 CURVE",
"225 216 LINE",
"225 246 OFFCURVE",
"226 246 OFFCURVE",
"265 246 CURVE",
"529 246 LINE",
"529 286 OFFCURVE",
"549 376 OFFCURVE",
"549 376 CURVE",
"549 376 OFFCURVE",
"515 356 OFFCURVE",
"409 356 CURVE",
"265 356 LINE",
"226 356 OFFCURVE",
"225 356 OFFCURVE",
"225 386 CURVE",
"225 460 LINE",
"225 488 OFFCURVE",
"226 490 OFFCURVE",
"266 490 CURVE",
"414 490 LINE",
"576 490 OFFCURVE",
"654 454 OFFCURVE",
"654 454 CURVE",
"634 570 LINE",
"634 600 LINE",
"50 600 LINE",
"50 600 OFFCURVE",
"71 598 OFFCURVE",
"71 540 CURVE",
"71 60 LINE",
"71 1 OFFCURVE",
"50 0 OFFCURVE",
"50 0 CURVE"
);
}
);
};
layerId = "1A280FA7-9E72-4FC3-84C1-49B7BD56B269";
paths = (
{
closed = 1;
nodes = (
"655 0 LINE",
"655 31 LINE",
"675 151 LINE",
"660 134 OFFCURVE",
"612 111 OFFCURVE",
"535 111 CURVE SMOOTH",
"265 111 LINE SMOOTH",
"225 111 OFFCURVE",
"225 111 OFFCURVE",
"225 142 CURVE SMOOTH",
"225 216 LINE SMOOTH",
"225 246 OFFCURVE",
"226 246 OFFCURVE",
"265 246 CURVE SMOOTH",
"529 246 LINE",
"529 275 OFFCURVE",
"540 337 OFFCURVE",
"549 376 CURVE",
"534 367 OFFCURVE",
"486 356 OFFCURVE",
"409 356 CURVE SMOOTH",
"265 356 LINE SMOOTH",
"226 356 OFFCURVE",
"225 356 OFFCURVE",
"225 386 CURVE SMOOTH",
"225 460 LINE SMOOTH",
"225 488 OFFCURVE",
"226 490 OFFCURVE",
"266 490 CURVE SMOOTH",
"414 490 LINE SMOOTH",
"532 490 OFFCURVE",
"620 469 OFFCURVE",
"654 454 CURVE",
"634 570 LINE",
"634 600 LINE",
"50 600 LINE",
"59 599 OFFCURVE",
"71 582 OFFCURVE",
"71 540 CURVE SMOOTH",
"71 60 LINE SMOOTH",
"71 17 OFFCURVE",
"59 0 OFFCURVE",
"50 0 CURVE SMOOTH"
);
}
);
width = 695;
},
{
associatedMasterId = "083550D2-F2E8-44E3-BE3D-E8BDF41EDFC4";
layerId = "0AAF2CB4-2EBD-42C4-BAB4-4CEC92C737FB";
width = 600;
},
{
anchors = (
{
name = bottom;
position = "{364, 0}";
},
{
name = ogonek;
position = "{614, 10}";
},
{
name = top;
position = "{364, 600}";
},
{
name = topleft;
position = "{100, 600}";
}
);
background = {
anchors = (
{
name = bottom;
position = "{364, 0}";
},
{
name = ogonek;
position = "{614, 10}";
},
{
name = top;
position = "{364, 600}";
},
{
name = topleft;
position = "{100, 600}";
}
);
paths = (
{
closed = 1;
nodes = (
"633 0 LINE",
"633 11 LINE",
"653 60 LINE",
"653 60 OFFCURVE",
"619 40 OFFCURVE",
"513 40 CURVE",
"183 40 LINE",
"143 40 OFFCURVE",
"143 40 OFFCURVE",
"143 71 CURVE",
"143 266 LINE",
"143 296 OFFCURVE",
"144 296 OFFCURVE",
"183 296 CURVE",
"507 296 LINE",
"507 336 OFFCURVE",
"527 346 OFFCURVE",
"527 346 CURVE",
"527 346 OFFCURVE",
"493 336 OFFCURVE",
"387 336 CURVE",
"183 336 LINE",
"144 336 OFFCURVE",
"143 336 OFFCURVE",
"143 366 CURVE",
"143 530 LINE",
"143 558 OFFCURVE",
"144 560 OFFCURVE",
"184 560 CURVE",
"392 560 LINE",
"554 560 OFFCURVE",
"632 544 OFFCURVE",
"632 544 CURVE",
"612 590 LINE",
"612 600 LINE",
"70 600 LINE",
"70 600 OFFCURVE",
"91 598 OFFCURVE",
"91 540 CURVE",
"91 60 LINE",
"91 1 OFFCURVE",
"70 0 OFFCURVE",
"70 0 CURVE"
);
}
);
};
layerId = "CA5CD7F6-F0E6-40F5-9716-481B35A0BC32";
paths = (
{
closed = 1;
nodes = (
"633 0 LINE",
"633 11 LINE",
"653 60 LINE",
"638 51 OFFCURVE",
"590 40 OFFCURVE",
"513 40 CURVE SMOOTH",
"183 40 LINE SMOOTH",
"143 40 OFFCURVE",
"143 40 OFFCURVE",
"143 71 CURVE SMOOTH",
"143 266 LINE SMOOTH",
"143 296 OFFCURVE",
"144 296 OFFCURVE",
"183 296 CURVE SMOOTH",
"507 296 LINE",
"507 325 OFFCURVE",
"518 342 OFFCURVE",
"527 346 CURVE",
"512 342 OFFCURVE",
"464 336 OFFCURVE",
"387 336 CURVE SMOOTH",
"183 336 LINE SMOOTH",
"144 336 OFFCURVE",
"143 336 OFFCURVE",
"143 366 CURVE SMOOTH",
"143 530 LINE SMOOTH",
"143 558 OFFCURVE",
"144 560 OFFCURVE",
"184 560 CURVE SMOOTH",
"392 560 LINE SMOOTH",
"510 560 OFFCURVE",
"598 551 OFFCURVE",
"632 544 CURVE",
"612 590 LINE",
"612 600 LINE",
"70 600 LINE",
"79 599 OFFCURVE",
"91 582 OFFCURVE",
"91 540 CURVE SMOOTH",
"91 60 LINE SMOOTH",
"91 17 OFFCURVE",
"79 0 OFFCURVE",
"70 0 CURVE SMOOTH"
);
}
);
width = 673;
},
{
associatedMasterId = "CA5CD7F6-F0E6-40F5-9716-481B35A0BC32";
layerId = "7129ED4C-FDAB-4DC5-B2C9-5FD78A86C0DC";
width = 600;
}
);
leftKerningGroup = H;
leftMetricsKey = H;
rightKerningGroup = E;
unicode = 0045;
},
{
color = 1;
glyphname = F;
lastChange = "2020-07-02 15:20:05 +0000";
layers = (
{
background = {
paths = (
{
closed = 1;
nodes = (
"214 0 LINE",
"214 0 OFFCURVE",
"193 0 OFFCURVE",
"193 60 CURVE",
"193 236 LINE",
"193 266 OFFCURVE",
"194 266 OFFCURVE",
"233 266 CURVE",
"518 266 LINE",
"518 306 OFFCURVE",
"538 366 OFFCURVE",
"538 366 CURVE",
"538 366 OFFCURVE",
"504 346 OFFCURVE",
"398 346 CURVE",
"233 346 LINE",
"194 346 OFFCURVE",
"193 346 OFFCURVE",
"193 376 CURVE",
"193 490 LINE",
"193 518 OFFCURVE",
"194 520 OFFCURVE",
"234 520 CURVE",
"403 520 LINE",
"565 520 OFFCURVE",
"643 484 OFFCURVE",
"643 484 CURVE",
"623 580 LINE",
"623 600 LINE",
"60 600 LINE",
"60 600 OFFCURVE",
"81 598 OFFCURVE",
"81 540 CURVE",
"81 60 LINE",
"81 1 OFFCURVE",
"60 0 OFFCURVE",
"60 0 CURVE"
);
}
);
};
layerId = "083550D2-F2E8-44E3-BE3D-E8BDF41EDFC4";
paths = (
{
closed = 1;
nodes = (
"214 0 LINE SMOOTH",
"205 0 OFFCURVE",
"193 16 OFFCURVE",
"193 60 CURVE SMOOTH",
"193 236 LINE SMOOTH",
"193 266 OFFCURVE",
"194 266 OFFCURVE",
"233 266 CURVE SMOOTH",
"518 266 LINE",
"518 295 OFFCURVE",
"529 340 OFFCURVE",
"538 366 CURVE",
"523 357 OFFCURVE",
"475 346 OFFCURVE",
"398 346 CURVE SMOOTH",
"233 346 LINE SMOOTH",
"194 346 OFFCURVE",
"193 346 OFFCURVE",
"193 376 CURVE SMOOTH",
"193 490 LINE SMOOTH",
"193 518 OFFCURVE",
"194 520 OFFCURVE",
"234 520 CURVE SMOOTH",
"403 520 LINE SMOOTH",
"521 520 OFFCURVE",
"609 499 OFFCURVE",
"643 484 CURVE",
"623 580 LINE",
"623 600 LINE",
"60 600 LINE",
"69 599 OFFCURVE",
"81 582 OFFCURVE",
"81 540 CURVE SMOOTH",
"81 60 LINE SMOOTH",
"81 17 OFFCURVE",
"69 0 OFFCURVE",
"60 0 CURVE SMOOTH"
);
}
);
width = 663;
},
{
background = {
paths = (
{
closed = 1;
nodes = (
"246 0 LINE",
"246 0 OFFCURVE",
"225 0 OFFCURVE",
"225 60 CURVE",
"225 216 LINE",
"225 246 OFFCURVE",
"226 246 OFFCURVE",
"265 246 CURVE",
"529 246 LINE",
"529 286 OFFCURVE",
"549 376 OFFCURVE",
"549 376 CURVE",
"549 376 OFFCURVE",
"515 356 OFFCURVE",
"409 356 CURVE",
"265 356 LINE",
"226 356 OFFCURVE",
"225 356 OFFCURVE",
"225 386 CURVE",
"225 460 LINE",
"225 488 OFFCURVE",
"226 490 OFFCURVE",
"266 490 CURVE",
"414 490 LINE",
"576 490 OFFCURVE",
"654 454 OFFCURVE",
"654 454 CURVE",
"634 570 LINE",
"634 600 LINE",
"50 600 LINE",
"50 600 OFFCURVE",
"71 598 OFFCURVE",
"71 540 CURVE",
"71 60 LINE",
"71 1 OFFCURVE",
"50 0 OFFCURVE",
"50 0 CURVE"
);
}
);
};
layerId = "1A280FA7-9E72-4FC3-84C1-49B7BD56B269";
paths = (
{
closed = 1;
nodes = (
"246 0 LINE SMOOTH",
"237 0 OFFCURVE",
"225 16 OFFCURVE",
"225 60 CURVE SMOOTH",
"225 216 LINE SMOOTH",
"225 246 OFFCURVE",
"226 246 OFFCURVE",
"265 246 CURVE SMOOTH",
"529 246 LINE",
"529 275 OFFCURVE",
"540 337 OFFCURVE",
"549 376 CURVE",
"534 367 OFFCURVE",
"486 356 OFFCURVE",
"409 356 CURVE SMOOTH",
"265 356 LINE SMOOTH",
"226 356 OFFCURVE",
"225 356 OFFCURVE",
"225 386 CURVE SMOOTH",
"225 460 LINE SMOOTH",
"225 488 OFFCURVE",
"226 490 OFFCURVE",
"266 490 CURVE SMOOTH",
"414 490 LINE SMOOTH",
"532 490 OFFCURVE",
"620 469 OFFCURVE",
"654 454 CURVE",
"634 570 LINE",
"634 600 LINE",
"50 600 LINE",
"59 599 OFFCURVE",
"71 582 OFFCURVE",
"71 540 CURVE SMOOTH",
"71 60 LINE SMOOTH",
"71 17 OFFCURVE",
"59 0 OFFCURVE",
"50 0 CURVE SMOOTH"
);
}
);
width = 674;
},
{
associatedMasterId = "083550D2-F2E8-44E3-BE3D-E8BDF41EDFC4";
layerId = "0AAF2CB4-2EBD-42C4-BAB4-4CEC92C737FB";
width = 600;
},
{
background = {
paths = (
{
closed = 1;
nodes = (
"164 0 LINE",
"164 0 OFFCURVE",
"143 0 OFFCURVE",
"143 60 CURVE",
"143 266 LINE",
"143 296 OFFCURVE",
"144 296 OFFCURVE",
"183 296 CURVE",
"508 296 LINE",
"508 336 OFFCURVE",
"528 346 OFFCURVE",
"528 346 CURVE",
"528 346 OFFCURVE",
"494 336 OFFCURVE",
"388 336 CURVE",
"183 336 LINE",
"144 336 OFFCURVE",
"143 336 OFFCURVE",
"143 366 CURVE",
"143 530 LINE",
"143 558 OFFCURVE",
"144 560 OFFCURVE",
"184 560 CURVE",
"393 560 LINE",
"555 560 OFFCURVE",
"633 544 OFFCURVE",
"633 544 CURVE",
"613 590 LINE",
"613 600 LINE",
"70 600 LINE",
"70 600 OFFCURVE",
"91 598 OFFCURVE",
"91 540 CURVE",
"91 60 LINE",
"91 1 OFFCURVE",
"70 0 OFFCURVE",
"70 0 CURVE"
);
}
);
};
layerId = "CA5CD7F6-F0E6-40F5-9716-481B35A0BC32";
paths = (
{
closed = 1;
nodes = (
"164 0 LINE SMOOTH",
"155 0 OFFCURVE",
"143 16 OFFCURVE",
"143 60 CURVE SMOOTH",
"143 266 LINE SMOOTH",
"143 296 OFFCURVE",
"144 296 OFFCURVE",
"183 296 CURVE SMOOTH",
"508 296 LINE",
"508 325 OFFCURVE",
"519 342 OFFCURVE",
"528 346 CURVE",
"513 342 OFFCURVE",
"465 336 OFFCURVE",
"388 336 CURVE SMOOTH",
"183 336 LINE SMOOTH",
"144 336 OFFCURVE",
"143 336 OFFCURVE",
"143 366 CURVE SMOOTH",
"143 530 LINE SMOOTH",
"143 558 OFFCURVE",
"144 560 OFFCURVE",
"184 560 CURVE SMOOTH",
"393 560 LINE SMOOTH",
"511 560 OFFCURVE",
"599 551 OFFCURVE",
"633 544 CURVE",
"613 590 LINE",
"613 600 LINE",
"70 600 LINE",
"79 599 OFFCURVE",
"91 582 OFFCURVE",
"91 540 CURVE SMOOTH",
"91 60 LINE SMOOTH",
"91 17 OFFCURVE",
"79 0 OFFCURVE",
"70 0 CURVE SMOOTH"
);
}
);
width = 653;
},
{
associatedMasterId = "CA5CD7F6-F0E6-40F5-9716-481B35A0BC32";
layerId = "C693AC7C-033B-46DA-A39E-404DB6FDEC5F";
width = 600;
}
);
leftKerningGroup = H;
leftMetricsKey = H;
rightKerningGroup = F;
unicode = 0046;
},
{
color = 1;
glyphname = G;
lastChange = "2020-07-02 15:20:05 +0000";
layers = (
{
anchors = (
{
name = bottom;
position = "{384, 0}";
},
{
name = top;
position = "{384, 600}";
}
);
background = {
anchors = (
{
name = bottom;
position = "{384, 0}";
},
{
name = top;
position = "{384, 600}";
}
);
paths = (
{
closed = 1;
nodes = (
"474 -10 OFFCURVE",
"529 18 OFFCURVE",
"561 53 CURVE",
"563 51 LINE",
"561 23 LINE",
"561 0 LINE",
"692 0 LINE",
"692 0 OFFCURVE",
"672 1 OFFCURVE",
"672 60 CURVE",
"672 256 LINE",
"672 314 OFFCURVE",
"692 316 OFFCURVE",
"692 316 CURVE",
"377 316 LINE",
"377 296 LINE",
"367 217 LINE",
"367 217 OFFCURVE",
"396 238 OFFCURVE",
"499 238 CURVE",
"531 238 LINE",
"561 238 OFFCURVE",
"561 238 OFFCURVE",
"561 208 CURVE",
"561 182 LINE",
"561 121 OFFCURVE",
"515 71 OFFCURVE",
"379 71 CURVE",
"220 71 OFFCURVE",
"157 153 OFFCURVE",
"157 298 CURVE",
"157 435 OFFCURVE",
"229 530 OFFCURVE",
"390 530 CURVE",
"568 530 OFFCURVE",
"651 470 OFFCURVE",
"651 470 CURVE",
"631 560 LINE",
"631 580 LINE",
"631 580 OFFCURVE",
"560 610 OFFCURVE",
"388 610 CURVE",
"145 610 OFFCURVE",
"45 482 OFFCURVE",
"45 298 CURVE",
"45 88 OFFCURVE",
"157 -10 OFFCURVE",
"338 -10 CURVE"
);
}
);
};
layerId = "083550D2-F2E8-44E3-BE3D-E8BDF41EDFC4";
paths = (
{
closed = 1;
nodes = (
"474 -10 OFFCURVE",
"529 18 OFFCURVE",
"561 53 CURVE",
"563 51 LINE",
"561 23 LINE",
"561 0 LINE",
"692 0 LINE SMOOTH",
"683 0 OFFCURVE",
"672 17 OFFCURVE",
"672 60 CURVE SMOOTH",
"672 256 LINE SMOOTH",
"672 298 OFFCURVE",
"683 315 OFFCURVE",
"692 316 CURVE",
"377 316 LINE",
"377 296 LINE",
"367 217 LINE",
"379 226 OFFCURVE",
"424 238 OFFCURVE",
"499 238 CURVE SMOOTH",
"531 238 LINE SMOOTH",
"561 238 OFFCURVE",
"561 238 OFFCURVE",
"561 208 CURVE SMOOTH",
"561 182 LINE SMOOTH",
"561 121 OFFCURVE",
"515 71 OFFCURVE",
"379 71 CURVE SMOOTH",
"220 71 OFFCURVE",
"157 153 OFFCURVE",
"157 298 CURVE SMOOTH",
"157 435 OFFCURVE",
"229 530 OFFCURVE",
"390 530 CURVE SMOOTH",
"520 530 OFFCURVE",
"615 496 OFFCURVE",
"651 470 CURVE",
"631 560 LINE",
"631 580 LINE",
"600 593 OFFCURVE",
"514 610 OFFCURVE",
"388 610 CURVE SMOOTH",
"145 610 OFFCURVE",
"45 482 OFFCURVE",
"45 298 CURVE SMOOTH",
"45 88 OFFCURVE",
"157 -10 OFFCURVE",
"338 -10 CURVE SMOOTH"
);
}
);
width = 742;
},
{
anchors = (
{
name = bottom;
position = "{379, 0}";
},
{
name = top;
position = "{379, 600}";
}
);
background = {
anchors = (
{
name = bottom;
position = "{379, 0}";
},
{
name = top;
position = "{379, 600}";
}
);
paths = (
{
closed = 1;
nodes = (
"450 -10 OFFCURVE",
"502 22 OFFCURVE",
"516 43 CURVE",
"518 41 LINE",
"516 13 LINE",
"516 0 LINE",
"687 0 LINE",
"687 0 OFFCURVE",
"667 1 OFFCURVE",
"667 60 CURVE",
"667 276 LINE",
"667 334 OFFCURVE",
"687 336 OFFCURVE",
"687 336 CURVE",
"372 336 LINE",
"372 306 LINE",
"362 207 LINE",
"362 207 OFFCURVE",
"392 228 OFFCURVE",
"454 228 CURVE",
"486 228 LINE",
"516 228 OFFCURVE",
"516 228 OFFCURVE",
"516 198 CURVE",
"516 182 LINE",
"516 135 OFFCURVE",
"473 101 OFFCURVE",
"374 101 CURVE",
"241 101 OFFCURVE",
"192 153 OFFCURVE",
"192 298 CURVE",
"192 432 OFFCURVE",
"250 500 OFFCURVE",
"385 500 CURVE",
"563 500 OFFCURVE",
"646 440 OFFCURVE",
"646 440 CURVE",
"626 550 LINE",
"626 580 LINE",
"626 580 OFFCURVE",
"555 610 OFFCURVE",
"383 610 CURVE",
"140 610 OFFCURVE",
"40 482 OFFCURVE",
"40 298 CURVE",
"40 88 OFFCURVE",
"152 -10 OFFCURVE",
"333 -10 CURVE"
);
}
);
};
layerId = "1A280FA7-9E72-4FC3-84C1-49B7BD56B269";
paths = (
{
closed = 1;
nodes = (
"450 -10 OFFCURVE",
"502 22 OFFCURVE",
"516 43 CURVE",
"518 41 LINE",
"516 13 LINE",
"516 0 LINE",
"687 0 LINE SMOOTH",
"678 0 OFFCURVE",
"667 17 OFFCURVE",
"667 60 CURVE SMOOTH",
"667 276 LINE SMOOTH",
"667 318 OFFCURVE",
"678 335 OFFCURVE",
"687 336 CURVE",
"372 336 LINE",
"372 306 LINE",
"362 207 LINE",
"375 216 OFFCURVE",
"409 228 OFFCURVE",
"454 228 CURVE SMOOTH",
"486 228 LINE SMOOTH",
"516 228 OFFCURVE",
"516 228 OFFCURVE",
"516 198 CURVE SMOOTH",
"516 182 LINE SMOOTH",
"516 135 OFFCURVE",
"473 101 OFFCURVE",
"374 101 CURVE SMOOTH",
"241 101 OFFCURVE",
"192 153 OFFCURVE",
"192 298 CURVE SMOOTH",
"192 432 OFFCURVE",
"250 500 OFFCURVE",
"385 500 CURVE SMOOTH",
"515 500 OFFCURVE",
"610 466 OFFCURVE",
"646 440 CURVE",
"626 550 LINE",
"626 580 LINE",
"595 593 OFFCURVE",
"509 610 OFFCURVE",
"383 610 CURVE SMOOTH",
"140 610 OFFCURVE",
"40 482 OFFCURVE",
"40 298 CURVE SMOOTH",
"40 88 OFFCURVE",
"152 -10 OFFCURVE",
"333 -10 CURVE SMOOTH"
);
}
);
width = 737;
},
{
associatedMasterId = "083550D2-F2E8-44E3-BE3D-E8BDF41EDFC4";
layerId = "0AAF2CB4-2EBD-42C4-BAB4-4CEC92C737FB";
width = 600;
},
{
anchors = (
{
name = bottom;
position = "{379, 0}";
},
{
name = top;
position = "{379, 600}";
}
);
background = {
anchors = (
{
name = bottom;
position = "{379, 0}";
},
{
name = top;
position = "{379, 600}";
}
);
paths = (
{
closed = 1;
nodes = (
"511 -10 OFFCURVE",
"584 43 OFFCURVE",
"604 74 CURVE",
"606 72 LINE",
"604 53 LINE",
"604 0 LINE",
"676 0 LINE",
"676 0 OFFCURVE",
"656 1 OFFCURVE",
"656 60 CURVE",
"656 236 LINE",
"656 294 OFFCURVE",
"676 296 OFFCURVE",
"676 296 CURVE",
"382 296 LINE",
"382 276 LINE",
"372 237 LINE",
"372 237 OFFCURVE",
"401 258 OFFCURVE",
"504 258 CURVE",
"574 258 LINE",
"604 258 OFFCURVE",
"604 258 OFFCURVE",
"604 228 CURVE",
"604 172 LINE",
"604 72 OFFCURVE",
"496 31 OFFCURVE",
"364 31 CURVE",
"215 31 OFFCURVE",
"104 116 OFFCURVE",
"104 298 CURVE",
"104 485 OFFCURVE",
"210 570 OFFCURVE",
"395 570 CURVE",
"564 570 OFFCURVE",
"646 510 OFFCURVE",
"646 510 CURVE",
"636 560 LINE",
"636 570 LINE",
"636 570 OFFCURVE",
"556 610 OFFCURVE",
"393 610 CURVE",
"150 610 OFFCURVE",
"50 482 OFFCURVE",
"50 298 CURVE",
"50 88 OFFCURVE",
"168 -10 OFFCURVE",
"363 -10 CURVE"
);
}
);
};
layerId = "CA5CD7F6-F0E6-40F5-9716-481B35A0BC32";
paths = (
{
closed = 1;
nodes = (
"511 -10 OFFCURVE",
"584 43 OFFCURVE",
"604 74 CURVE",
"606 72 LINE",
"604 53 LINE",
"604 0 LINE",
"676 0 LINE SMOOTH",
"667 0 OFFCURVE",
"656 17 OFFCURVE",
"656 60 CURVE SMOOTH",
"656 236 LINE SMOOTH",
"656 278 OFFCURVE",
"667 295 OFFCURVE",
"676 296 CURVE",
"382 296 LINE",
"382 276 LINE",
"372 237 LINE",
"384 246 OFFCURVE",
"429 258 OFFCURVE",
"504 258 CURVE SMOOTH",
"574 258 LINE SMOOTH",
"604 258 OFFCURVE",
"604 258 OFFCURVE",
"604 228 CURVE SMOOTH",
"604 172 LINE SMOOTH",
"604 72 OFFCURVE",
"496 31 OFFCURVE",
"364 31 CURVE SMOOTH",
"215 31 OFFCURVE",
"104 116 OFFCURVE",
"104 298 CURVE SMOOTH",
"104 485 OFFCURVE",
"210 570 OFFCURVE",
"395 570 CURVE SMOOTH",
"518 570 OFFCURVE",
"611 536 OFFCURVE",
"646 510 CURVE",
"636 560 LINE",
"636 570 LINE",
"602 587 OFFCURVE",
"512 610 OFFCURVE",
"393 610 CURVE SMOOTH",
"150 610 OFFCURVE",
"50 482 OFFCURVE",
"50 298 CURVE SMOOTH",
"50 88 OFFCURVE",
"168 -10 OFFCURVE",
"363 -10 CURVE SMOOTH"
);
}
);
width = 726;
},
{
associatedMasterId = "CA5CD7F6-F0E6-40F5-9716-481B35A0BC32";
layerId = "84A5E705-AA0E-4E61-8ACD-457F4D2A3415";
width = 600;
}
);
leftKerningGroup = O;
leftMetricsKey = O;
rightKerningGroup = G;
unicode = 0047;
},
{
color = 1;
glyphname = H;
lastChange = "2020-07-02 15:35:40 +0000";
layers = (
{
anchors = (
{
name = bottom;
position = "{375, 0}";
},
{
name = center;
position = "{375, 460}";
},
{
name = top;
position = "{375, 600}";
},
{
name = topleft;
position = "{30, 600}";
}
);
background = {
anchors = (
{
name = bottom;
position = "{375, 0}";
},
{
name = center;
position = "{375, 460}";
},
{
name = top;
position = "{375, 600}";
},
{
name = topleft;
position = "{30, 600}";
}
);
paths = (
{
closed = 1;
nodes = (
"214 0 LINE",
"214 0 OFFCURVE",
"193 1 OFFCURVE",
"193 60 CURVE",
"193 236 LINE",
"193 265 OFFCURVE",
"194 266 OFFCURVE",
"234 266 CURVE",
"533 266 LINE",
"572 266 OFFCURVE",
"573 266 OFFCURVE",
"573 236 CURVE",
"573 60 LINE",
"573 1 OFFCURVE",
"552 0 OFFCURVE",
"552 0 CURVE",
"706 0 LINE",
"706 0 OFFCURVE",
"685 1 OFFCURVE",
"685 60 CURVE",
"685 539 LINE",
"685 599 OFFCURVE",
"706 600 OFFCURVE",
"706 600 CURVE",
"552 600 LINE",
"552 600 OFFCURVE",
"573 598 OFFCURVE",
"573 540 CURVE",
"573 376 LINE",
"573 345 OFFCURVE",
"573 346 OFFCURVE",
"533 346 CURVE",
"234 346 LINE",
"194 346 OFFCURVE",
"193 347 OFFCURVE",
"193 376 CURVE",
"193 539 LINE",
"193 599 OFFCURVE",
"214 600 OFFCURVE",
"214 600 CURVE",
"60 600 LINE",
"60 600 OFFCURVE",
"81 598 OFFCURVE",
"81 540 CURVE",
"81 60 LINE",
"81 1 OFFCURVE",
"60 0 OFFCURVE",
"60 0 CURVE"
);
}
);
};
layerId = "083550D2-F2E8-44E3-BE3D-E8BDF41EDFC4";
paths = (
{
closed = 1;
nodes = (
"214 0 LINE SMOOTH",
"205 0 OFFCURVE",
"193 17 OFFCURVE",
"193 60 CURVE SMOOTH",
"193 236 LINE SMOOTH",
"193 265 OFFCURVE",
"194 266 OFFCURVE",
"234 266 CURVE SMOOTH",
"533 266 LINE SMOOTH",
"572 266 OFFCURVE",
"573 266 OFFCURVE",
"573 236 CURVE SMOOTH",
"573 60 LINE SMOOTH",
"573 17 OFFCURVE",
"561 0 OFFCURVE",
"552 0 CURVE SMOOTH",
"706 0 LINE SMOOTH",
"697 0 OFFCURVE",
"685 17 OFFCURVE",
"685 60 CURVE SMOOTH",
"685 539 LINE SMOOTH",
"685 583 OFFCURVE",
"697 600 OFFCURVE",
"706 600 CURVE",
"552 600 LINE",
"561 599 OFFCURVE",
"573 582 OFFCURVE",
"573 540 CURVE SMOOTH",
"573 376 LINE SMOOTH",
"573 345 OFFCURVE",
"573 346 OFFCURVE",
"533 346 CURVE SMOOTH",
"234 346 LINE SMOOTH",
"194 346 OFFCURVE",
"193 347 OFFCURVE",
"193 376 CURVE SMOOTH",
"193 539 LINE SMOOTH",
"193 583 OFFCURVE",
"205 600 OFFCURVE",
"214 600 CURVE SMOOTH",
"60 600 LINE",
"69 599 OFFCURVE",
"81 582 OFFCURVE",
"81 540 CURVE SMOOTH",
"81 60 LINE SMOOTH",
"81 17 OFFCURVE",
"69 0 OFFCURVE",
"60 0 CURVE SMOOTH"
);
}
);
width = 766;
},
{
anchors = (
{
name = bottom;
position = "{395, 0}";
},
{
name = center;
position = "{395, 460}";
},
{
name = top;
position = "{395, 600}";
},
{
name = topleft;
position = "{20, 600}";
}
);
background = {
anchors = (
{
name = bottom;
position = "{395, 0}";
},
{
name = center;
position = "{395, 460}";
},
{
name = top;
position = "{395, 600}";
},
{
name = topleft;
position = "{20, 600}";
}
);
paths = (
{
closed = 1;
nodes = (
"246 0 LINE",
"246 0 OFFCURVE",
"225 1 OFFCURVE",
"225 60 CURVE",
"225 216 LINE",
"225 245 OFFCURVE",
"226 246 OFFCURVE",
"266 246 CURVE",
"523 246 LINE",
"562 246 OFFCURVE",
"563 246 OFFCURVE",
"563 216 CURVE",
"563 60 LINE",
"563 1 OFFCURVE",
"542 0 OFFCURVE",
"542 0 CURVE",
"738 0 LINE",
"738 0 OFFCURVE",
"717 1 OFFCURVE",
"717 60 CURVE",
"717 539 LINE",
"717 599 OFFCURVE",
"738 600 OFFCURVE",
"738 600 CURVE",
"542 600 LINE",
"542 600 OFFCURVE",
"563 598 OFFCURVE",
"563 540 CURVE",
"563 386 LINE",
"563 355 OFFCURVE",
"563 356 OFFCURVE",
"523 356 CURVE",
"266 356 LINE",
"226 356 OFFCURVE",
"225 357 OFFCURVE",
"225 386 CURVE",
"225 539 LINE",
"225 599 OFFCURVE",
"246 600 OFFCURVE",
"246 600 CURVE",
"50 600 LINE",
"50 600 OFFCURVE",
"71 598 OFFCURVE",
"71 540 CURVE",
"71 60 LINE",
"71 1 OFFCURVE",
"50 0 OFFCURVE",
"50 0 CURVE"
);
}
);
};
layerId = "1A280FA7-9E72-4FC3-84C1-49B7BD56B269";
paths = (
{
closed = 1;
nodes = (
"246 0 LINE SMOOTH",
"237 0 OFFCURVE",
"225 17 OFFCURVE",
"225 60 CURVE SMOOTH",
"225 216 LINE SMOOTH",
"225 245 OFFCURVE",
"226 246 OFFCURVE",
"266 246 CURVE SMOOTH",
"523 246 LINE SMOOTH",
"562 246 OFFCURVE",
"563 246 OFFCURVE",
"563 216 CURVE SMOOTH",
"563 60 LINE SMOOTH",
"563 17 OFFCURVE",
"551 0 OFFCURVE",
"542 0 CURVE SMOOTH",
"738 0 LINE SMOOTH",
"729 0 OFFCURVE",
"717 17 OFFCURVE",
"717 60 CURVE SMOOTH",
"717 539 LINE SMOOTH",
"717 583 OFFCURVE",
"729 600 OFFCURVE",
"738 600 CURVE SMOOTH",
"542 600 LINE",
"551 599 OFFCURVE",
"563 582 OFFCURVE",
"563 540 CURVE SMOOTH",
"563 386 LINE SMOOTH",
"563 355 OFFCURVE",
"563 356 OFFCURVE",
"523 356 CURVE SMOOTH",
"266 356 LINE SMOOTH",
"226 356 OFFCURVE",
"225 357 OFFCURVE",
"225 386 CURVE SMOOTH",
"225 539 LINE SMOOTH",
"225 583 OFFCURVE",
"237 600 OFFCURVE",
"246 600 CURVE SMOOTH",
"50 600 LINE",
"59 599 OFFCURVE",
"71 582 OFFCURVE",
"71 540 CURVE SMOOTH",
"71 60 LINE SMOOTH",
"71 17 OFFCURVE",
"59 0 OFFCURVE",
"50 0 CURVE SMOOTH"
);
}
);
width = 788;
},
{
associatedMasterId = "083550D2-F2E8-44E3-BE3D-E8BDF41EDFC4";
layerId = "0AAF2CB4-2EBD-42C4-BAB4-4CEC92C737FB";
width = 600;
},
{
anchors = (
{
name = bottom;
position = "{366, 0}";
},
{
name = center;
position = "{366, 460}";
},
{
name = top;
position = "{366, 600}";
},
{
name = topleft;
position = "{31, 600}";
}
);
background = {
anchors = (
{
name = bottom;
position = "{366, 0}";
},
{
name = center;
position = "{366, 460}";
},
{
name = top;
position = "{366, 600}";
},
{
name = topleft;
position = "{31, 600}";
}
);
paths = (
{
closed = 1;
nodes = (
"164 0 LINE",
"164 0 OFFCURVE",
"143 1 OFFCURVE",
"143 60 CURVE",
"143 266 LINE",
"143 295 OFFCURVE",
"144 296 OFFCURVE",
"184 296 CURVE",
"542 296 LINE",
"581 296 OFFCURVE",
"582 296 OFFCURVE",
"582 266 CURVE",
"582 60 LINE",
"582 1 OFFCURVE",
"561 0 OFFCURVE",
"561 0 CURVE",
"656 0 LINE",
"656 0 OFFCURVE",
"635 1 OFFCURVE",
"635 60 CURVE",
"635 539 LINE",
"635 599 OFFCURVE",
"656 600 OFFCURVE",
"656 600 CURVE",
"561 600 LINE",
"561 600 OFFCURVE",
"582 598 OFFCURVE",
"582 540 CURVE",
"582 365 LINE",
"582 334 OFFCURVE",
"582 335 OFFCURVE",
"542 335 CURVE",
"184 335 LINE",
"144 335 OFFCURVE",
"143 336 OFFCURVE",
"143 365 CURVE",
"143 539 LINE",
"143 599 OFFCURVE",
"164 600 OFFCURVE",
"164 600 CURVE",
"70 600 LINE",
"70 600 OFFCURVE",
"91 598 OFFCURVE",
"91 540 CURVE",
"91 60 LINE",
"91 1 OFFCURVE",
"70 0 OFFCURVE",
"70 0 CURVE"
);
}
);
};
layerId = "CA5CD7F6-F0E6-40F5-9716-481B35A0BC32";
paths = (
{
closed = 1;
nodes = (
"164 0 LINE SMOOTH",
"155 0 OFFCURVE",
"143 17 OFFCURVE",
"143 60 CURVE SMOOTH",
"143 266 LINE SMOOTH",
"143 295 OFFCURVE",
"144 296 OFFCURVE",
"184 296 CURVE SMOOTH",
"542 296 LINE SMOOTH",
"581 296 OFFCURVE",
"582 296 OFFCURVE",
"582 266 CURVE SMOOTH",
"582 60 LINE SMOOTH",
"582 17 OFFCURVE",
"570 0 OFFCURVE",
"561 0 CURVE SMOOTH",
"656 0 LINE SMOOTH",
"647 0 OFFCURVE",
"635 17 OFFCURVE",
"635 60 CURVE SMOOTH",
"635 539 LINE SMOOTH",
"635 583 OFFCURVE",
"647 600 OFFCURVE",
"656 600 CURVE SMOOTH",
"561 600 LINE",
"570 599 OFFCURVE",
"582 582 OFFCURVE",
"582 540 CURVE SMOOTH",
"582 365 LINE SMOOTH",
"582 334 OFFCURVE",
"582 335 OFFCURVE",
"542 335 CURVE SMOOTH",
"184 335 LINE SMOOTH",
"144 335 OFFCURVE",
"143 336 OFFCURVE",
"143 365 CURVE SMOOTH",
"143 539 LINE SMOOTH",
"143 583 OFFCURVE",
"155 600 OFFCURVE",
"164 600 CURVE SMOOTH",
"70 600 LINE",
"79 599 OFFCURVE",
"91 582 OFFCURVE",
"91 540 CURVE SMOOTH",
"91 60 LINE SMOOTH",
"91 17 OFFCURVE",
"79 0 OFFCURVE",
"70 0 CURVE SMOOTH"
);
}
);
width = 726;
},
{
associatedMasterId = "CA5CD7F6-F0E6-40F5-9716-481B35A0BC32";
layerId = "5B43ADC3-E4AF-467B-9F09-48D3D33435B7";
width = 600;
}
);
leftKerningGroup = H;
rightKerningGroup = H;
unicode = 0048;
},
{
color = 8;
glyphname = I;
lastChange = "2020-07-02 15:20:05 +0000";
layers = (
{
anchors = (
{
name = bottom;
position = "{137, 0}";
},
{
name = ogonek;
position = "{217, 10}";
},
{
name = top;
position = "{137, 600}";
},
{
name = topleft;
position = "{30, 600}";
}
);
background = {
anchors = (
{
name = bottom;
position = "{137, 0}";
},
{
name = ogonek;
position = "{217, 10}";
},
{
name = top;
position = "{137, 600}";
},
{
name = topleft;
position = "{30, 600}";
}
);
paths = (
{
closed = 1;
nodes = (
"214 0 LINE",
"214 0 OFFCURVE",
"193 1 OFFCURVE",
"193 60 CURVE SMOOTH",
"193 539 LINE SMOOTH",
"193 599 OFFCURVE",
"214 600 OFFCURVE",
"214 600 CURVE",
"60 600 LINE",
"60 600 OFFCURVE",
"81 598 OFFCURVE",
"81 540 CURVE SMOOTH",
"81 60 LINE SMOOTH",
"81 1 OFFCURVE",
"60 0 OFFCURVE",
"60 0 CURVE"
);
}
);
};
layerId = "083550D2-F2E8-44E3-BE3D-E8BDF41EDFC4";
paths = (
{
closed = 1;
nodes = (
"214 0 LINE SMOOTH",
"205 0 OFFCURVE",
"193 17 OFFCURVE",
"193 60 CURVE SMOOTH",
"193 539 LINE SMOOTH",
"193 583 OFFCURVE",
"205 600 OFFCURVE",
"214 600 CURVE SMOOTH",
"60 600 LINE",
"69 599 OFFCURVE",
"81 582 OFFCURVE",
"81 540 CURVE SMOOTH",
"81 60 LINE SMOOTH",
"81 17 OFFCURVE",
"69 0 OFFCURVE",
"60 0 CURVE SMOOTH"
);
}
);
width = 274;
},
{
anchors = (
{
name = bottom;
position = "{147, 0}";
},
{
name = ogonek;
position = "{195, 10}";
},
{
name = top;
position = "{147, 600}";
},
{
name = topleft;
position = "{20, 600}";
}
);
background = {
anchors = (
{
name = bottom;
position = "{147, 0}";
},
{
name = ogonek;
position = "{195, 10}";
},
{
name = top;
position = "{147, 600}";
},
{
name = topleft;
position = "{20, 600}";
}
);
paths = (
{
closed = 1;
nodes = (
"243 0 LINE",
"243 0 OFFCURVE",
"222 1 OFFCURVE",
"222 60 CURVE SMOOTH",
"222 539 LINE SMOOTH",
"222 600 OFFCURVE",
"243 600 OFFCURVE",
"243 600 CURVE",
"50 600 LINE",
"50 600 OFFCURVE",
"70 599 OFFCURVE",
"70 540 CURVE SMOOTH",
"70 60 LINE SMOOTH",
"70 0 OFFCURVE",
"50 0 OFFCURVE",
"50 0 CURVE"
);
}
);
};
layerId = "1A280FA7-9E72-4FC3-84C1-49B7BD56B269";
paths = (
{
closed = 1;
nodes = (
"243 0 LINE SMOOTH",
"234 0 OFFCURVE",
"222 17 OFFCURVE",
"222 60 CURVE SMOOTH",
"222 539 LINE SMOOTH",
"222 584 OFFCURVE",
"234 600 OFFCURVE",
"243 600 CURVE SMOOTH",
"50 600 LINE SMOOTH",
"59 600 OFFCURVE",
"70 583 OFFCURVE",
"70 540 CURVE SMOOTH",
"70 60 LINE SMOOTH",
"70 16 OFFCURVE",
"59 0 OFFCURVE",
"50 0 CURVE SMOOTH"
);
}
);
width = 293;
},
{
associatedMasterId = "083550D2-F2E8-44E3-BE3D-E8BDF41EDFC4";
layerId = "0AAF2CB4-2EBD-42C4-BAB4-4CEC92C737FB";
width = 600;
},
{
anchors = (
{
name = bottom;
position = "{126, 0}";
},
{
name = ogonek;
position = "{204, 7}";
},
{
name = top;
position = "{116, 600}";
},
{
name = topleft;
position = "{39, 600}";
}
);
background = {
anchors = (
{
name = bottom;
position = "{126, 0}";
},
{
name = ogonek;
position = "{204, 7}";
},
{
name = top;
position = "{116, 600}";
},
{
name = topleft;
position = "{39, 600}";
}
);
paths = (
{
closed = 1;
nodes = (
"164 0 LINE",
"164 0 OFFCURVE",
"143 1 OFFCURVE",
"143 60 CURVE SMOOTH",
"143 539 LINE SMOOTH",
"143 599 OFFCURVE",
"164 600 OFFCURVE",
"164 600 CURVE",
"70 600 LINE",
"70 600 OFFCURVE",
"91 598 OFFCURVE",
"91 540 CURVE SMOOTH",
"91 60 LINE SMOOTH",
"91 1 OFFCURVE",
"70 0 OFFCURVE",
"70 0 CURVE"
);
}
);
};
layerId = "CA5CD7F6-F0E6-40F5-9716-481B35A0BC32";
paths = (
{
closed = 1;
nodes = (
"164 0 LINE SMOOTH",
"155 0 OFFCURVE",
"143 17 OFFCURVE",
"143 60 CURVE SMOOTH",
"143 539 LINE SMOOTH",
"143 583 OFFCURVE",
"155 600 OFFCURVE",
"164 600 CURVE SMOOTH",
"70 600 LINE",
"79 599 OFFCURVE",
"91 582 OFFCURVE",
"91 540 CURVE SMOOTH",
"91 60 LINE SMOOTH",
"91 17 OFFCURVE",
"79 0 OFFCURVE",
"70 0 CURVE SMOOTH"
);
}
);
width = 234;
},
{
associatedMasterId = "CA5CD7F6-F0E6-40F5-9716-481B35A0BC32";
layerId = "6EA050EC-D9A5-4622-8025-6B43D5C307DB";
width = 600;
}
);
leftKerningGroup = H;
leftMetricsKey = H;
rightKerningGroup = H;
rightMetricsKey = H;
unicode = 0049;
},
{
color = 1;
glyphname = J;
lastChange = "2020-07-02 15:20:05 +0000";
layers = (
{
anchors = (
{
name = bottom;
position = "{250, 0}";
},
{
name = top;
position = "{410, 600}";
}
);
background = {
anchors = (
{
name = bottom;
position = "{250, 0}";
},
{
name = top;
position = "{410, 600}";
}
);
paths = (
{
closed = 1;
nodes = (
"380 -10 OFFCURVE",
"468 34 OFFCURVE",
"468 210 CURVE",
"468 539 LINE",
"468 599 OFFCURVE",
"489 600 OFFCURVE",
"489 600 CURVE",
"335 600 LINE",
"335 600 OFFCURVE",
"356 598 OFFCURVE",
"356 540 CURVE",
"356 210 LINE",
"356 106 OFFCURVE",
"323 70 OFFCURVE",
"225 70 CURVE",
"103 70 OFFCURVE",
"40 160 OFFCURVE",
"40 160 CURVE",
"40 140 LINE",
"20 37 LINE",
"20 37 OFFCURVE",
"88 -10 OFFCURVE",
"243 -10 CURVE"
);
}
);
};
layerId = "083550D2-F2E8-44E3-BE3D-E8BDF41EDFC4";
paths = (
{
closed = 1;
nodes = (
"380 -10 OFFCURVE",
"468 34 OFFCURVE",
"468 210 CURVE SMOOTH",
"468 539 LINE SMOOTH",
"468 583 OFFCURVE",
"480 600 OFFCURVE",
"489 600 CURVE SMOOTH",
"335 600 LINE",
"344 599 OFFCURVE",
"356 582 OFFCURVE",
"356 540 CURVE SMOOTH",
"356 210 LINE SMOOTH",
"356 106 OFFCURVE",
"323 70 OFFCURVE",
"225 70 CURVE SMOOTH",
"136 70 OFFCURVE",
"67 121 OFFCURVE",
"40 160 CURVE",
"40 140 LINE",
"20 37 LINE",
"49 17 OFFCURVE",
"130 -10 OFFCURVE",
"243 -10 CURVE SMOOTH"
);
}
);
width = 539;
},
{
anchors = (
{
name = bottom;
position = "{270, 0}";
},
{
name = top;
position = "{410, 600}";
}
);
background = {
anchors = (
{
name = bottom;
position = "{270, 0}";
},
{
name = top;
position = "{410, 600}";
}
);
paths = (
{
closed = 1;
nodes = (
"400 -10 OFFCURVE",
"488 34 OFFCURVE",
"488 210 CURVE",
"488 539 LINE",
"488 599 OFFCURVE",
"509 600 OFFCURVE",
"509 600 CURVE",
"313 600 LINE",
"313 600 OFFCURVE",
"334 598 OFFCURVE",
"334 540 CURVE",
"334 210 LINE",
"334 130 OFFCURVE",
"303 100 OFFCURVE",
"245 100 CURVE",
"123 100 OFFCURVE",
"40 200 OFFCURVE",
"40 200 CURVE",
"40 170 LINE",
"20 37 LINE",
"20 37 OFFCURVE",
"108 -10 OFFCURVE",
"263 -10 CURVE"
);
}
);
};
layerId = "1A280FA7-9E72-4FC3-84C1-49B7BD56B269";
paths = (
{
closed = 1;
nodes = (
"400 -10 OFFCURVE",
"488 34 OFFCURVE",
"488 210 CURVE SMOOTH",
"488 539 LINE SMOOTH",
"488 583 OFFCURVE",
"500 600 OFFCURVE",
"509 600 CURVE SMOOTH",
"313 600 LINE",
"322 599 OFFCURVE",
"334 582 OFFCURVE",
"334 540 CURVE SMOOTH",
"334 210 LINE SMOOTH",
"334 130 OFFCURVE",
"303 100 OFFCURVE",
"245 100 CURVE SMOOTH",
"156 100 OFFCURVE",
"76 157 OFFCURVE",
"40 200 CURVE",
"40 170 LINE",
"20 37 LINE",
"58 17 OFFCURVE",
"150 -10 OFFCURVE",
"263 -10 CURVE SMOOTH"
);
}
);
width = 551;
},
{
associatedMasterId = "083550D2-F2E8-44E3-BE3D-E8BDF41EDFC4";
layerId = "0AAF2CB4-2EBD-42C4-BAB4-4CEC92C737FB";
width = 600;
},
{
anchors = (
{
name = bottom;
position = "{220, 0}";
},
{
name = top;
position = "{410, 600}";
}
);
background = {
anchors = (
{
name = bottom;
position = "{220, 0}";
},
{
name = top;
position = "{410, 600}";
}
);
paths = (
{
closed = 1;
nodes = (
"360 -10 OFFCURVE",
"448 34 OFFCURVE",
"448 210 CURVE",
"448 539 LINE",
"448 599 OFFCURVE",
"469 600 OFFCURVE",
"469 600 CURVE",
"375 600 LINE",
"375 600 OFFCURVE",
"396 598 OFFCURVE",
"396 540 CURVE",
"396 210 LINE",
"396 85 OFFCURVE",
"347 30 OFFCURVE",
"225 30 CURVE",
"79 30 OFFCURVE",
"30 100 OFFCURVE",
"30 100 CURVE",
"30 90 LINE",
"20 37 LINE",
"20 37 OFFCURVE",
"68 -10 OFFCURVE",
"223 -10 CURVE"
);
}
);
};
layerId = "CA5CD7F6-F0E6-40F5-9716-481B35A0BC32";
paths = (
{
closed = 1;
nodes = (
"360 -10 OFFCURVE",
"448 34 OFFCURVE",
"448 210 CURVE SMOOTH",
"448 539 LINE SMOOTH",
"448 583 OFFCURVE",
"460 600 OFFCURVE",
"469 600 CURVE SMOOTH",
"375 600 LINE",
"384 599 OFFCURVE",
"396 582 OFFCURVE",
"396 540 CURVE SMOOTH",
"396 210 LINE SMOOTH",
"396 85 OFFCURVE",
"347 30 OFFCURVE",
"225 30 CURVE SMOOTH",
"118 30 OFFCURVE",
"51 70 OFFCURVE",
"30 100 CURVE",
"30 90 LINE",
"20 37 LINE",
"41 17 OFFCURVE",
"110 -10 OFFCURVE",
"223 -10 CURVE SMOOTH"
);
}
);
width = 529;
},
{
associatedMasterId = "CA5CD7F6-F0E6-40F5-9716-481B35A0BC32";
layerId = "1C3C4F4D-A4EB-4044-8DE0-C6D03D151569";
width = 600;
}
);
leftKerningGroup = J;
rightKerningGroup = J;
unicode = 004A;
},
{
color = 1;
glyphname = K;
lastChange = "2020-07-02 15:20:05 +0000";
layers = (
{
anchors = (
{
name = bottom;
position = "{358, 0}";
},
{
name = top;
position = "{338, 600}";
}
);
background = {
anchors = (
{
name = bottom;
position = "{358, 0}";
},
{
name = top;
position = "{338, 600}";
}
);
paths = (
{
closed = 1;
nodes = (
"214 0 LINE",
"214 0 OFFCURVE",
"193 1 OFFCURVE",
"193 60 CURVE",
"193 233 LINE SMOOTH",
"193 265 OFFCURVE",
"193 266 OFFCURVE",
"234 266 CURVE",
"245 266 LINE",
"414 266 OFFCURVE",
"523 154 OFFCURVE",
"559 55 CURVE",
"579 1 OFFCURVE",
"545 0 OFFCURVE",
"545 0 CURVE",
"755 0 LINE",
"755 0 OFFCURVE",
"725 1 OFFCURVE",
"684 70 CURVE",
"639 145 OFFCURVE",
"590 209 OFFCURVE",
"521 258 CURVE",
"464 298 OFFCURVE",
"420 313 OFFCURVE",
"388 320 CURVE",
"388 323 LINE",
"404 330 OFFCURVE",
"438 343 OFFCURVE",
"479 378 CURVE",
"524 417 OFFCURVE",
"556 456 OFFCURVE",
"609 539 CURVE",
"648 599 OFFCURVE",
"680 600 OFFCURVE",
"680 600 CURVE",
"467 600 LINE",
"467 600 OFFCURVE",
"493 598 OFFCURVE",
"477 539 CURVE",
"447 426 OFFCURVE",
"336 346 OFFCURVE",
"244 346 CURVE",
"234 346 LINE",
"195 346 OFFCURVE",
"193 346 OFFCURVE",
"193 376 CURVE SMOOTH",
"193 539 LINE SMOOTH",
"193 599 OFFCURVE",
"214 600 OFFCURVE",
"214 600 CURVE",
"60 600 LINE",
"60 600 OFFCURVE",
"81 598 OFFCURVE",
"81 540 CURVE",
"81 60 LINE",
"81 1 OFFCURVE",
"60 0 OFFCURVE",
"60 0 CURVE"
);
}
);
};
layerId = "083550D2-F2E8-44E3-BE3D-E8BDF41EDFC4";
paths = (
{
closed = 1;
nodes = (
"214 0 LINE SMOOTH",
"205 0 OFFCURVE",
"193 17 OFFCURVE",
"193 60 CURVE SMOOTH",
"193 233 LINE SMOOTH",
"193 265 OFFCURVE",
"193 266 OFFCURVE",
"234 266 CURVE SMOOTH",
"245 266 LINE SMOOTH",
"414 266 OFFCURVE",
"523 154 OFFCURVE",
"559 55 CURVE SMOOTH",
"574 16 OFFCURVE",
"560 0 OFFCURVE",
"545 0 CURVE SMOOTH",
"755 0 LINE SMOOTH",
"742 0 OFFCURVE",
"714 20 OFFCURVE",
"684 70 CURVE SMOOTH",
"639 145 OFFCURVE",
"590 209 OFFCURVE",
"521 258 CURVE SMOOTH",
"464 298 OFFCURVE",
"420 313 OFFCURVE",
"388 320 CURVE",
"388 323 LINE",
"404 330 OFFCURVE",
"438 343 OFFCURVE",
"479 378 CURVE SMOOTH",
"524 417 OFFCURVE",
"556 456 OFFCURVE",
"609 539 CURVE SMOOTH",
"637 583 OFFCURVE",
"666 600 OFFCURVE",
"680 600 CURVE SMOOTH",
"467 600 LINE",
"478 599 OFFCURVE",
"489 582 OFFCURVE",
"477 539 CURVE SMOOTH",
"447 426 OFFCURVE",
"336 346 OFFCURVE",
"244 346 CURVE SMOOTH",
"234 346 LINE SMOOTH",
"195 346 OFFCURVE",
"193 346 OFFCURVE",
"193 376 CURVE SMOOTH",
"193 539 LINE SMOOTH",
"193 583 OFFCURVE",
"205 600 OFFCURVE",
"214 600 CURVE SMOOTH",
"60 600 LINE",
"69 599 OFFCURVE",
"81 582 OFFCURVE",
"81 540 CURVE SMOOTH",
"81 60 LINE SMOOTH",
"81 17 OFFCURVE",
"69 0 OFFCURVE",
"60 0 CURVE SMOOTH"
);
}
);
width = 755;
},
{
anchors = (
{
name = bottom;
position = "{358, 0}";
},
{
name = top;
position = "{338, 600}";
}
);
background = {
anchors = (
{
name = bottom;
position = "{358, 0}";
},
{
name = top;
position = "{338, 600}";
}
);
paths = (
{
closed = 1;
nodes = (
"246 0 LINE",
"246 0 OFFCURVE",
"225 1 OFFCURVE",
"225 60 CURVE",
"225 212 LINE",
"225 244 OFFCURVE",
"225 245 OFFCURVE",
"266 245 CURVE",
"277 245 LINE",
"384 245 OFFCURVE",
"463 176 OFFCURVE",
"507 55 CURVE",
"527 1 OFFCURVE",
"493 0 OFFCURVE",
"493 0 CURVE",
"745 0 LINE",
"745 0 OFFCURVE",
"715 1 OFFCURVE",
"674 70 CURVE",
"629 145 OFFCURVE",
"593 206 OFFCURVE",
"527 259 CURVE",
"477 299 OFFCURVE",
"440 313 OFFCURVE",
"408 320 CURVE",
"408 323 LINE",
"431 331 OFFCURVE",
"461 349 OFFCURVE",
"497 383 CURVE",
"538 422 OFFCURVE",
"566 456 OFFCURVE",
"619 539 CURVE",
"658 599 OFFCURVE",
"690 600 OFFCURVE",
"690 600 CURVE",
"435 600 LINE",
"435 600 OFFCURVE",
"456 599 OFFCURVE",
"445 539 CURVE",
"423 415 OFFCURVE",
"334 356 OFFCURVE",
"276 356 CURVE",
"266 356 LINE",
"227 356 OFFCURVE",
"225 356 OFFCURVE",
"225 386 CURVE SMOOTH",
"225 539 LINE SMOOTH",
"225 599 OFFCURVE",
"246 600 OFFCURVE",
"246 600 CURVE",
"50 600 LINE",
"50 600 OFFCURVE",
"71 598 OFFCURVE",
"71 540 CURVE",
"71 60 LINE",
"71 1 OFFCURVE",
"50 0 OFFCURVE",
"50 0 CURVE"
);
}
);
};
layerId = "1A280FA7-9E72-4FC3-84C1-49B7BD56B269";
paths = (
{
closed = 1;
nodes = (
"246 0 LINE SMOOTH",
"237 0 OFFCURVE",
"225 17 OFFCURVE",
"225 60 CURVE SMOOTH",
"225 212 LINE SMOOTH",
"225 244 OFFCURVE",
"225 245 OFFCURVE",
"266 245 CURVE SMOOTH",
"277 245 LINE SMOOTH",
"384 245 OFFCURVE",
"463 176 OFFCURVE",
"507 55 CURVE SMOOTH",
"522 16 OFFCURVE",
"508 0 OFFCURVE",
"493 0 CURVE SMOOTH",
"745 0 LINE SMOOTH",
"732 0 OFFCURVE",
"704 20 OFFCURVE",
"674 70 CURVE SMOOTH",
"629 145 OFFCURVE",
"593 206 OFFCURVE",
"527 259 CURVE SMOOTH",
"477 299 OFFCURVE",
"440 313 OFFCURVE",
"408 320 CURVE",
"408 323 LINE",
"431 331 OFFCURVE",
"461 349 OFFCURVE",
"497 383 CURVE SMOOTH",
"538 422 OFFCURVE",
"566 456 OFFCURVE",
"619 539 CURVE SMOOTH",
"647 583 OFFCURVE",
"676 600 OFFCURVE",
"690 600 CURVE SMOOTH",
"435 600 LINE SMOOTH",
"444 600 OFFCURVE",
"453 583 OFFCURVE",
"445 539 CURVE SMOOTH",
"423 415 OFFCURVE",
"334 356 OFFCURVE",
"276 356 CURVE SMOOTH",
"266 356 LINE SMOOTH",
"227 356 OFFCURVE",
"225 356 OFFCURVE",
"225 386 CURVE SMOOTH",
"225 539 LINE SMOOTH",
"225 583 OFFCURVE",
"237 600 OFFCURVE",
"246 600 CURVE SMOOTH",
"50 600 LINE",
"59 599 OFFCURVE",
"71 582 OFFCURVE",
"71 540 CURVE SMOOTH",
"71 60 LINE SMOOTH",
"71 17 OFFCURVE",
"59 0 OFFCURVE",
"50 0 CURVE SMOOTH"
);
}
);
width = 745;
},
{
associatedMasterId = "083550D2-F2E8-44E3-BE3D-E8BDF41EDFC4";
layerId = "0AAF2CB4-2EBD-42C4-BAB4-4CEC92C737FB";
width = 600;
},
{
anchors = (
{
name = bottom;
position = "{328, 0}";
},
{
name = top;
position = "{308, 600}";
}
);
background = {
anchors = (
{
name = bottom;
position = "{328, 0}";
},
{
name = top;
position = "{308, 600}";
}
);
paths = (
{
closed = 1;
nodes = (
"164 0 LINE",
"164 0 OFFCURVE",
"143 1 OFFCURVE",
"143 60 CURVE",
"143 254 LINE",
"143 286 OFFCURVE",
"143 287 OFFCURVE",
"184 287 CURVE",
"254 287 LINE",
"456 287 OFFCURVE",
"573 154 OFFCURVE",
"609 55 CURVE",
"629 1 OFFCURVE",
"595 0 OFFCURVE",
"595 0 CURVE",
"745 0 LINE",
"745 0 OFFCURVE",
"715 1 OFFCURVE",
"674 70 CURVE",
"629 145 OFFCURVE",
"583 212 OFFCURVE",
"512 258 CURVE",
"454 296 OFFCURVE",
"404 313 OFFCURVE",
"368 320 CURVE",
"368 323 LINE",
"385 327 OFFCURVE",
"420 339 OFFCURVE",
"470 375 CURVE",
"517 409 OFFCURVE",
"554 456 OFFCURVE",
"599 539 CURVE",
"631 599 OFFCURVE",
"650 600 OFFCURVE",
"650 600 CURVE",
"516 600 LINE",
"516 600 OFFCURVE",
"544 598 OFFCURVE",
"526 539 CURVE",
"494 437 OFFCURVE",
"400 336 OFFCURVE",
"264 336 CURVE",
"184 336 LINE",
"145 336 OFFCURVE",
"143 336 OFFCURVE",
"143 366 CURVE",
"143 539 LINE",
"143 599 OFFCURVE",
"164 600 OFFCURVE",
"164 600 CURVE",
"70 600 LINE",
"70 600 OFFCURVE",
"91 598 OFFCURVE",
"91 540 CURVE",
"91 60 LINE",
"91 1 OFFCURVE",
"70 0 OFFCURVE",
"70 0 CURVE"
);
}
);
};
layerId = "CA5CD7F6-F0E6-40F5-9716-481B35A0BC32";
paths = (
{
closed = 1;
nodes = (
"164 0 LINE SMOOTH",
"155 0 OFFCURVE",
"143 17 OFFCURVE",
"143 60 CURVE SMOOTH",
"143 254 LINE SMOOTH",
"143 286 OFFCURVE",
"143 287 OFFCURVE",
"184 287 CURVE SMOOTH",
"254 287 LINE SMOOTH",
"456 287 OFFCURVE",
"573 154 OFFCURVE",
"609 55 CURVE SMOOTH",
"624 16 OFFCURVE",
"610 0 OFFCURVE",
"595 0 CURVE SMOOTH",
"745 0 LINE SMOOTH",
"732 0 OFFCURVE",
"704 20 OFFCURVE",
"674 70 CURVE SMOOTH",
"629 145 OFFCURVE",
"583 212 OFFCURVE",
"512 258 CURVE SMOOTH",
"454 296 OFFCURVE",
"404 313 OFFCURVE",
"368 320 CURVE",
"368 323 LINE",
"385 327 OFFCURVE",
"420 339 OFFCURVE",
"470 375 CURVE SMOOTH",
"517 409 OFFCURVE",
"554 456 OFFCURVE",
"599 539 CURVE SMOOTH",
"622 583 OFFCURVE",
"642 600 OFFCURVE",
"650 600 CURVE SMOOTH",
"516 600 LINE",
"528 599 OFFCURVE",
"539 582 OFFCURVE",
"526 539 CURVE SMOOTH",
"494 437 OFFCURVE",
"400 336 OFFCURVE",
"264 336 CURVE SMOOTH",
"184 336 LINE SMOOTH",
"145 336 OFFCURVE",
"143 336 OFFCURVE",
"143 366 CURVE SMOOTH",
"143 539 LINE SMOOTH",
"143 583 OFFCURVE",
"155 600 OFFCURVE",
"164 600 CURVE SMOOTH",
"70 600 LINE",
"79 599 OFFCURVE",
"91 582 OFFCURVE",
"91 540 CURVE SMOOTH",
"91 60 LINE SMOOTH",
"91 17 OFFCURVE",
"79 0 OFFCURVE",
"70 0 CURVE SMOOTH"
);
}
);
width = 747;
},
{
associatedMasterId = "CA5CD7F6-F0E6-40F5-9716-481B35A0BC32";
layerId = "79179E7E-3999-4BD3-84AB-6468081ADC3F";
width = 600;
}
);
leftKerningGroup = H;
leftMetricsKey = H;
rightKerningGroup = K;
unicode = 004B;
},
{
color = 1;
glyphname = L;
lastChange = "2020-07-02 15:20:05 +0000";
layers = (
{
anchors = (
{
name = bottom;
position = "{324, 0}";
},
{
name = center;
position = "{144, 300}";
},
{
name = top;
position = "{314, 600}";
},
{
name = topright;
position = "{617, 600}";
}
);
background = {
anchors = (
{
name = bottom;
position = "{324, 0}";
},
{
name = center;
position = "{144, 300}";
},
{
name = top;
position = "{314, 600}";
},
{
name = topright;
position = "{617, 600}";
}
);
paths = (
{
closed = 1;
nodes = (
"607 0 LINE",
"607 21 LINE",
"627 121 LINE",
"627 121 OFFCURVE",
"593 81 OFFCURVE",
"487 81 CURVE",
"234 81 LINE",
"194 81 OFFCURVE",
"193 82 OFFCURVE",
"193 112 CURVE",
"193 539 LINE",
"193 599 OFFCURVE",
"214 600 OFFCURVE",
"214 600 CURVE",
"60 600 LINE",
"60 600 OFFCURVE",
"81 598 OFFCURVE",
"81 540 CURVE",
"81 60 LINE",
"81 1 OFFCURVE",
"60 0 OFFCURVE",
"60 0 CURVE"
);
}
);
};
layerId = "083550D2-F2E8-44E3-BE3D-E8BDF41EDFC4";
paths = (
{
closed = 1;
nodes = (
"607 0 LINE",
"607 21 LINE",
"627 121 LINE",
"612 104 OFFCURVE",
"564 81 OFFCURVE",
"487 81 CURVE SMOOTH",
"234 81 LINE SMOOTH",
"194 81 OFFCURVE",
"193 82 OFFCURVE",
"193 112 CURVE SMOOTH",
"193 539 LINE SMOOTH",
"193 583 OFFCURVE",
"205 600 OFFCURVE",
"214 600 CURVE SMOOTH",
"60 600 LINE",
"69 599 OFFCURVE",
"81 582 OFFCURVE",
"81 540 CURVE SMOOTH",
"81 60 LINE SMOOTH",
"81 17 OFFCURVE",
"69 0 OFFCURVE",
"60 0 CURVE SMOOTH"
);
}
);
width = 637;
},
{
anchors = (
{
name = bottom;
position = "{314, 0}";
},
{
name = center;
position = "{154, 300}";
},
{
name = top;
position = "{334, 600}";
},
{
name = topright;
position = "{607, 600}";
}
);
background = {
anchors = (
{
name = bottom;
position = "{314, 0}";
},
{
name = center;
position = "{154, 300}";
},
{
name = top;
position = "{334, 600}";
},
{
name = topright;
position = "{607, 600}";
}
);
paths = (
{
closed = 1;
nodes = (
"617 0 LINE",
"617 31 LINE",
"647 151 LINE",
"647 151 OFFCURVE",
"613 111 OFFCURVE",
"507 111 CURVE",
"266 111 LINE",
"226 111 OFFCURVE",
"225 112 OFFCURVE",
"225 142 CURVE",
"225 539 LINE",
"225 599 OFFCURVE",
"246 600 OFFCURVE",
"246 600 CURVE",
"50 600 LINE",
"50 600 OFFCURVE",
"71 598 OFFCURVE",
"71 540 CURVE",
"71 60 LINE",
"71 1 OFFCURVE",
"50 0 OFFCURVE",
"50 0 CURVE"
);
}
);
};
layerId = "1A280FA7-9E72-4FC3-84C1-49B7BD56B269";
paths = (
{
closed = 1;
nodes = (
"617 0 LINE",
"617 31 LINE",
"647 151 LINE",
"632 134 OFFCURVE",
"584 111 OFFCURVE",
"507 111 CURVE SMOOTH",
"266 111 LINE SMOOTH",
"226 111 OFFCURVE",
"225 112 OFFCURVE",
"225 142 CURVE SMOOTH",
"225 539 LINE SMOOTH",
"225 583 OFFCURVE",
"237 600 OFFCURVE",
"246 600 CURVE SMOOTH",
"50 600 LINE",
"59 599 OFFCURVE",
"71 582 OFFCURVE",
"71 540 CURVE SMOOTH",
"71 60 LINE SMOOTH",
"71 17 OFFCURVE",
"59 0 OFFCURVE",
"50 0 CURVE SMOOTH"
);
}
);
width = 657;
},
{
anchors = (
{
name = bottom;
position = "{334, 0}";
},
{
name = center;
position = "{134, 300}";
},
{
name = top;
position = "{304, 600}";
},
{
name = topright;
position = "{627, 600}";
}
);
background = {
anchors = (
{
name = bottom;
position = "{334, 0}";
},
{
name = center;
position = "{134, 300}";
},
{
name = top;
position = "{304, 600}";
},
{
name = topright;
position = "{627, 600}";
}
);
paths = (
{
closed = 1;
nodes = (
"596 0 LINE",
"596 11 LINE",
"616 70 LINE",
"616 70 OFFCURVE",
"582 40 OFFCURVE",
"476 40 CURVE",
"184 40 LINE",
"144 40 OFFCURVE",
"143 41 OFFCURVE",
"143 71 CURVE",
"143 539 LINE",
"143 599 OFFCURVE",
"164 600 OFFCURVE",
"164 600 CURVE",
"70 600 LINE",
"70 600 OFFCURVE",
"91 598 OFFCURVE",
"91 540 CURVE",
"91 60 LINE",
"91 1 OFFCURVE",
"70 0 OFFCURVE",
"70 0 CURVE"
);
}
);
};
layerId = "CA5CD7F6-F0E6-40F5-9716-481B35A0BC32";
paths = (
{
closed = 1;
nodes = (
"596 0 LINE",
"596 11 LINE",
"616 70 LINE",
"601 57 OFFCURVE",
"553 40 OFFCURVE",
"476 40 CURVE SMOOTH",
"184 40 LINE SMOOTH",
"144 40 OFFCURVE",
"143 41 OFFCURVE",
"143 71 CURVE SMOOTH",
"143 539 LINE SMOOTH",
"143 583 OFFCURVE",
"155 600 OFFCURVE",
"164 600 CURVE SMOOTH",
"70 600 LINE",
"79 599 OFFCURVE",
"91 582 OFFCURVE",
"91 540 CURVE SMOOTH",
"91 60 LINE SMOOTH",
"91 17 OFFCURVE",
"79 0 OFFCURVE",
"70 0 CURVE SMOOTH"
);
}
);
width = 626;
}
);
leftKerningGroup = H;
leftMetricsKey = H;
rightKerningGroup = L;
unicode = 004C;
},
{
color = 1;
glyphname = M;
lastChange = "2020-07-02 15:20:05 +0000";
layers = (
{
background = {
paths = (
{
closed = 1;
nodes = (
"214 0 LINE",
"214 0 OFFCURVE",
"193 1 OFFCURVE",
"193 60 CURVE",
"193 474 LINE",
"196 474 LINE",
"196 474 OFFCURVE",
"358 136 OFFCURVE",
"392 60 CURVE",
"419 0 OFFCURVE",
"402 0 OFFCURVE",
"402 0 CURVE",
"542 0 LINE",
"542 0 OFFCURVE",
"526 2 OFFCURVE",
"552 60 CURVE",
"592 150 OFFCURVE",
"752 474 OFFCURVE",
"752 474 CURVE",
"754 474 LINE",
"754 60 LINE",
"754 1 OFFCURVE",
"734 0 OFFCURVE",
"734 0 CURVE",
"887 0 LINE",
"887 0 OFFCURVE",
"866 1 OFFCURVE",
"866 60 CURVE",
"866 539 LINE",
"866 599 OFFCURVE",
"887 600 OFFCURVE",
"887 600 CURVE",
"703 600 LINE",
"703 600 OFFCURVE",
"708 599 OFFCURVE",
"682 540 CURVE",
"656 481 OFFCURVE",
"473 110 OFFCURVE",
"473 110 CURVE",
"472 110 LINE",
"472 110 OFFCURVE",
"293 477 OFFCURVE",
"266 538 CURVE",
"239 599 OFFCURVE",
"245 600 OFFCURVE",
"245 600 CURVE",
"60 600 LINE",
"60 600 OFFCURVE",
"81 598 OFFCURVE",
"81 540 CURVE",
"81 60 LINE",
"81 1 OFFCURVE",
"60 0 OFFCURVE",
"60 0 CURVE"
);
}
);
};
layerId = "083550D2-F2E8-44E3-BE3D-E8BDF41EDFC4";
paths = (
{
closed = 1;
nodes = (
"214 0 LINE SMOOTH",
"205 0 OFFCURVE",
"193 17 OFFCURVE",
"193 60 CURVE SMOOTH",
"193 474 LINE",
"196 474 LINE",
"266 329 OFFCURVE",
"367 115 OFFCURVE",
"392 60 CURVE SMOOTH",
"412 16 OFFCURVE",
"409 0 OFFCURVE",
"402 0 CURVE SMOOTH",
"542 0 LINE",
"535 1 OFFCURVE",
"533 18 OFFCURVE",
"552 60 CURVE SMOOTH",
"581 126 OFFCURVE",
"683 335 OFFCURVE",
"752 474 CURVE",
"754 474 LINE",
"754 60 LINE SMOOTH",
"754 17 OFFCURVE",
"743 0 OFFCURVE",
"734 0 CURVE SMOOTH",
"887 0 LINE SMOOTH",
"878 0 OFFCURVE",
"866 17 OFFCURVE",
"866 60 CURVE SMOOTH",
"866 539 LINE SMOOTH",
"866 583 OFFCURVE",
"878 600 OFFCURVE",
"887 600 CURVE SMOOTH",
"703 600 LINE SMOOTH",
"705 600 OFFCURVE",
"701 583 OFFCURVE",
"682 540 CURVE SMOOTH",
"663 497 OFFCURVE",
"552 270 OFFCURVE",
"473 110 CURVE",
"472 110 LINE",
"395 268 OFFCURVE",
"286 493 OFFCURVE",
"266 538 CURVE SMOOTH",
"246 583 OFFCURVE",
"242 600 OFFCURVE",
"245 600 CURVE SMOOTH",
"60 600 LINE",
"69 599 OFFCURVE",
"81 582 OFFCURVE",
"81 540 CURVE SMOOTH",
"81 60 LINE SMOOTH",
"81 17 OFFCURVE",
"69 0 OFFCURVE",
"60 0 CURVE SMOOTH"
);
}
);
width = 947;
},
{
background = {
paths = (
{
closed = 1;
nodes = (
"246 0 LINE",
"246 0 OFFCURVE",
"225 1 OFFCURVE",
"225 60 CURVE",
"225 384 LINE",
"228 384 LINE",
"228 384 OFFCURVE",
"345 143 OFFCURVE",
"382 60 CURVE",
"408 2 OFFCURVE",
"392 0 OFFCURVE",
"392 0 CURVE",
"532 0 LINE",
"532 0 OFFCURVE",
"516 2 OFFCURVE",
"542 60 CURVE",
"582 150 OFFCURVE",
"702 384 OFFCURVE",
"702 384 CURVE",
"704 384 LINE",
"704 60 LINE",
"704 1 OFFCURVE",
"684 0 OFFCURVE",
"684 0 CURVE",
"877 0 LINE",
"877 0 OFFCURVE",
"856 1 OFFCURVE",
"856 60 CURVE",
"856 539 LINE",
"856 599 OFFCURVE",
"877 600 OFFCURVE",
"877 600 CURVE",
"641 600 LINE",
"641 600 OFFCURVE",
"655 599 OFFCURVE",
"630 540 CURVE",
"602 474 OFFCURVE",
"463 190 OFFCURVE",
"463 190 CURVE",
"462 190 LINE",
"462 190 OFFCURVE",
"328 478 OFFCURVE",
"297 538 CURVE",
"267 597 OFFCURVE",
"286 600 OFFCURVE",
"286 600 CURVE",
"50 600 LINE",
"50 600 OFFCURVE",
"71 598 OFFCURVE",
"71 540 CURVE",
"71 60 LINE",
"71 1 OFFCURVE",
"50 0 OFFCURVE",
"50 0 CURVE"
);
}
);
};
layerId = "1A280FA7-9E72-4FC3-84C1-49B7BD56B269";
paths = (
{
closed = 1;
nodes = (
"246 0 LINE SMOOTH",
"237 0 OFFCURVE",
"225 17 OFFCURVE",
"225 60 CURVE SMOOTH",
"225 384 LINE",
"228 384 LINE",
"278 280 OFFCURVE",
"355 121 OFFCURVE",
"382 60 CURVE SMOOTH",
"401 18 OFFCURVE",
"399 1 OFFCURVE",
"392 0 CURVE",
"532 0 LINE",
"525 1 OFFCURVE",
"523 18 OFFCURVE",
"542 60 CURVE SMOOTH",
"571 126 OFFCURVE",
"650 283 OFFCURVE",
"702 384 CURVE",
"704 384 LINE",
"704 60 LINE SMOOTH",
"704 17 OFFCURVE",
"693 0 OFFCURVE",
"684 0 CURVE SMOOTH",
"877 0 LINE SMOOTH",
"868 0 OFFCURVE",
"856 17 OFFCURVE",
"856 60 CURVE SMOOTH",
"856 539 LINE SMOOTH",
"856 583 OFFCURVE",
"868 600 OFFCURVE",
"877 600 CURVE SMOOTH",
"641 600 LINE SMOOTH",
"647 600 OFFCURVE",
"648 583 OFFCURVE",
"630 540 CURVE SMOOTH",
"610 492 OFFCURVE",
"523 312 OFFCURVE",
"463 190 CURVE",
"462 190 LINE",
"404 314 OFFCURVE",
"320 494 OFFCURVE",
"297 538 CURVE SMOOTH",
"275 581 OFFCURVE",
"278 599 OFFCURVE",
"286 600 CURVE",
"50 600 LINE",
"59 599 OFFCURVE",
"71 582 OFFCURVE",
"71 540 CURVE SMOOTH",
"71 60 LINE SMOOTH",
"71 17 OFFCURVE",
"59 0 OFFCURVE",
"50 0 CURVE SMOOTH"
);
}
);
width = 927;
},
{
associatedMasterId = "083550D2-F2E8-44E3-BE3D-E8BDF41EDFC4";
layerId = "0AAF2CB4-2EBD-42C4-BAB4-4CEC92C737FB";
width = 600;
},
{
background = {
paths = (
{
closed = 1;
nodes = (
"165 0 LINE",
"165 0 OFFCURVE",
"144 1 OFFCURVE",
"144 60 CURVE",
"144 504 LINE",
"147 504 LINE",
"147 504 OFFCURVE",
"359 132 OFFCURVE",
"402 60 CURVE",
"437 1 OFFCURVE",
"412 0 OFFCURVE",
"412 0 CURVE",
"510 0 LINE",
"510 0 OFFCURVE",
"484 0 OFFCURVE",
"520 60 CURVE",
"571 144 OFFCURVE",
"780 504 OFFCURVE",
"780 504 CURVE",
"782 504 LINE",
"782 60 LINE",
"782 1 OFFCURVE",
"762 0 OFFCURVE",
"762 0 CURVE",
"855 0 LINE",
"855 0 OFFCURVE",
"834 1 OFFCURVE",
"834 60 CURVE",
"834 539 LINE",
"834 599 OFFCURVE",
"855 600 OFFCURVE",
"855 600 CURVE",
"762 600 LINE",
"762 600 OFFCURVE",
"776 599 OFFCURVE",
"741 540 CURVE",
"703 476 OFFCURVE",
"462 60 OFFCURVE",
"462 60 CURVE",
"461 60 LINE",
"461 60 OFFCURVE",
"218 477 OFFCURVE",
"184 538 CURVE",
"152 596 OFFCURVE",
"163 600 OFFCURVE",
"163 600 CURVE",
"70 600 LINE",
"70 600 OFFCURVE",
"91 598 OFFCURVE",
"91 540 CURVE",
"91 60 LINE",
"91 1 OFFCURVE",
"70 0 OFFCURVE",
"70 0 CURVE"
);
}
);
};
layerId = "CA5CD7F6-F0E6-40F5-9716-481B35A0BC32";
paths = (
{
closed = 1;
nodes = (
"165 0 LINE SMOOTH",
"156 0 OFFCURVE",
"144 17 OFFCURVE",
"144 60 CURVE SMOOTH",
"144 504 LINE",
"147 504 LINE",
"238 344 OFFCURVE",
"371 113 OFFCURVE",
"402 60 CURVE SMOOTH",
"428 17 OFFCURVE",
"423 0 OFFCURVE",
"412 0 CURVE SMOOTH",
"510 0 LINE SMOOTH",
"499 0 OFFCURVE",
"494 16 OFFCURVE",
"520 60 CURVE SMOOTH",
"557 121 OFFCURVE",
"690 349 OFFCURVE",
"780 504 CURVE",
"782 504 LINE",
"782 60 LINE SMOOTH",
"782 17 OFFCURVE",
"771 0 OFFCURVE",
"762 0 CURVE SMOOTH",
"855 0 LINE SMOOTH",
"846 0 OFFCURVE",
"834 17 OFFCURVE",
"834 60 CURVE SMOOTH",
"834 539 LINE SMOOTH",
"834 583 OFFCURVE",
"846 600 OFFCURVE",
"855 600 CURVE SMOOTH",
"762 600 LINE SMOOTH",
"768 600 OFFCURVE",
"767 583 OFFCURVE",
"741 540 CURVE SMOOTH",
"713 493 OFFCURVE",
"566 239 OFFCURVE",
"462 60 CURVE",
"461 60 LINE",
"357 239 OFFCURVE",
"209 493 OFFCURVE",
"184 538 CURVE SMOOTH",
"161 580 OFFCURVE",
"158 598 OFFCURVE",
"163 600 CURVE",
"70 600 LINE",
"79 599 OFFCURVE",
"91 582 OFFCURVE",
"91 540 CURVE SMOOTH",
"91 60 LINE SMOOTH",
"91 17 OFFCURVE",
"79 0 OFFCURVE",
"70 0 CURVE SMOOTH"
);
}
);
width = 925;
},
{
associatedMasterId = "CA5CD7F6-F0E6-40F5-9716-481B35A0BC32";
layerId = "FC758BEA-8862-433A-959B-54801E6FFFB2";
width = 600;
}
);
leftKerningGroup = M;
leftMetricsKey = H;
rightKerningGroup = M;
rightMetricsKey = H;
unicode = 004D;
},
{
color = 1;
glyphname = N;
lastChange = "2020-07-02 15:20:05 +0000";
layers = (
{
anchors = (
{
name = bottom;
position = "{385, 0}";
},
{
name = top;
position = "{385, 600}";
}
);
background = {
anchors = (
{
name = bottom;
position = "{385, 0}";
},
{
name = top;
position = "{385, 600}";
}
);
paths = (
{
closed = 1;
nodes = (
"214 0 LINE",
"214 0 OFFCURVE",
"193 1 OFFCURVE",
"193 60 CURVE",
"193 477 LINE",
"196 477 LINE",
"196 477 OFFCURVE",
"465 148 OFFCURVE",
"535 62 CURVE",
"577 10 OFFCURVE",
"575 0 OFFCURVE",
"575 0 CURVE",
"706 0 LINE",
"706 0 OFFCURVE",
"685 1 OFFCURVE",
"685 60 CURVE",
"685 539 LINE",
"685 599 OFFCURVE",
"706 600 OFFCURVE",
"706 600 CURVE",
"552 600 LINE",
"552 600 OFFCURVE",
"573 598 OFFCURVE",
"573 540 CURVE",
"573 165 LINE",
"571 165 LINE",
"571 165 OFFCURVE",
"286 498 OFFCURVE",
"254 538 CURVE",
"212 590 OFFCURVE",
"215 600 OFFCURVE",
"215 600 CURVE",
"60 600 LINE",
"60 600 OFFCURVE",
"81 598 OFFCURVE",
"81 540 CURVE",
"81 60 LINE",
"81 1 OFFCURVE",
"60 0 OFFCURVE",
"60 0 CURVE"
);
}
);
};
layerId = "083550D2-F2E8-44E3-BE3D-E8BDF41EDFC4";
paths = (
{
closed = 1;
nodes = (
"214 0 LINE SMOOTH",
"205 0 OFFCURVE",
"193 17 OFFCURVE",
"193 60 CURVE SMOOTH",
"193 477 LINE",
"196 477 LINE",
"312 336 OFFCURVE",
"484 125 OFFCURVE",
"535 62 CURVE SMOOTH",
"566 24 OFFCURVE",
"576 4 OFFCURVE",
"575 0 CURVE",
"706 0 LINE SMOOTH",
"697 0 OFFCURVE",
"685 17 OFFCURVE",
"685 60 CURVE SMOOTH",
"685 539 LINE SMOOTH",
"685 583 OFFCURVE",
"697 600 OFFCURVE",
"706 600 CURVE SMOOTH",
"552 600 LINE",
"561 599 OFFCURVE",
"573 582 OFFCURVE",
"573 540 CURVE SMOOTH",
"573 165 LINE",
"571 165 LINE",
"448 308 OFFCURVE",
"277 509 OFFCURVE",
"254 538 CURVE SMOOTH",
"223 576 OFFCURVE",
"214 596 OFFCURVE",
"215 600 CURVE",
"60 600 LINE",
"69 599 OFFCURVE",
"81 582 OFFCURVE",
"81 540 CURVE SMOOTH",
"81 60 LINE SMOOTH",
"81 17 OFFCURVE",
"69 0 OFFCURVE",
"60 0 CURVE SMOOTH"
);
}
);
width = 766;
},
{
anchors = (
{
name = bottom;
position = "{365, 0}";
},
{
name = top;
position = "{365, 600}";
}
);
background = {
anchors = (
{
name = bottom;
position = "{365, 0}";
},
{
name = top;
position = "{365, 600}";
}
);
paths = (
{
closed = 1;
nodes = (
"246 0 LINE",
"246 0 OFFCURVE",
"225 1 OFFCURVE",
"225 60 CURVE",
"225 387 LINE",
"228 387 LINE",
"228 387 OFFCURVE",
"430 144 OFFCURVE",
"494 62 CURVE",
"543 -1 OFFCURVE",
"524 0 OFFCURVE",
"524 0 CURVE",
"696 0 LINE",
"696 0 OFFCURVE",
"675 1 OFFCURVE",
"675 60 CURVE",
"675 539 LINE",
"675 599 OFFCURVE",
"696 600 OFFCURVE",
"696 600 CURVE",
"500 600 LINE",
"500 600 OFFCURVE",
"521 598 OFFCURVE",
"521 540 CURVE",
"521 255 LINE",
"519 255 LINE",
"519 255 OFFCURVE",
"309 499 OFFCURVE",
"275 538 CURVE",
"222 599 OFFCURVE",
"246 600 OFFCURVE",
"246 600 CURVE",
"50 600 LINE",
"50 600 OFFCURVE",
"71 598 OFFCURVE",
"71 540 CURVE",
"71 60 LINE",
"71 1 OFFCURVE",
"50 0 OFFCURVE",
"50 0 CURVE"
);
}
);
};
layerId = "1A280FA7-9E72-4FC3-84C1-49B7BD56B269";
paths = (
{
closed = 1;
nodes = (
"246 0 LINE SMOOTH",
"237 0 OFFCURVE",
"225 17 OFFCURVE",
"225 60 CURVE SMOOTH",
"225 387 LINE",
"228 387 LINE",
"315 283 OFFCURVE",
"447 122 OFFCURVE",
"494 62 CURVE SMOOTH",
"530 16 OFFCURVE",
"532 0 OFFCURVE",
"524 0 CURVE SMOOTH",
"696 0 LINE SMOOTH",
"687 0 OFFCURVE",
"675 17 OFFCURVE",
"675 60 CURVE SMOOTH",
"675 539 LINE SMOOTH",
"675 583 OFFCURVE",
"687 600 OFFCURVE",
"696 600 CURVE SMOOTH",
"500 600 LINE",
"509 599 OFFCURVE",
"521 582 OFFCURVE",
"521 540 CURVE SMOOTH",
"521 255 LINE",
"519 255 LINE",
"429 360 OFFCURVE",
"300 510 OFFCURVE",
"275 538 CURVE SMOOTH",
"236 583 OFFCURVE",
"236 600 OFFCURVE",
"246 600 CURVE SMOOTH",
"50 600 LINE",
"59 599 OFFCURVE",
"71 582 OFFCURVE",
"71 540 CURVE SMOOTH",
"71 60 LINE SMOOTH",
"71 17 OFFCURVE",
"59 0 OFFCURVE",
"50 0 CURVE SMOOTH"
);
}
);
width = 746;
},
{
anchors = (
{
name = bottom;
position = "{385, 0}";
},
{
name = top;
position = "{385, 600}";
}
);
background = {
anchors = (
{
name = bottom;
position = "{385, 0}";
},
{
name = top;
position = "{385, 600}";
}
);
paths = (
{
closed = 1;
nodes = (
"165 0 LINE",
"165 0 OFFCURVE",
"144 1 OFFCURVE",
"144 60 CURVE",
"144 557 LINE",
"147 557 LINE",
"147 557 OFFCURVE",
"483 146 OFFCURVE",
"556 62 CURVE",
"602 9 OFFCURVE",
"596 0 OFFCURVE",
"596 0 CURVE",
"674 0 LINE",
"674 0 OFFCURVE",
"653 1 OFFCURVE",
"653 60 CURVE",
"653 539 LINE",
"653 599 OFFCURVE",
"674 600 OFFCURVE",
"674 600 CURVE",
"580 600 LINE",
"580 600 OFFCURVE",
"601 598 OFFCURVE",
"601 540 CURVE",
"601 85 LINE",
"599 85 LINE",
"599 85 OFFCURVE",
"256 500 OFFCURVE",
"222 538 CURVE",
"168 598 OFFCURVE",
"176 600 OFFCURVE",
"176 600 CURVE",
"70 600 LINE",
"70 600 OFFCURVE",
"91 598 OFFCURVE",
"91 540 CURVE",
"91 60 LINE",
"91 1 OFFCURVE",
"70 0 OFFCURVE",
"70 0 CURVE"
);
}
);
};
layerId = "CA5CD7F6-F0E6-40F5-9716-481B35A0BC32";
paths = (
{
closed = 1;
nodes = (
"165 0 LINE SMOOTH",
"156 0 OFFCURVE",
"144 17 OFFCURVE",
"144 60 CURVE SMOOTH",
"144 557 LINE",
"147 557 LINE",
"291 380 OFFCURVE",
"503 123 OFFCURVE",
"556 62 CURVE SMOOTH",
"590 23 OFFCURVE",
"599 4 OFFCURVE",
"596 0 CURVE",
"674 0 LINE SMOOTH",
"665 0 OFFCURVE",
"653 17 OFFCURVE",
"653 60 CURVE SMOOTH",
"653 539 LINE SMOOTH",
"653 583 OFFCURVE",
"665 600 OFFCURVE",
"674 600 CURVE SMOOTH",
"580 600 LINE",
"589 599 OFFCURVE",
"601 582 OFFCURVE",
"601 540 CURVE SMOOTH",
"601 85 LINE",
"599 85 LINE",
"452 263 OFFCURVE",
"247 510 OFFCURVE",
"222 538 CURVE SMOOTH",
"183 582 OFFCURVE",
"173 599 OFFCURVE",
"176 600 CURVE",
"70 600 LINE",
"79 599 OFFCURVE",
"91 582 OFFCURVE",
"91 540 CURVE SMOOTH",
"91 60 LINE SMOOTH",
"91 17 OFFCURVE",
"79 0 OFFCURVE",
"70 0 CURVE SMOOTH"
);
}
);
width = 744;
}
);
leftKerningGroup = H;
leftMetricsKey = H;
rightKerningGroup = H;
rightMetricsKey = H;
unicode = 004E;
},
{
color = 8;
glyphname = Eng;
lastChange = "2020-07-02 15:20:31 +0000";
layers = (
{
background = {
paths = (
{
closed = 1;
nodes = (
"214 0 LINE",
"214 0 OFFCURVE",
"193 1 OFFCURVE",
"193 60 CURVE SMOOTH",
"193 477 LINE",
"196 477 LINE",
"220 448 OFFCURVE",
"466 147 OFFCURVE",
"535 62 CURVE SMOOTH",
"569 20 OFFCURVE",
"573 4 OFFCURVE",
"573 -21 CURVE SMOOTH",
"573 -71 OFFCURVE",
"548 -102 OFFCURVE",
"496 -102 CURVE",
"496 -173 LINE",
"517 -173 LINE SMOOTH",
"620 -173 OFFCURVE",
"685 -109 OFFCURVE",
"685 0 CURVE SMOOTH",
"685 539 LINE",
"685 599 OFFCURVE",
"706 600 OFFCURVE",
"706 600 CURVE",
"552 600 LINE",
"552 600 OFFCURVE",
"573 598 OFFCURVE",
"573 540 CURVE SMOOTH",
"573 165 LINE",
"571 165 LINE",
"563 175 OFFCURVE",
"286 498 OFFCURVE",
"254 538 CURVE SMOOTH",
"212 590 OFFCURVE",
"215 600 OFFCURVE",
"215 600 CURVE",
"60 600 LINE",
"60 600 OFFCURVE",
"81 598 OFFCURVE",
"81 540 CURVE SMOOTH",
"81 60 LINE SMOOTH",
"81 1 OFFCURVE",
"60 0 OFFCURVE",
"60 0 CURVE"
);
}
);
};
layerId = "083550D2-F2E8-44E3-BE3D-E8BDF41EDFC4";
paths = (
{
closed = 1;
nodes = (
"214 0 LINE SMOOTH",
"205 0 OFFCURVE",
"193 17 OFFCURVE",
"193 60 CURVE SMOOTH",
"193 477 LINE",
"196 477 LINE",
"220 448 OFFCURVE",
"466 147 OFFCURVE",
"535 62 CURVE SMOOTH",
"569 20 OFFCURVE",
"573 4 OFFCURVE",
"573 -21 CURVE SMOOTH",
"573 -71 OFFCURVE",
"548 -102 OFFCURVE",
"496 -102 CURVE",
"496 -173 LINE",
"517 -173 LINE SMOOTH",
"620 -173 OFFCURVE",
"685 -109 OFFCURVE",
"685 0 CURVE SMOOTH",
"685 539 LINE SMOOTH",
"685 583 OFFCURVE",
"697 600 OFFCURVE",
"706 600 CURVE SMOOTH",
"552 600 LINE",
"561 599 OFFCURVE",
"573 582 OFFCURVE",
"573 540 CURVE SMOOTH",
"573 165 LINE",
"571 165 LINE",
"517 233 OFFCURVE",
"286 498 OFFCURVE",
"254 538 CURVE SMOOTH",
"223 576 OFFCURVE",
"214 596 OFFCURVE",
"215 600 CURVE",
"60 600 LINE",
"69 599 OFFCURVE",
"81 582 OFFCURVE",
"81 540 CURVE SMOOTH",
"81 60 LINE SMOOTH",
"81 17 OFFCURVE",
"69 0 OFFCURVE",
"60 0 CURVE SMOOTH"
);
}
);
width = 766;
},
{
background = {
paths = (
{
closed = 1;
nodes = (
"246 0 LINE",
"246 0 OFFCURVE",
"225 1 OFFCURVE",
"225 60 CURVE SMOOTH",
"225 387 LINE",
"228 387 LINE",
"330 264 OFFCURVE",
"470 93 OFFCURVE",
"506 47 CURVE SMOOTH",
"524 24 OFFCURVE",
"529 8 OFFCURVE",
"529 -16 CURVE SMOOTH",
"529 -48 OFFCURVE",
"507 -72 OFFCURVE",
"466 -72 CURVE",
"466 -173 LINE",
"507 -173 LINE SMOOTH",
"610 -173 OFFCURVE",
"675 -109 OFFCURVE",
"675 0 CURVE SMOOTH",
"675 539 LINE",
"675 599 OFFCURVE",
"696 600 OFFCURVE",
"696 600 CURVE",
"500 600 LINE",
"500 600 OFFCURVE",
"521 598 OFFCURVE",
"521 540 CURVE SMOOTH",
"521 255 LINE",
"519 255 LINE",
"438 349 OFFCURVE",
"356 444 OFFCURVE",
"275 538 CURVE SMOOTH",
"222 599 OFFCURVE",
"246 600 OFFCURVE",
"246 600 CURVE",
"50 600 LINE",
"50 600 OFFCURVE",
"71 598 OFFCURVE",
"71 540 CURVE SMOOTH",
"71 60 LINE SMOOTH",
"71 1 OFFCURVE",
"50 0 OFFCURVE",
"50 0 CURVE"
);
}
);
};
layerId = "1A280FA7-9E72-4FC3-84C1-49B7BD56B269";
paths = (
{
closed = 1;
nodes = (
"246 0 LINE SMOOTH",
"237 0 OFFCURVE",
"225 17 OFFCURVE",
"225 60 CURVE SMOOTH",
"225 387 LINE",
"228 387 LINE",
"330 264 OFFCURVE",
"470 93 OFFCURVE",
"506 47 CURVE SMOOTH",
"524 24 OFFCURVE",
"529 8 OFFCURVE",
"529 -16 CURVE SMOOTH",
"529 -48 OFFCURVE",
"507 -72 OFFCURVE",
"466 -72 CURVE",
"466 -173 LINE",
"507 -173 LINE SMOOTH",
"610 -173 OFFCURVE",
"675 -109 OFFCURVE",
"675 0 CURVE SMOOTH",
"675 539 LINE SMOOTH",
"675 583 OFFCURVE",
"687 600 OFFCURVE",
"696 600 CURVE SMOOTH",
"500 600 LINE",
"509 599 OFFCURVE",
"521 582 OFFCURVE",
"521 540 CURVE SMOOTH",
"521 255 LINE",
"519 255 LINE",
"438 349 OFFCURVE",
"356 444 OFFCURVE",
"275 538 CURVE SMOOTH",
"236 583 OFFCURVE",
"236 600 OFFCURVE",
"246 600 CURVE SMOOTH",
"50 600 LINE",
"59 599 OFFCURVE",
"71 582 OFFCURVE",
"71 540 CURVE SMOOTH",
"71 60 LINE SMOOTH",
"71 17 OFFCURVE",
"59 0 OFFCURVE",
"50 0 CURVE SMOOTH"
);
}
);
width = 746;
},
{
background = {
paths = (
{
closed = 1;
nodes = (
"165 0 LINE",
"165 0 OFFCURVE",
"144 1 OFFCURVE",
"144 60 CURVE SMOOTH",
"144 557 LINE",
"147 557 LINE",
"286 389 OFFCURVE",
"483 147 OFFCURVE",
"564 53 CURVE SMOOTH",
"596 16 OFFCURVE",
"604 1 OFFCURVE",
"604 -39 CURVE SMOOTH",
"604 -95 OFFCURVE",
"570 -133 OFFCURVE",
"505 -133 CURVE",
"505 -173 LINE",
"526 -173 LINE SMOOTH",
"603 -173 OFFCURVE",
"653 -118 OFFCURVE",
"653 -20 CURVE SMOOTH",
"653 539 LINE SMOOTH",
"653 599 OFFCURVE",
"674 600 OFFCURVE",
"674 600 CURVE",
"580 600 LINE",
"580 600 OFFCURVE",
"601 598 OFFCURVE",
"601 540 CURVE SMOOTH",
"601 85 LINE",
"599 85 LINE",
"529 169 OFFCURVE",
"348 387 OFFCURVE",
"222 538 CURVE SMOOTH",
"168 598 OFFCURVE",
"176 600 OFFCURVE",
"176 600 CURVE",
"70 600 LINE",
"70 600 OFFCURVE",
"91 598 OFFCURVE",
"91 540 CURVE SMOOTH",
"91 60 LINE SMOOTH",
"91 1 OFFCURVE",
"70 0 OFFCURVE",
"70 0 CURVE"
);
}
);
};
layerId = "CA5CD7F6-F0E6-40F5-9716-481B35A0BC32";
paths = (
{
closed = 1;
nodes = (
"165 0 LINE SMOOTH",
"156 0 OFFCURVE",
"144 17 OFFCURVE",
"144 60 CURVE SMOOTH",
"144 557 LINE",
"147 557 LINE",
"286 389 OFFCURVE",
"483 147 OFFCURVE",
"564 53 CURVE SMOOTH",
"596 16 OFFCURVE",
"604 1 OFFCURVE",
"604 -39 CURVE SMOOTH",
"604 -95 OFFCURVE",
"570 -133 OFFCURVE",
"505 -133 CURVE",
"505 -173 LINE",
"526 -173 LINE SMOOTH",
"603 -173 OFFCURVE",
"653 -118 OFFCURVE",
"653 -20 CURVE SMOOTH",
"653 539 LINE SMOOTH",
"653 583 OFFCURVE",
"665 600 OFFCURVE",
"674 600 CURVE SMOOTH",
"580 600 LINE",
"589 599 OFFCURVE",
"601 582 OFFCURVE",
"601 540 CURVE SMOOTH",
"601 85 LINE",
"599 85 LINE",
"473 236 OFFCURVE",
"348 387 OFFCURVE",
"222 538 CURVE SMOOTH",
"183 582 OFFCURVE",
"173 599 OFFCURVE",
"176 600 CURVE",
"70 600 LINE",
"79 599 OFFCURVE",
"91 582 OFFCURVE",
"91 540 CURVE SMOOTH",
"91 60 LINE SMOOTH",
"91 17 OFFCURVE",
"79 0 OFFCURVE",
"70 0 CURVE SMOOTH"
);
}
);
width = 744;
}
);
leftKerningGroup = Eng;
leftMetricsKey = N;
rightKerningGroup = Eng;
rightMetricsKey = N;
unicode = 014A;
},
{
color = 8;
glyphname = Nhookleft;
lastChange = "2020-07-02 15:20:47 +0000";
layers = (
{
background = {
paths = (
{
closed = 1;
nodes = (
"75 -182 OFFCURVE",
"119 -125 OFFCURVE",
"119 -29 CURVE SMOOTH",
"119 477 LINE",
"122 477 LINE",
"235 339 OFFCURVE",
"348 200 OFFCURVE",
"461 62 CURVE SMOOTH",
"503 10 OFFCURVE",
"501 0 OFFCURVE",
"501 0 CURVE",
"632 0 LINE",
"632 0 OFFCURVE",
"611 1 OFFCURVE",
"611 60 CURVE SMOOTH",
"611 539 LINE SMOOTH",
"611 599 OFFCURVE",
"632 600 OFFCURVE",
"632 600 CURVE",
"478 600 LINE",
"478 600 OFFCURVE",
"499 598 OFFCURVE",
"499 540 CURVE SMOOTH",
"499 165 LINE",
"497 165 LINE",
"473 193 OFFCURVE",
"212 498 OFFCURVE",
"180 538 CURVE SMOOTH",
"138 590 OFFCURVE",
"141 600 OFFCURVE",
"141 600 CURVE",
"-14 600 LINE",
"-14 600 OFFCURVE",
"7 598 OFFCURVE",
"7 540 CURVE",
"7 -18 LINE SMOOTH",
"7 -83 OFFCURVE",
"-3 -102 OFFCURVE",
"-42 -102 CURVE SMOOTH",
"-72 -102 OFFCURVE",
"-104 -82 OFFCURVE",
"-104 -82 CURVE",
"-94 -112 LINE",
"-94 -172 LINE",
"-87 -175 OFFCURVE",
"-64 -182 OFFCURVE",
"-30 -182 CURVE SMOOTH"
);
}
);
};
layerId = "083550D2-F2E8-44E3-BE3D-E8BDF41EDFC4";
paths = (
{
closed = 1;
nodes = (
"75 -182 OFFCURVE",
"119 -125 OFFCURVE",
"119 -29 CURVE SMOOTH",
"119 477 LINE",
"122 477 LINE",
"235 339 OFFCURVE",
"348 200 OFFCURVE",
"461 62 CURVE SMOOTH",
"492 24 OFFCURVE",
"502 4 OFFCURVE",
"501 0 CURVE",
"632 0 LINE SMOOTH",
"623 0 OFFCURVE",
"611 17 OFFCURVE",
"611 60 CURVE SMOOTH",
"611 539 LINE SMOOTH",
"611 583 OFFCURVE",
"623 600 OFFCURVE",
"632 600 CURVE SMOOTH",
"478 600 LINE",
"487 599 OFFCURVE",
"499 582 OFFCURVE",
"499 540 CURVE SMOOTH",
"499 165 LINE",
"497 165 LINE",
"473 193 OFFCURVE",
"212 498 OFFCURVE",
"180 538 CURVE SMOOTH",
"149 576 OFFCURVE",
"140 596 OFFCURVE",
"141 600 CURVE",
"-14 600 LINE",
"-5 599 OFFCURVE",
"7 582 OFFCURVE",
"7 540 CURVE SMOOTH",
"7 -18 LINE SMOOTH",
"7 -83 OFFCURVE",
"-3 -102 OFFCURVE",
"-42 -102 CURVE SMOOTH",
"-64 -102 OFFCURVE",
"-90 -91 OFFCURVE",
"-104 -82 CURVE",
"-94 -112 LINE",
"-94 -172 LINE",
"-87 -175 OFFCURVE",
"-64 -182 OFFCURVE",
"-30 -182 CURVE SMOOTH"
);
}
);
width = 692;
},
{
background = {
paths = (
{
closed = 1;
nodes = (
"93 -182 OFFCURVE",
"158 -141 OFFCURVE",
"158 -29 CURVE SMOOTH",
"158 387 LINE",
"161 387 LINE",
"214 323 OFFCURVE",
"363 144 OFFCURVE",
"427 62 CURVE SMOOTH",
"474 2 OFFCURVE",
"459 0 OFFCURVE",
"457 0 CURVE SMOOTH",
"629 0 LINE",
"629 0 OFFCURVE",
"608 1 OFFCURVE",
"608 60 CURVE SMOOTH",
"608 539 LINE SMOOTH",
"608 599 OFFCURVE",
"629 600 OFFCURVE",
"629 600 CURVE",
"433 600 LINE",
"433 600 OFFCURVE",
"454 598 OFFCURVE",
"454 540 CURVE SMOOTH",
"454 255 LINE",
"452 255 LINE",
"371 349 OFFCURVE",
"289 444 OFFCURVE",
"208 538 CURVE SMOOTH",
"155 599 OFFCURVE",
"179 600 OFFCURVE",
"179 600 CURVE",
"-17 600 LINE",
"-17 600 OFFCURVE",
"4 598 OFFCURVE",
"4 540 CURVE SMOOTH",
"4 -18 LINE SMOOTH",
"4 -51 OFFCURVE",
"4 -72 OFFCURVE",
"-45 -72 CURVE SMOOTH",
"-75 -72 OFFCURVE",
"-107 -52 OFFCURVE",
"-107 -52 CURVE",
"-97 -82 LINE",
"-97 -172 LINE",
"-82 -177 OFFCURVE",
"-64 -182 OFFCURVE",
"-33 -182 CURVE SMOOTH"
);
}
);
};
layerId = "1A280FA7-9E72-4FC3-84C1-49B7BD56B269";
paths = (
{
closed = 1;
nodes = (
"93 -182 OFFCURVE",
"158 -141 OFFCURVE",
"158 -29 CURVE SMOOTH",
"158 387 LINE",
"161 387 LINE",
"214 323 OFFCURVE",
"363 144 OFFCURVE",
"427 62 CURVE SMOOTH",
"474 2 OFFCURVE",
"459 0 OFFCURVE",
"457 0 CURVE SMOOTH",
"629 0 LINE SMOOTH",
"620 0 OFFCURVE",
"608 17 OFFCURVE",
"608 60 CURVE SMOOTH",
"608 539 LINE SMOOTH",
"608 583 OFFCURVE",
"620 600 OFFCURVE",
"629 600 CURVE SMOOTH",
"433 600 LINE",
"442 599 OFFCURVE",
"454 582 OFFCURVE",
"454 540 CURVE SMOOTH",
"454 255 LINE",
"452 255 LINE",
"371 349 OFFCURVE",
"289 444 OFFCURVE",
"208 538 CURVE SMOOTH",
"169 583 OFFCURVE",
"169 600 OFFCURVE",
"179 600 CURVE SMOOTH",
"-17 600 LINE",
"-8 599 OFFCURVE",
"4 582 OFFCURVE",
"4 540 CURVE SMOOTH",
"4 -18 LINE SMOOTH",
"4 -51 OFFCURVE",
"4 -72 OFFCURVE",
"-45 -72 CURVE SMOOTH",
"-67 -72 OFFCURVE",
"-93 -61 OFFCURVE",
"-107 -52 CURVE",
"-97 -82 LINE",
"-97 -172 LINE",
"-82 -177 OFFCURVE",
"-64 -182 OFFCURVE",
"-33 -182 CURVE SMOOTH"
);
}
);
width = 679;
},
{
background = {
paths = (
{
closed = 1;
nodes = (
"49 -182 OFFCURVE",
"62 -121 OFFCURVE",
"62 -49 CURVE SMOOTH",
"62 557 LINE",
"65 557 LINE",
"91 525 OFFCURVE",
"401 146 OFFCURVE",
"474 62 CURVE SMOOTH",
"520 9 OFFCURVE",
"514 0 OFFCURVE",
"514 0 CURVE",
"592 0 LINE",
"592 0 OFFCURVE",
"571 1 OFFCURVE",
"571 60 CURVE SMOOTH",
"571 539 LINE SMOOTH",
"571 599 OFFCURVE",
"592 600 OFFCURVE",
"592 600 CURVE",
"498 600 LINE",
"498 600 OFFCURVE",
"519 598 OFFCURVE",
"519 540 CURVE SMOOTH",
"519 85 LINE",
"517 85 LINE",
"442 174 OFFCURVE",
"174 500 OFFCURVE",
"140 538 CURVE SMOOTH",
"86 598 OFFCURVE",
"94 600 OFFCURVE",
"94 600 CURVE",
"-12 600 LINE",
"-12 600 OFFCURVE",
"9 598 OFFCURVE",
"9 540 CURVE SMOOTH",
"9 -48 LINE SMOOTH",
"9 -102 OFFCURVE",
"-4 -132 OFFCURVE",
"-40 -132 CURVE SMOOTH",
"-70 -132 OFFCURVE",
"-102 -112 OFFCURVE",
"-102 -112 CURVE",
"-92 -142 LINE",
"-92 -172 LINE",
"-84 -176 OFFCURVE",
"-73 -182 OFFCURVE",
"-38 -182 CURVE SMOOTH"
);
}
);
};
layerId = "CA5CD7F6-F0E6-40F5-9716-481B35A0BC32";
paths = (
{
closed = 1;
nodes = (
"49 -182 OFFCURVE",
"62 -121 OFFCURVE",
"62 -49 CURVE SMOOTH",
"62 557 LINE",
"65 557 LINE",
"91 525 OFFCURVE",
"401 146 OFFCURVE",
"474 62 CURVE SMOOTH",
"508 23 OFFCURVE",
"517 4 OFFCURVE",
"514 0 CURVE",
"592 0 LINE SMOOTH",
"583 0 OFFCURVE",
"571 17 OFFCURVE",
"571 60 CURVE SMOOTH",
"571 539 LINE SMOOTH",
"571 583 OFFCURVE",
"583 600 OFFCURVE",
"592 600 CURVE SMOOTH",
"498 600 LINE",
"507 599 OFFCURVE",
"519 582 OFFCURVE",
"519 540 CURVE SMOOTH",
"519 85 LINE",
"517 85 LINE",
"442 174 OFFCURVE",
"174 500 OFFCURVE",
"140 538 CURVE SMOOTH",
"101 582 OFFCURVE",
"91 599 OFFCURVE",
"94 600 CURVE",
"-12 600 LINE",
"-3 599 OFFCURVE",
"9 582 OFFCURVE",
"9 540 CURVE SMOOTH",
"9 -48 LINE SMOOTH",
"9 -102 OFFCURVE",
"-4 -132 OFFCURVE",
"-40 -132 CURVE SMOOTH",
"-62 -132 OFFCURVE",
"-88 -121 OFFCURVE",
"-102 -112 CURVE",
"-92 -142 LINE",
"-92 -172 LINE",
"-84 -176 OFFCURVE",
"-73 -182 OFFCURVE",
"-38 -182 CURVE SMOOTH"
);
}
);
width = 662;
}
);
leftKerningGroup = Nhookleft;
leftMetricsKey = j;
rightKerningGroup = Nhookleft;
rightMetricsKey = N;
unicode = 019D;
},
{
color = 1;
glyphname = O;
lastChange = "2020-07-02 15:20:05 +0000";
layers = (
{
anchors = (
{
name = bottom;
position = "{383, 0}";
},
{
name = center;
position = "{383, 300}";
},
{
name = ogonek;
position = "{487, 3}";
},
{
name = top;
position = "{383, 600}";
},
{
name = topleft;
position = "{35, 600}";
},
{
name = topright;
position = "{731, 510}";
}
);
background = {
anchors = (
{
name = bottom;
position = "{383, 0}";
},
{
name = center;
position = "{383, 300}";
},
{
name = ogonek;
position = "{487, 3}";
},
{
name = top;
position = "{383, 600}";
},
{
name = topleft;
position = "{35, 600}";
},
{
name = topright;
position = "{731, 510}";
}
);
paths = (
{
closed = 1;
nodes = (
"401 -10 LINE",
"625 -10 OFFCURVE",
"721 105 OFFCURVE",
"721 303 CURVE",
"721 493 OFFCURVE",
"626 610 OFFCURVE",
"401 610 CURVE",
"370 610 LINE",
"140 610 OFFCURVE",
"45 492 OFFCURVE",
"45 303 CURVE",
"45 106 OFFCURVE",
"141 -10 OFFCURVE",
"370 -10 CURVE"
);
},
{
closed = 1;
nodes = (
"231 71 OFFCURVE",
"157 130 OFFCURVE",
"157 303 CURVE",
"157 469 OFFCURVE",
"229 530 OFFCURVE",
"380 530 CURVE",
"391 530 LINE",
"538 530 OFFCURVE",
"609 472 OFFCURVE",
"609 303 CURVE",
"609 129 OFFCURVE",
"540 71 OFFCURVE",
"391 71 CURVE",
"380 71 LINE"
);
}
);
};
layerId = "083550D2-F2E8-44E3-BE3D-E8BDF41EDFC4";
paths = (
{
closed = 1;
nodes = (
"401 -10 LINE SMOOTH",
"625 -10 OFFCURVE",
"721 105 OFFCURVE",
"721 303 CURVE SMOOTH",
"721 493 OFFCURVE",
"626 610 OFFCURVE",
"401 610 CURVE SMOOTH",
"370 610 LINE SMOOTH",
"140 610 OFFCURVE",
"45 492 OFFCURVE",
"45 303 CURVE SMOOTH",
"45 106 OFFCURVE",
"141 -10 OFFCURVE",
"370 -10 CURVE SMOOTH"
);
},
{
closed = 1;
nodes = (
"231 71 OFFCURVE",
"157 130 OFFCURVE",
"157 303 CURVE SMOOTH",
"157 469 OFFCURVE",
"229 530 OFFCURVE",
"380 530 CURVE SMOOTH",
"391 530 LINE SMOOTH",
"538 530 OFFCURVE",
"609 472 OFFCURVE",
"609 303 CURVE SMOOTH",
"609 129 OFFCURVE",
"540 71 OFFCURVE",
"391 71 CURVE SMOOTH",
"380 71 LINE SMOOTH"
);
}
);
width = 766;
},
{
anchors = (
{
name = bottom;
position = "{378, 0}";
},
{
name = center;
position = "{378, 300}";
},
{
name = ogonek;
position = "{432, 0}";
},
{
name = top;
position = "{378, 600}";
},
{
name = topleft;
position = "{30, 600}";
},
{
name = topright;
position = "{726, 510}";
}
);
background = {
anchors = (
{
name = bottom;
position = "{378, 0}";
},
{
name = center;
position = "{378, 300}";
},
{
name = ogonek;
position = "{432, 0}";
},
{
name = top;
position = "{378, 600}";
},
{
name = topleft;
position = "{30, 600}";
},
{
name = topright;
position = "{726, 510}";
}
);
paths = (
{
closed = 1;
nodes = (
"396 -10 LINE",
"620 -10 OFFCURVE",
"716 105 OFFCURVE",
"716 303 CURVE",
"716 493 OFFCURVE",
"621 610 OFFCURVE",
"396 610 CURVE",
"365 610 LINE",
"135 610 OFFCURVE",
"40 492 OFFCURVE",
"40 303 CURVE",
"40 106 OFFCURVE",
"136 -10 OFFCURVE",
"365 -10 CURVE"
);
},
{
closed = 1;
nodes = (
"253 101 OFFCURVE",
"192 156 OFFCURVE",
"192 303 CURVE",
"192 442 OFFCURVE",
"250 500 OFFCURVE",
"375 500 CURVE",
"386 500 LINE",
"506 500 OFFCURVE",
"564 445 OFFCURVE",
"564 303 CURVE",
"564 156 OFFCURVE",
"508 101 OFFCURVE",
"386 101 CURVE",
"375 101 LINE"
);
}
);
};
layerId = "1A280FA7-9E72-4FC3-84C1-49B7BD56B269";
paths = (
{
closed = 1;
nodes = (
"396 -10 LINE SMOOTH",
"620 -10 OFFCURVE",
"716 105 OFFCURVE",
"716 303 CURVE SMOOTH",
"716 493 OFFCURVE",
"621 610 OFFCURVE",
"396 610 CURVE SMOOTH",
"365 610 LINE SMOOTH",
"135 610 OFFCURVE",
"40 492 OFFCURVE",
"40 303 CURVE SMOOTH",
"40 106 OFFCURVE",
"136 -10 OFFCURVE",
"365 -10 CURVE SMOOTH"
);
},
{
closed = 1;
nodes = (
"253 101 OFFCURVE",
"192 156 OFFCURVE",
"192 303 CURVE SMOOTH",
"192 442 OFFCURVE",
"250 500 OFFCURVE",
"375 500 CURVE SMOOTH",
"386 500 LINE SMOOTH",
"506 500 OFFCURVE",
"564 445 OFFCURVE",
"564 303 CURVE SMOOTH",
"564 156 OFFCURVE",
"508 101 OFFCURVE",
"386 101 CURVE SMOOTH",
"375 101 LINE SMOOTH"
);
}
);
width = 756;
},
{
anchors = (
{
name = bottom;
position = "{388, 0}";
},
{
name = center;
position = "{388, 300}";
},
{
name = ogonek;
position = "{482, 2}";
},
{
name = top;
position = "{388, 600}";
},
{
name = topleft;
position = "{40, 600}";
},
{
name = topright;
position = "{736, 510}";
}
);
background = {
anchors = (
{
name = bottom;
position = "{388, 0}";
},
{
name = center;
position = "{388, 300}";
},
{
name = ogonek;
position = "{482, 2}";
},
{
name = top;
position = "{388, 600}";
},
{
name = topleft;
position = "{40, 600}";
},
{
name = topright;
position = "{736, 510}";
}
);
paths = (
{
closed = 1;
nodes = (
"406 -10 LINE",
"635 -10 OFFCURVE",
"726 94 OFFCURVE",
"726 303 CURVE",
"726 504 OFFCURVE",
"636 610 OFFCURVE",
"406 610 CURVE",
"375 610 LINE",
"140 610 OFFCURVE",
"50 503 OFFCURVE",
"50 303 CURVE",
"50 95 OFFCURVE",
"141 -10 OFFCURVE",
"375 -10 CURVE"
);
},
{
closed = 1;
nodes = (
"209 31 OFFCURVE",
"104 90 OFFCURVE",
"104 303 CURVE",
"104 503 OFFCURVE",
"207 570 OFFCURVE",
"385 570 CURVE",
"396 570 LINE",
"570 570 OFFCURVE",
"672 506 OFFCURVE",
"672 303 CURVE",
"672 87 OFFCURVE",
"572 31 OFFCURVE",
"396 31 CURVE",
"385 31 LINE"
);
}
);
};
layerId = "CA5CD7F6-F0E6-40F5-9716-481B35A0BC32";
paths = (
{
closed = 1;
nodes = (
"406 -10 LINE SMOOTH",
"635 -10 OFFCURVE",
"726 94 OFFCURVE",
"726 303 CURVE SMOOTH",
"726 504 OFFCURVE",
"636 610 OFFCURVE",
"406 610 CURVE SMOOTH",
"375 610 LINE SMOOTH",
"140 610 OFFCURVE",
"50 503 OFFCURVE",
"50 303 CURVE SMOOTH",
"50 95 OFFCURVE",
"141 -10 OFFCURVE",
"375 -10 CURVE SMOOTH"
);
},
{
closed = 1;
nodes = (
"209 31 OFFCURVE",
"104 90 OFFCURVE",
"104 303 CURVE SMOOTH",
"104 503 OFFCURVE",
"207 570 OFFCURVE",
"385 570 CURVE SMOOTH",
"396 570 LINE SMOOTH",
"570 570 OFFCURVE",
"672 506 OFFCURVE",
"672 303 CURVE SMOOTH",
"672 87 OFFCURVE",
"572 31 OFFCURVE",
"396 31 CURVE SMOOTH",
"385 31 LINE SMOOTH"
);
}
);
width = 776;
}
);
leftKerningGroup = O;
rightKerningGroup = O;
unicode = 004F;
},
{
color = 1;
glyphname = OE;
lastChange = "2020-07-02 15:20:05 +0000";
layers = (
{
background = {
components = (
{
name = E;
transform = "{1, 0, 0, 1, 455, 0}";
}
);
paths = (
{
closed = 1;
nodes = (
"597 -10 OFFCURVE",
"611 40 OFFCURVE",
"611 40 CURVE",
"611 70 LINE",
"611 151 LINE",
"611 151 OFFCURVE",
"575 71 OFFCURVE",
"419 71 CURVE",
"207 71 OFFCURVE",
"157 166 OFFCURVE",
"157 300 CURVE",
"157 434 OFFCURVE",
"212 530 OFFCURVE",
"390 530 CURVE",
"562 530 OFFCURVE",
"611 460 OFFCURVE",
"611 460 CURVE",
"611 550 LINE",
"611 580 LINE",
"611 580 OFFCURVE",
"562 610 OFFCURVE",
"388 610 CURVE",
"145 610 OFFCURVE",
"45 485 OFFCURVE",
"45 300 CURVE",
"45 85 OFFCURVE",
"158 -10 OFFCURVE",
"388 -10 CURVE"
);
}
);
};
components = (
{
name = E;
transform = "{1, 0, 0, 1, 455, 0}";
}
);
layerId = "083550D2-F2E8-44E3-BE3D-E8BDF41EDFC4";
paths = (
{
closed = 1;
nodes = (
"541 -10 OFFCURVE",
"605 19 OFFCURVE",
"611 40 CURVE",
"611 151 LINE",
"596 117 OFFCURVE",
"533 71 OFFCURVE",
"419 71 CURVE SMOOTH",
"207 71 OFFCURVE",
"157 166 OFFCURVE",
"157 300 CURVE SMOOTH",
"157 434 OFFCURVE",
"212 530 OFFCURVE",
"390 530 CURVE SMOOTH",
"516 530 OFFCURVE",
"590 490 OFFCURVE",
"611 460 CURVE",
"611 580 LINE",
"590 593 OFFCURVE",
"515 610 OFFCURVE",
"388 610 CURVE SMOOTH",
"145 610 OFFCURVE",
"45 485 OFFCURVE",
"45 300 CURVE SMOOTH",
"45 85 OFFCURVE",
"158 -10 OFFCURVE",
"388 -10 CURVE SMOOTH"
);
}
);
width = 1139;
},
{
background = {
components = (
{
name = E;
transform = "{1, 0, 0, 1, 460, 0}";
}
);
paths = (
{
closed = 1;
nodes = (
"592 -10 OFFCURVE",
"606 40 OFFCURVE",
"606 40 CURVE",
"606 70 LINE",
"606 191 LINE",
"606 191 OFFCURVE",
"570 101 OFFCURVE",
"414 101 CURVE",
"242 101 OFFCURVE",
"192 166 OFFCURVE",
"192 300 CURVE",
"192 434 OFFCURVE",
"247 500 OFFCURVE",
"385 500 CURVE",
"557 500 OFFCURVE",
"606 420 OFFCURVE",
"606 420 CURVE",
"606 550 LINE",
"606 580 LINE",
"606 580 OFFCURVE",
"557 610 OFFCURVE",
"383 610 CURVE",
"140 610 OFFCURVE",
"40 485 OFFCURVE",
"40 300 CURVE",
"40 85 OFFCURVE",
"153 -10 OFFCURVE",
"383 -10 CURVE"
);
}
);
};
components = (
{
name = E;
transform = "{1, 0, 0, 1, 460, 0}";
}
);
layerId = "1A280FA7-9E72-4FC3-84C1-49B7BD56B269";
paths = (
{
closed = 1;
nodes = (
"536 -10 OFFCURVE",
"600 19 OFFCURVE",
"606 40 CURVE",
"606 191 LINE",
"591 152 OFFCURVE",
"528 101 OFFCURVE",
"414 101 CURVE SMOOTH",
"242 101 OFFCURVE",
"192 166 OFFCURVE",
"192 300 CURVE SMOOTH",
"192 434 OFFCURVE",
"247 500 OFFCURVE",
"385 500 CURVE SMOOTH",
"511 500 OFFCURVE",
"585 454 OFFCURVE",
"606 420 CURVE",
"606 580 LINE",
"585 593 OFFCURVE",
"510 610 OFFCURVE",
"383 610 CURVE SMOOTH",
"140 610 OFFCURVE",
"40 485 OFFCURVE",
"40 300 CURVE SMOOTH",
"40 85 OFFCURVE",
"153 -10 OFFCURVE",
"383 -10 CURVE SMOOTH"
);
}
);
width = 1155;
},
{
associatedMasterId = "083550D2-F2E8-44E3-BE3D-E8BDF41EDFC4";
layerId = "0AAF2CB4-2EBD-42C4-BAB4-4CEC92C737FB";
width = 600;
},
{
background = {
components = (
{
name = E;
transform = "{1, 0, 0, 1, 450, 0}";
}
);
paths = (
{
closed = 1;
nodes = (
"582 -10 OFFCURVE",
"576 40 OFFCURVE",
"576 40 CURVE",
"576 60 LINE",
"576 111 LINE",
"576 111 OFFCURVE",
"576 31 OFFCURVE",
"404 31 CURVE",
"170 31 OFFCURVE",
"104 126 OFFCURVE",
"104 300 CURVE",
"104 461 OFFCURVE",
"171 570 OFFCURVE",
"375 570 CURVE",
"563 570 OFFCURVE",
"576 500 OFFCURVE",
"576 500 CURVE",
"576 560 LINE",
"576 580 LINE",
"576 580 OFFCURVE",
"547 610 OFFCURVE",
"373 610 CURVE",
"135 610 OFFCURVE",
"50 485 OFFCURVE",
"50 300 CURVE",
"50 85 OFFCURVE",
"148 -10 OFFCURVE",
"373 -10 CURVE"
);
}
);
};
components = (
{
name = E;
transform = "{1, 0, 0, 1, 450, 0}";
}
);
layerId = "CA5CD7F6-F0E6-40F5-9716-481B35A0BC32";
paths = (
{
closed = 1;
nodes = (
"526 -10 OFFCURVE",
"579 19 OFFCURVE",
"576 40 CURVE",
"576 111 LINE SMOOTH",
"576 77 OFFCURVE",
"530 31 OFFCURVE",
"404 31 CURVE SMOOTH",
"170 31 OFFCURVE",
"104 126 OFFCURVE",
"104 300 CURVE SMOOTH",
"104 461 OFFCURVE",
"171 570 OFFCURVE",
"375 570 CURVE SMOOTH",
"512 570 OFFCURVE",
"570 530 OFFCURVE",
"576 500 CURVE",
"576 580 LINE",
"564 593 OFFCURVE",
"500 610 OFFCURVE",
"373 610 CURVE SMOOTH",
"135 610 OFFCURVE",
"50 485 OFFCURVE",
"50 300 CURVE SMOOTH",
"50 85 OFFCURVE",
"148 -10 OFFCURVE",
"373 -10 CURVE SMOOTH"
);
}
);
width = 1123;
},
{
associatedMasterId = "CA5CD7F6-F0E6-40F5-9716-481B35A0BC32";
layerId = "3AE67AF9-1C87-4966-928E-941A822C7742";
width = 600;
}
);
leftKerningGroup = O;
leftMetricsKey = O;
rightKerningGroup = E;
rightMetricsKey = E;
unicode = 0152;
},
{
color = 1;
glyphname = P;
lastChange = "2020-07-02 15:20:05 +0000";
layers = (
{
background = {
paths = (
{
closed = 1;
nodes = (
"214 0 LINE",
"214 0 OFFCURVE",
"193 1 OFFCURVE",
"193 60 CURVE",
"193 201 LINE",
"388 201 LINE",
"568 201 OFFCURVE",
"628 278 OFFCURVE",
"628 403 CURVE",
"628 521 OFFCURVE",
"570 600 OFFCURVE",
"388 600 CURVE",
"60 600 LINE",
"60 600 OFFCURVE",
"81 598 OFFCURVE",
"81 540 CURVE",
"81 60 LINE",
"81 1 OFFCURVE",
"61 0 OFFCURVE",
"61 0 CURVE"
);
},
{
closed = 1;
nodes = (
"193 280 OFFCURVE",
"193 281 OFFCURVE",
"193 308 CURVE",
"193 492 LINE",
"193 519 OFFCURVE",
"193 519 OFFCURVE",
"234 519 CURVE",
"367 519 LINE",
"485 519 OFFCURVE",
"517 477 OFFCURVE",
"517 403 CURVE",
"517 332 OFFCURVE",
"496 280 OFFCURVE",
"367 280 CURVE",
"234 280 LINE"
);
}
);
};
layerId = "083550D2-F2E8-44E3-BE3D-E8BDF41EDFC4";
paths = (
{
closed = 1;
nodes = (
"214 0 LINE SMOOTH",
"205 0 OFFCURVE",
"193 17 OFFCURVE",
"193 60 CURVE SMOOTH",
"193 201 LINE",
"388 201 LINE SMOOTH",
"568 201 OFFCURVE",
"628 278 OFFCURVE",
"628 403 CURVE SMOOTH",
"628 521 OFFCURVE",
"570 600 OFFCURVE",
"388 600 CURVE SMOOTH",
"60 600 LINE",
"69 599 OFFCURVE",
"81 582 OFFCURVE",
"81 540 CURVE SMOOTH",
"81 60 LINE SMOOTH",
"81 17 OFFCURVE",
"70 0 OFFCURVE",
"61 0 CURVE SMOOTH"
);
},
{
closed = 1;
nodes = (
"193 280 OFFCURVE",
"193 281 OFFCURVE",
"193 308 CURVE SMOOTH",
"193 492 LINE SMOOTH",
"193 519 OFFCURVE",
"193 519 OFFCURVE",
"234 519 CURVE SMOOTH",
"367 519 LINE SMOOTH",
"485 519 OFFCURVE",
"517 477 OFFCURVE",
"517 403 CURVE SMOOTH",
"517 332 OFFCURVE",
"496 280 OFFCURVE",
"367 280 CURVE SMOOTH",
"234 280 LINE SMOOTH"
);
}
);
width = 663;
},
{
background = {
paths = (
{
closed = 1;
nodes = (
"246 0 LINE",
"246 0 OFFCURVE",
"225 1 OFFCURVE",
"225 60 CURVE",
"225 191 LINE",
"378 191 LINE",
"547 191 OFFCURVE",
"618 268 OFFCURVE",
"618 397 CURVE",
"618 523 OFFCURVE",
"547 600 OFFCURVE",
"378 600 CURVE",
"50 600 LINE",
"50 600 OFFCURVE",
"71 598 OFFCURVE",
"71 540 CURVE",
"71 60 LINE",
"71 1 OFFCURVE",
"51 0 OFFCURVE",
"51 0 CURVE"
);
},
{
closed = 1;
nodes = (
"225 301 OFFCURVE",
"225 302 OFFCURVE",
"225 329 CURVE",
"225 460 LINE",
"225 487 OFFCURVE",
"225 487 OFFCURVE",
"266 487 CURVE",
"326 487 LINE",
"430 487 OFFCURVE",
"466 463 OFFCURVE",
"466 397 CURVE",
"466 329 OFFCURVE",
"434 301 OFFCURVE",
"316 301 CURVE",
"266 301 LINE"
);
}
);
};
layerId = "1A280FA7-9E72-4FC3-84C1-49B7BD56B269";
paths = (
{
closed = 1;
nodes = (
"246 0 LINE SMOOTH",
"237 0 OFFCURVE",
"225 17 OFFCURVE",
"225 60 CURVE SMOOTH",
"225 191 LINE",
"378 191 LINE SMOOTH",
"547 191 OFFCURVE",
"618 268 OFFCURVE",
"618 397 CURVE SMOOTH",
"618 523 OFFCURVE",
"547 600 OFFCURVE",
"378 600 CURVE SMOOTH",
"50 600 LINE",
"59 599 OFFCURVE",
"71 582 OFFCURVE",
"71 540 CURVE SMOOTH",
"71 60 LINE SMOOTH",
"71 17 OFFCURVE",
"60 0 OFFCURVE",
"51 0 CURVE SMOOTH"
);
},
{
closed = 1;
nodes = (
"225 301 OFFCURVE",
"225 302 OFFCURVE",
"225 329 CURVE SMOOTH",
"225 460 LINE SMOOTH",
"225 487 OFFCURVE",
"225 487 OFFCURVE",
"266 487 CURVE SMOOTH",
"326 487 LINE SMOOTH",
"430 487 OFFCURVE",
"466 463 OFFCURVE",
"466 397 CURVE SMOOTH",
"466 329 OFFCURVE",
"434 301 OFFCURVE",
"316 301 CURVE SMOOTH",
"266 301 LINE SMOOTH"
);
}
);
width = 653;
},
{
associatedMasterId = "083550D2-F2E8-44E3-BE3D-E8BDF41EDFC4";
layerId = "0AAF2CB4-2EBD-42C4-BAB4-4CEC92C737FB";
width = 600;
},
{
background = {
paths = (
{
closed = 1;
nodes = (
"164 0 LINE",
"164 0 OFFCURVE",
"143 1 OFFCURVE",
"143 60 CURVE",
"143 222 LINE",
"397 222 LINE",
"558 222 OFFCURVE",
"618 286 OFFCURVE",
"618 410 CURVE",
"618 533 OFFCURVE",
"566 600 OFFCURVE",
"397 600 CURVE",
"70 600 LINE",
"70 600 OFFCURVE",
"91 598 OFFCURVE",
"91 540 CURVE",
"91 60 LINE",
"91 1 OFFCURVE",
"71 0 OFFCURVE",
"71 0 CURVE"
);
},
{
closed = 1;
nodes = (
"143 263 OFFCURVE",
"143 264 OFFCURVE",
"143 291 CURVE",
"143 533 LINE",
"143 560 OFFCURVE",
"143 560 OFFCURVE",
"184 560 CURVE",
"387 560 LINE",
"518 560 OFFCURVE",
"565 512 OFFCURVE",
"565 410 CURVE",
"565 313 OFFCURVE",
"521 263 OFFCURVE",
"387 263 CURVE",
"184 263 LINE"
);
}
);
};
layerId = "CA5CD7F6-F0E6-40F5-9716-481B35A0BC32";
paths = (
{
closed = 1;
nodes = (
"164 0 LINE SMOOTH",
"155 0 OFFCURVE",
"143 17 OFFCURVE",
"143 60 CURVE SMOOTH",
"143 222 LINE",
"397 222 LINE SMOOTH",
"558 222 OFFCURVE",
"618 286 OFFCURVE",
"618 410 CURVE SMOOTH",
"618 533 OFFCURVE",
"566 600 OFFCURVE",
"397 600 CURVE SMOOTH",
"70 600 LINE",
"79 599 OFFCURVE",
"91 582 OFFCURVE",
"91 540 CURVE SMOOTH",
"91 60 LINE SMOOTH",
"91 17 OFFCURVE",
"80 0 OFFCURVE",
"71 0 CURVE SMOOTH"
);
},
{
closed = 1;
nodes = (
"143 263 OFFCURVE",
"143 264 OFFCURVE",
"143 291 CURVE SMOOTH",
"143 533 LINE SMOOTH",
"143 560 OFFCURVE",
"143 560 OFFCURVE",
"184 560 CURVE SMOOTH",
"387 560 LINE SMOOTH",
"518 560 OFFCURVE",
"565 512 OFFCURVE",
"565 410 CURVE SMOOTH",
"565 313 OFFCURVE",
"521 263 OFFCURVE",
"387 263 CURVE SMOOTH",
"184 263 LINE SMOOTH"
);
}
);
width = 658;
},
{
associatedMasterId = "CA5CD7F6-F0E6-40F5-9716-481B35A0BC32";
layerId = "FAD15C8D-83A4-4393-AF95-F431071D27BE";
width = 600;
}
);
leftKerningGroup = H;
leftMetricsKey = H;
rightKerningGroup = P;
unicode = 0050;
},
{
color = 1;
glyphname = Thorn;
lastChange = "2020-07-02 15:20:05 +0000";
layers = (
{
background = {
paths = (
{
closed = 1;
nodes = (
"214 0 LINE",
"214 0 OFFCURVE",
"193 1 OFFCURVE",
"193 60 CURVE",
"193 96 LINE",
"388 96 LINE",
"594 96 OFFCURVE",
"628 168 OFFCURVE",
"628 300 CURVE",
"628 421 OFFCURVE",
"570 485 OFFCURVE",
"388 485 CURVE",
"193 485 LINE",
"193 600 LINE",
"60 600 LINE",
"60 600 OFFCURVE",
"81 598 OFFCURVE",
"81 540 CURVE",
"81 60 LINE",
"81 1 OFFCURVE",
"61 0 OFFCURVE",
"61 0 CURVE"
);
},
{
closed = 1;
nodes = (
"193 175 OFFCURVE",
"193 176 OFFCURVE",
"193 203 CURVE",
"193 376 LINE",
"193 403 OFFCURVE",
"193 403 OFFCURVE",
"234 403 CURVE",
"388 403 LINE",
"471 403 OFFCURVE",
"517 377 OFFCURVE",
"517 300 CURVE",
"517 226 OFFCURVE",
"498 175 OFFCURVE",
"388 175 CURVE",
"234 175 LINE"
);
}
);
};
layerId = "083550D2-F2E8-44E3-BE3D-E8BDF41EDFC4";
paths = (
{
closed = 1;
nodes = (
"214 0 LINE SMOOTH",
"205 0 OFFCURVE",
"193 17 OFFCURVE",
"193 60 CURVE SMOOTH",
"193 96 LINE",
"388 96 LINE SMOOTH",
"594 96 OFFCURVE",
"628 168 OFFCURVE",
"628 300 CURVE SMOOTH",
"628 421 OFFCURVE",
"570 485 OFFCURVE",
"388 485 CURVE SMOOTH",
"193 485 LINE",
"193 600 LINE",
"60 600 LINE",
"69 599 OFFCURVE",
"81 582 OFFCURVE",
"81 540 CURVE SMOOTH",
"81 60 LINE SMOOTH",
"81 17 OFFCURVE",
"70 0 OFFCURVE",
"61 0 CURVE SMOOTH"
);
},
{
closed = 1;
nodes = (
"193 175 OFFCURVE",
"193 176 OFFCURVE",
"193 203 CURVE SMOOTH",
"193 376 LINE SMOOTH",
"193 403 OFFCURVE",
"193 403 OFFCURVE",
"234 403 CURVE SMOOTH",
"388 403 LINE SMOOTH",
"471 403 OFFCURVE",
"517 377 OFFCURVE",
"517 300 CURVE SMOOTH",
"517 226 OFFCURVE",
"498 175 OFFCURVE",
"388 175 CURVE SMOOTH",
"234 175 LINE SMOOTH"
);
}
);
width = 673;
},
{
background = {
paths = (
{
closed = 1;
nodes = (
"246 0 LINE",
"246 0 OFFCURVE",
"225 1 OFFCURVE",
"225 60 CURVE",
"225 97 LINE",
"378 97 LINE",
"584 97 OFFCURVE",
"618 176 OFFCURVE",
"618 300 CURVE",
"618 419 OFFCURVE",
"560 485 OFFCURVE",
"378 485 CURVE",
"225 485 LINE",
"225 600 LINE",
"50 600 LINE",
"50 600 OFFCURVE",
"71 598 OFFCURVE",
"71 540 CURVE",
"71 60 LINE",
"71 1 OFFCURVE",
"51 0 OFFCURVE",
"51 0 CURVE"
);
},
{
closed = 1;
nodes = (
"225 207 OFFCURVE",
"225 207 OFFCURVE",
"225 234 CURVE",
"225 344 LINE",
"225 371 OFFCURVE",
"225 371 OFFCURVE",
"266 371 CURVE",
"337 371 LINE",
"404 371 OFFCURVE",
"466 374 OFFCURVE",
"466 300 CURVE",
"466 226 OFFCURVE",
"442 207 OFFCURVE",
"337 207 CURVE",
"266 207 LINE"
);
}
);
};
layerId = "1A280FA7-9E72-4FC3-84C1-49B7BD56B269";
paths = (
{
closed = 1;
nodes = (
"246 0 LINE SMOOTH",
"237 0 OFFCURVE",
"225 17 OFFCURVE",
"225 60 CURVE SMOOTH",
"225 97 LINE",
"378 97 LINE SMOOTH",
"584 97 OFFCURVE",
"618 176 OFFCURVE",
"618 300 CURVE SMOOTH",
"618 419 OFFCURVE",
"560 485 OFFCURVE",
"378 485 CURVE SMOOTH",
"225 485 LINE",
"225 600 LINE",
"50 600 LINE",
"59 599 OFFCURVE",
"71 582 OFFCURVE",
"71 540 CURVE SMOOTH",
"71 60 LINE SMOOTH",
"71 17 OFFCURVE",
"60 0 OFFCURVE",
"51 0 CURVE SMOOTH"
);
},
{
closed = 1;
nodes = (
"225 207 OFFCURVE",
"225 207 OFFCURVE",
"225 234 CURVE SMOOTH",
"225 344 LINE SMOOTH",
"225 371 OFFCURVE",
"225 371 OFFCURVE",
"266 371 CURVE SMOOTH",
"337 371 LINE SMOOTH",
"404 371 OFFCURVE",
"466 374 OFFCURVE",
"466 300 CURVE SMOOTH",
"466 226 OFFCURVE",
"442 207 OFFCURVE",
"337 207 CURVE SMOOTH",
"266 207 LINE SMOOTH"
);
}
);
width = 658;
},
{
associatedMasterId = "083550D2-F2E8-44E3-BE3D-E8BDF41EDFC4";
layerId = "0AAF2CB4-2EBD-42C4-BAB4-4CEC92C737FB";
width = 600;
},
{
background = {
paths = (
{
closed = 1;
nodes = (
"164 0 LINE",
"164 0 OFFCURVE",
"143 1 OFFCURVE",
"143 60 CURVE",
"143 96 LINE",
"398 96 LINE",
"604 96 OFFCURVE",
"638 168 OFFCURVE",
"638 300 CURVE",
"638 421 OFFCURVE",
"580 485 OFFCURVE",
"398 485 CURVE",
"143 485 LINE",
"143 600 LINE",
"70 600 LINE",
"70 600 OFFCURVE",
"91 598 OFFCURVE",
"91 540 CURVE",
"91 60 LINE",
"91 1 OFFCURVE",
"71 0 OFFCURVE",
"71 0 CURVE"
);
},
{
closed = 1;
nodes = (
"143 133 OFFCURVE",
"143 134 OFFCURVE",
"143 161 CURVE",
"143 418 LINE",
"143 445 OFFCURVE",
"143 445 OFFCURVE",
"184 445 CURVE",
"398 445 LINE",
"527 445 OFFCURVE",
"585 413 OFFCURVE",
"585 300 CURVE",
"585 188 OFFCURVE",
"553 133 OFFCURVE",
"398 133 CURVE",
"184 133 LINE"
);
}
);
};
layerId = "CA5CD7F6-F0E6-40F5-9716-481B35A0BC32";
paths = (
{
closed = 1;
nodes = (
"164 0 LINE SMOOTH",
"155 0 OFFCURVE",
"143 17 OFFCURVE",
"143 60 CURVE SMOOTH",
"143 96 LINE",
"398 96 LINE SMOOTH",
"604 96 OFFCURVE",
"638 168 OFFCURVE",
"638 300 CURVE SMOOTH",
"638 421 OFFCURVE",
"580 485 OFFCURVE",
"398 485 CURVE SMOOTH",
"143 485 LINE",
"143 600 LINE",
"70 600 LINE",
"79 599 OFFCURVE",
"91 582 OFFCURVE",
"91 540 CURVE SMOOTH",
"91 60 LINE SMOOTH",
"91 17 OFFCURVE",
"80 0 OFFCURVE",
"71 0 CURVE SMOOTH"
);
},
{
closed = 1;
nodes = (
"143 133 OFFCURVE",
"143 134 OFFCURVE",
"143 161 CURVE SMOOTH",
"143 418 LINE SMOOTH",
"143 445 OFFCURVE",
"143 445 OFFCURVE",
"184 445 CURVE SMOOTH",
"398 445 LINE SMOOTH",
"527 445 OFFCURVE",
"585 413 OFFCURVE",
"585 300 CURVE SMOOTH",
"585 188 OFFCURVE",
"553 133 OFFCURVE",
"398 133 CURVE SMOOTH",
"184 133 LINE SMOOTH"
);
}
);
width = 688;
},
{
associatedMasterId = "CA5CD7F6-F0E6-40F5-9716-481B35A0BC32";
layerId = "4DB6E579-EE3D-4F23-B2E4-1413C9EA4867";
width = 600;
}
);
leftKerningGroup = H;
leftMetricsKey = H;
rightKerningGroup = Thorn;
rightMetricsKey = O;
unicode = 00DE;
},
{
color = 8;
glyphname = Q;
lastChange = "2020-07-02 15:19:35 +0000";
layers = (
{
background = {
paths = (
{
closed = 1;
nodes = (
"401 -10 LINE SMOOTH",
"613 -10 OFFCURVE",
"721 93 OFFCURVE",
"721 303 CURVE SMOOTH",
"721 493 OFFCURVE",
"626 610 OFFCURVE",
"401 610 CURVE SMOOTH",
"370 610 LINE SMOOTH",
"140 610 OFFCURVE",
"45 492 OFFCURVE",
"45 303 CURVE SMOOTH",
"45 91 OFFCURVE",
"156 -10 OFFCURVE",
"370 -10 CURVE SMOOTH"
);
},
{
closed = 1;
nodes = (
"231 71 OFFCURVE",
"157 130 OFFCURVE",
"157 303 CURVE SMOOTH",
"157 469 OFFCURVE",
"229 530 OFFCURVE",
"380 530 CURVE SMOOTH",
"391 530 LINE SMOOTH",
"538 530 OFFCURVE",
"609 472 OFFCURVE",
"609 303 CURVE SMOOTH",
"609 129 OFFCURVE",
"540 71 OFFCURVE",
"391 71 CURVE SMOOTH",
"380 71 LINE SMOOTH"
);
},
{
closed = 1;
nodes = (
"723 -182 OFFCURVE",
"753 -82 OFFCURVE",
"753 -10 CURVE",
"682 -10 LINE",
"682 -10 OFFCURVE",
"702 -25 OFFCURVE",
"702 -61 CURVE SMOOTH",
"702 -85 OFFCURVE",
"689 -112 OFFCURVE",
"653 -112 CURVE SMOOTH",
"556 -112 OFFCURVE",
"530 40 OFFCURVE",
"357 40 CURVE SMOOTH",
"285 40 OFFCURVE",
"227 0 OFFCURVE",
"227 -70 CURVE",
"267 -70 OFFCURVE",
"298 -90 OFFCURVE",
"298 -90 CURVE",
"298 -90 OFFCURVE",
"288 -67 OFFCURVE",
"288 -49 CURVE SMOOTH",
"288 -28 OFFCURVE",
"307 -10 OFFCURVE",
"347 -10 CURVE SMOOTH",
"451 -10 OFFCURVE",
"453 -182 OFFCURVE",
"612 -182 CURVE SMOOTH"
);
}
);
};
layerId = "083550D2-F2E8-44E3-BE3D-E8BDF41EDFC4";
paths = (
{
closed = 1;
nodes = (
"401 -10 LINE SMOOTH",
"613 -10 OFFCURVE",
"721 93 OFFCURVE",
"721 303 CURVE SMOOTH",
"721 493 OFFCURVE",
"626 610 OFFCURVE",
"401 610 CURVE SMOOTH",
"370 610 LINE SMOOTH",
"140 610 OFFCURVE",
"45 492 OFFCURVE",
"45 303 CURVE SMOOTH",
"45 91 OFFCURVE",
"156 -10 OFFCURVE",
"370 -10 CURVE SMOOTH"
);
},
{
closed = 1;
nodes = (
"231 71 OFFCURVE",
"157 130 OFFCURVE",
"157 303 CURVE SMOOTH",
"157 469 OFFCURVE",
"229 530 OFFCURVE",
"380 530 CURVE SMOOTH",
"391 530 LINE SMOOTH",
"538 530 OFFCURVE",
"609 472 OFFCURVE",
"609 303 CURVE SMOOTH",
"609 129 OFFCURVE",
"540 71 OFFCURVE",
"391 71 CURVE SMOOTH",
"380 71 LINE SMOOTH"
);
},
{
closed = 1;
nodes = (
"723 -182 OFFCURVE",
"753 -82 OFFCURVE",
"753 -10 CURVE",
"682 -10 LINE",
"691 -16 OFFCURVE",
"702 -35 OFFCURVE",
"702 -61 CURVE SMOOTH",
"702 -85 OFFCURVE",
"689 -112 OFFCURVE",
"653 -112 CURVE SMOOTH",
"556 -112 OFFCURVE",
"530 40 OFFCURVE",
"357 40 CURVE SMOOTH",
"285 40 OFFCURVE",
"227 0 OFFCURVE",
"227 -70 CURVE",
"256 -70 OFFCURVE",
"285 -81 OFFCURVE",
"298 -90 CURVE",
"294 -80 OFFCURVE",
"288 -62 OFFCURVE",
"288 -49 CURVE SMOOTH",
"288 -28 OFFCURVE",
"307 -10 OFFCURVE",
"347 -10 CURVE SMOOTH",
"451 -10 OFFCURVE",
"453 -182 OFFCURVE",
"612 -182 CURVE SMOOTH"
);
}
);
width = 778;
},
{
background = {
paths = (
{
closed = 1;
nodes = (
"396 -10 LINE SMOOTH",
"620 -10 OFFCURVE",
"716 105 OFFCURVE",
"716 303 CURVE SMOOTH",
"716 493 OFFCURVE",
"621 610 OFFCURVE",
"396 610 CURVE SMOOTH",
"365 610 LINE SMOOTH",
"135 610 OFFCURVE",
"40 492 OFFCURVE",
"40 303 CURVE SMOOTH",
"40 106 OFFCURVE",
"136 -10 OFFCURVE",
"365 -10 CURVE SMOOTH"
);
},
{
closed = 1;
nodes = (
"253 101 OFFCURVE",
"192 156 OFFCURVE",
"192 303 CURVE SMOOTH",
"192 442 OFFCURVE",
"250 500 OFFCURVE",
"375 500 CURVE SMOOTH",
"386 500 LINE SMOOTH",
"506 500 OFFCURVE",
"564 445 OFFCURVE",
"564 303 CURVE SMOOTH",
"564 156 OFFCURVE",
"508 101 OFFCURVE",
"386 101 CURVE SMOOTH",
"375 101 LINE SMOOTH"
);
},
{
closed = 1;
nodes = (
"718 -182 OFFCURVE",
"748 -85 OFFCURVE",
"748 -10 CURVE",
"647 -10 LINE",
"647 -10 OFFCURVE",
"667 -35 OFFCURVE",
"667 -71 CURVE SMOOTH",
"667 -90 OFFCURVE",
"659 -102 OFFCURVE",
"638 -102 CURVE SMOOTH",
"572 -102 OFFCURVE",
"513 40 OFFCURVE",
"332 40 CURVE SMOOTH",
"260 40 OFFCURVE",
"202 0 OFFCURVE",
"202 -70 CURVE",
"242 -70 OFFCURVE",
"293 -100 OFFCURVE",
"293 -100 CURVE",
"293 -100 OFFCURVE",
"283 -80 OFFCURVE",
"283 -49 CURVE SMOOTH",
"283 -20 OFFCURVE",
"293 -10 OFFCURVE",
"312 -10 CURVE SMOOTH",
"396 -10 OFFCURVE",
"431 -182 OFFCURVE",
"607 -182 CURVE SMOOTH"
);
}
);
};
layerId = "1A280FA7-9E72-4FC3-84C1-49B7BD56B269";
paths = (
{
closed = 1;
nodes = (
"396 -10 LINE SMOOTH",
"620 -10 OFFCURVE",
"716 105 OFFCURVE",
"716 303 CURVE SMOOTH",
"716 493 OFFCURVE",
"621 610 OFFCURVE",
"396 610 CURVE SMOOTH",
"365 610 LINE SMOOTH",
"135 610 OFFCURVE",
"40 492 OFFCURVE",
"40 303 CURVE SMOOTH",
"40 106 OFFCURVE",
"136 -10 OFFCURVE",
"365 -10 CURVE SMOOTH"
);
},
{
closed = 1;
nodes = (
"253 101 OFFCURVE",
"192 156 OFFCURVE",
"192 303 CURVE SMOOTH",
"192 442 OFFCURVE",
"250 500 OFFCURVE",
"375 500 CURVE SMOOTH",
"386 500 LINE SMOOTH",
"506 500 OFFCURVE",
"564 445 OFFCURVE",
"564 303 CURVE SMOOTH",
"564 156 OFFCURVE",
"508 101 OFFCURVE",
"386 101 CURVE SMOOTH",
"375 101 LINE SMOOTH"
);
},
{
closed = 1;
nodes = (
"718 -182 OFFCURVE",
"748 -85 OFFCURVE",
"748 -10 CURVE",
"647 -10 LINE",
"656 -21 OFFCURVE",
"667 -45 OFFCURVE",
"667 -71 CURVE SMOOTH",
"667 -90 OFFCURVE",
"659 -102 OFFCURVE",
"638 -102 CURVE SMOOTH",
"572 -102 OFFCURVE",
"513 40 OFFCURVE",
"332 40 CURVE SMOOTH",
"260 40 OFFCURVE",
"202 0 OFFCURVE",
"202 -70 CURVE",
"231 -70 OFFCURVE",
"271 -87 OFFCURVE",
"293 -100 CURVE",
"289 -91 OFFCURVE",
"283 -72 OFFCURVE",
"283 -49 CURVE SMOOTH",
"283 -20 OFFCURVE",
"293 -10 OFFCURVE",
"312 -10 CURVE SMOOTH",
"396 -10 OFFCURVE",
"431 -182 OFFCURVE",
"607 -182 CURVE SMOOTH"
);
}
);
width = 768;
},
{
associatedMasterId = "083550D2-F2E8-44E3-BE3D-E8BDF41EDFC4";
layerId = "0AAF2CB4-2EBD-42C4-BAB4-4CEC92C737FB";
width = 600;
},
{
background = {
paths = (
{
closed = 1;
nodes = (
"406 -10 LINE SMOOTH",
"635 -10 OFFCURVE",
"726 94 OFFCURVE",
"726 303 CURVE SMOOTH",
"726 504 OFFCURVE",
"636 610 OFFCURVE",
"406 610 CURVE SMOOTH",
"375 610 LINE SMOOTH",
"140 610 OFFCURVE",
"50 503 OFFCURVE",
"50 303 CURVE SMOOTH",
"50 95 OFFCURVE",
"141 -10 OFFCURVE",
"375 -10 CURVE SMOOTH"
);
},
{
closed = 1;
nodes = (
"209 31 OFFCURVE",
"104 90 OFFCURVE",
"104 303 CURVE SMOOTH",
"104 503 OFFCURVE",
"207 570 OFFCURVE",
"385 570 CURVE SMOOTH",
"396 570 LINE SMOOTH",
"570 570 OFFCURVE",
"672 506 OFFCURVE",
"672 303 CURVE SMOOTH",
"672 87 OFFCURVE",
"572 31 OFFCURVE",
"396 31 CURVE SMOOTH",
"385 31 LINE SMOOTH"
);
},
{
closed = 1;
nodes = (
"728 -182 OFFCURVE",
"758 -82 OFFCURVE",
"758 -10 CURVE",
"697 -10 LINE",
"697 -10 OFFCURVE",
"717 -25 OFFCURVE",
"717 -61 CURVE SMOOTH",
"717 -106 OFFCURVE",
"687 -142 OFFCURVE",
"638 -142 CURVE SMOOTH",
"521 -142 OFFCURVE",
"505 20 OFFCURVE",
"352 20 CURVE SMOOTH",
"277 20 OFFCURVE",
"242 -19 OFFCURVE",
"242 -70 CURVE",
"282 -70 OFFCURVE",
"303 -90 OFFCURVE",
"303 -90 CURVE",
"303 -90 OFFCURVE",
"293 -67 OFFCURVE",
"293 -49 CURVE SMOOTH",
"293 -28 OFFCURVE",
"305 -10 OFFCURVE",
"342 -10 CURVE SMOOTH",
"455 -10 OFFCURVE",
"483 -182 OFFCURVE",
"617 -182 CURVE SMOOTH"
);
}
);
};
layerId = "CA5CD7F6-F0E6-40F5-9716-481B35A0BC32";
paths = (
{
closed = 1;
nodes = (
"406 -10 LINE SMOOTH",
"635 -10 OFFCURVE",
"726 94 OFFCURVE",
"726 303 CURVE SMOOTH",
"726 504 OFFCURVE",
"636 610 OFFCURVE",
"406 610 CURVE SMOOTH",
"375 610 LINE SMOOTH",
"140 610 OFFCURVE",
"50 503 OFFCURVE",
"50 303 CURVE SMOOTH",
"50 95 OFFCURVE",
"141 -10 OFFCURVE",
"375 -10 CURVE SMOOTH"
);
},
{
closed = 1;
nodes = (
"209 31 OFFCURVE",
"104 90 OFFCURVE",
"104 303 CURVE SMOOTH",
"104 503 OFFCURVE",
"207 570 OFFCURVE",
"385 570 CURVE SMOOTH",
"396 570 LINE SMOOTH",
"570 570 OFFCURVE",
"672 506 OFFCURVE",
"672 303 CURVE SMOOTH",
"672 87 OFFCURVE",
"572 31 OFFCURVE",
"396 31 CURVE SMOOTH",
"385 31 LINE SMOOTH"
);
},
{
closed = 1;
nodes = (
"728 -182 OFFCURVE",
"758 -82 OFFCURVE",
"758 -10 CURVE",
"697 -10 LINE",
"706 -16 OFFCURVE",
"717 -35 OFFCURVE",
"717 -61 CURVE SMOOTH",
"717 -106 OFFCURVE",
"687 -142 OFFCURVE",
"638 -142 CURVE SMOOTH",
"521 -142 OFFCURVE",
"505 20 OFFCURVE",
"352 20 CURVE SMOOTH",
"277 20 OFFCURVE",
"242 -19 OFFCURVE",
"242 -70 CURVE",
"271 -70 OFFCURVE",
"294 -81 OFFCURVE",
"303 -90 CURVE",
"299 -80 OFFCURVE",
"293 -62 OFFCURVE",
"293 -49 CURVE SMOOTH",
"293 -28 OFFCURVE",
"305 -10 OFFCURVE",
"342 -10 CURVE SMOOTH",
"455 -10 OFFCURVE",
"483 -182 OFFCURVE",
"617 -182 CURVE SMOOTH"
);
}
);
width = 788;
},
{
associatedMasterId = "CA5CD7F6-F0E6-40F5-9716-481B35A0BC32";
layerId = "C4799BC8-BB31-492D-80A1-2436631FED15";
width = 600;
}
);
leftKerningGroup = O;
leftMetricsKey = O;
rightKerningGroup = O;
rightMetricsKey = "=O-20";
unicode = 0051;
},
{
color = 1;
glyphname = R;
lastChange = "2020-07-02 15:20:05 +0000";
layers = (
{
anchors = (
{
name = bottom;
position = "{353, 0}";
},
{
name = top;
position = "{333, 600}";
}
);
background = {
anchors = (
{
name = bottom;
position = "{353, 0}";
},
{
name = top;
position = "{333, 600}";
}
);
paths = (
{
closed = 1;
nodes = (
"214 0 LINE",
"214 0 OFFCURVE",
"193 1 OFFCURVE",
"193 60 CURVE",
"193 191 LINE",
"193 218 OFFCURVE",
"193 221 OFFCURVE",
"234 221 CURVE",
"245 221 LINE",
"405 221 OFFCURVE",
"497 151 OFFCURVE",
"539 55 CURVE",
"562 2 OFFCURVE",
"525 0 OFFCURVE",
"525 0 CURVE",
"735 0 LINE",
"735 0 OFFCURVE",
"705 3 OFFCURVE",
"664 70 CURVE",
"617 146 OFFCURVE",
"554 217 OFFCURVE",
"465 241 CURVE",
"465 244 LINE",
"584 260 OFFCURVE",
"628 338 OFFCURVE",
"628 413 CURVE",
"628 530 OFFCURVE",
"573 600 OFFCURVE",
"388 600 CURVE",
"60 600 LINE",
"60 600 OFFCURVE",
"81 598 OFFCURVE",
"81 540 CURVE",
"81 60 LINE",
"81 1 OFFCURVE",
"61 0 OFFCURVE",
"61 0 CURVE"
);
},
{
closed = 1;
nodes = (
"193 301 OFFCURVE",
"193 301 OFFCURVE",
"193 328 CURVE",
"193 493 LINE",
"193 519 OFFCURVE",
"193 519 OFFCURVE",
"234 519 CURVE",
"367 519 LINE",
"472 519 OFFCURVE",
"517 487 OFFCURVE",
"517 413 CURVE",
"517 339 OFFCURVE",
"463 301 OFFCURVE",
"357 301 CURVE",
"234 301 LINE"
);
}
);
};
layerId = "083550D2-F2E8-44E3-BE3D-E8BDF41EDFC4";
paths = (
{
closed = 1;
nodes = (
"214 0 LINE SMOOTH",
"205 0 OFFCURVE",
"193 17 OFFCURVE",
"193 60 CURVE SMOOTH",
"193 191 LINE SMOOTH",
"193 218 OFFCURVE",
"193 221 OFFCURVE",
"234 221 CURVE SMOOTH",
"245 221 LINE SMOOTH",
"405 221 OFFCURVE",
"497 151 OFFCURVE",
"539 55 CURVE SMOOTH",
"556 16 OFFCURVE",
"541 1 OFFCURVE",
"525 0 CURVE",
"735 0 LINE",
"722 1 OFFCURVE",
"694 21 OFFCURVE",
"664 70 CURVE SMOOTH",
"617 146 OFFCURVE",
"554 217 OFFCURVE",
"465 241 CURVE",
"465 244 LINE",
"584 260 OFFCURVE",
"628 338 OFFCURVE",
"628 413 CURVE SMOOTH",
"628 530 OFFCURVE",
"573 600 OFFCURVE",
"388 600 CURVE SMOOTH",
"60 600 LINE",
"69 599 OFFCURVE",
"81 582 OFFCURVE",
"81 540 CURVE SMOOTH",
"81 60 LINE SMOOTH",
"81 17 OFFCURVE",
"70 0 OFFCURVE",
"61 0 CURVE SMOOTH"
);
},
{
closed = 1;
nodes = (
"193 301 OFFCURVE",
"193 301 OFFCURVE",
"193 328 CURVE SMOOTH",
"193 493 LINE SMOOTH",
"193 519 OFFCURVE",
"193 519 OFFCURVE",
"234 519 CURVE SMOOTH",
"367 519 LINE SMOOTH",
"472 519 OFFCURVE",
"517 487 OFFCURVE",
"517 413 CURVE SMOOTH",
"517 339 OFFCURVE",
"463 301 OFFCURVE",
"357 301 CURVE SMOOTH",
"234 301 LINE SMOOTH"
);
}
);
width = 740;
},
{
anchors = (
{
name = bottom;
position = "{343, 0}";
},
{
name = top;
position = "{323, 600}";
}
);
background = {
anchors = (
{
name = bottom;
position = "{343, 0}";
},
{
name = top;
position = "{323, 600}";
}
);
paths = (
{
closed = 1;
nodes = (
"245 0 LINE",
"245 0 OFFCURVE",
"224 1 OFFCURVE",
"224 60 CURVE",
"224 180 LINE",
"224 207 OFFCURVE",
"224 210 OFFCURVE",
"265 210 CURVE",
"276 210 LINE",
"377 210 OFFCURVE",
"445 151 OFFCURVE",
"487 55 CURVE",
"510 2 OFFCURVE",
"473 0 OFFCURVE",
"473 0 CURVE",
"725 0 LINE",
"725 0 OFFCURVE",
"695 3 OFFCURVE",
"654 70 CURVE",
"607 146 OFFCURVE",
"544 215 OFFCURVE",
"491 236 CURVE",
"491 239 LINE",
"563 258 OFFCURVE",
"618 317 OFFCURVE",
"618 408 CURVE",
"618 533 OFFCURVE",
"553 600 OFFCURVE",
"378 600 CURVE",
"50 600 LINE",
"50 600 OFFCURVE",
"71 598 OFFCURVE",
"71 540 CURVE",
"71 60 LINE",
"71 1 OFFCURVE",
"51 0 OFFCURVE",
"51 0 CURVE"
);
},
{
closed = 1;
nodes = (
"224 311 OFFCURVE",
"224 311 OFFCURVE",
"224 338 CURVE",
"224 461 LINE",
"224 487 OFFCURVE",
"224 487 OFFCURVE",
"265 487 CURVE",
"357 487 LINE",
"441 487 OFFCURVE",
"466 454 OFFCURVE",
"466 408 CURVE",
"466 339 OFFCURVE",
"431 311 OFFCURVE",
"347 311 CURVE",
"265 311 LINE"
);
}
);
};
layerId = "1A280FA7-9E72-4FC3-84C1-49B7BD56B269";
paths = (
{
closed = 1;
nodes = (
"245 0 LINE SMOOTH",
"236 0 OFFCURVE",
"224 17 OFFCURVE",
"224 60 CURVE SMOOTH",
"224 180 LINE SMOOTH",
"224 207 OFFCURVE",
"224 210 OFFCURVE",
"265 210 CURVE SMOOTH",
"276 210 LINE SMOOTH",
"377 210 OFFCURVE",
"445 151 OFFCURVE",
"487 55 CURVE SMOOTH",
"504 16 OFFCURVE",
"489 1 OFFCURVE",
"473 0 CURVE",
"725 0 LINE",
"712 1 OFFCURVE",
"684 21 OFFCURVE",
"654 70 CURVE SMOOTH",
"607 146 OFFCURVE",
"544 215 OFFCURVE",
"491 236 CURVE",
"491 239 LINE",
"563 258 OFFCURVE",
"618 317 OFFCURVE",
"618 408 CURVE SMOOTH",
"618 533 OFFCURVE",
"553 600 OFFCURVE",
"378 600 CURVE SMOOTH",
"50 600 LINE",
"59 599 OFFCURVE",
"71 582 OFFCURVE",
"71 540 CURVE SMOOTH",
"71 60 LINE SMOOTH",
"71 17 OFFCURVE",
"60 0 OFFCURVE",
"51 0 CURVE SMOOTH"
);
},
{
closed = 1;
nodes = (
"224 311 OFFCURVE",
"224 311 OFFCURVE",
"224 338 CURVE SMOOTH",
"224 461 LINE SMOOTH",
"224 487 OFFCURVE",
"224 487 OFFCURVE",
"265 487 CURVE SMOOTH",
"357 487 LINE SMOOTH",
"441 487 OFFCURVE",
"466 454 OFFCURVE",
"466 408 CURVE SMOOTH",
"466 339 OFFCURVE",
"431 311 OFFCURVE",
"347 311 CURVE SMOOTH",
"265 311 LINE SMOOTH"
);
}
);
width = 725;
},
{
associatedMasterId = "083550D2-F2E8-44E3-BE3D-E8BDF41EDFC4";
layerId = "0AAF2CB4-2EBD-42C4-BAB4-4CEC92C737FB";
width = 600;
},
{
anchors = (
{
name = bottom;
position = "{333, 0}";
},
{
name = top;
position = "{313, 600}";
}
);
background = {
anchors = (
{
name = bottom;
position = "{333, 0}";
},
{
name = top;
position = "{313, 600}";
}
);
paths = (
{
closed = 1;
nodes = (
"164 0 LINE",
"164 0 OFFCURVE",
"143 1 OFFCURVE",
"143 60 CURVE",
"143 212 LINE",
"143 239 OFFCURVE",
"143 242 OFFCURVE",
"184 242 CURVE",
"275 242 LINE",
"444 242 OFFCURVE",
"526 166 OFFCURVE",
"588 55 CURVE",
"619 0 OFFCURVE",
"594 0 OFFCURVE",
"594 0 CURVE",
"714 0 LINE",
"714 0 OFFCURVE",
"687 1 OFFCURVE",
"643 70 CURVE",
"593 149 OFFCURVE",
"519 223 OFFCURVE",
"441 245 CURVE",
"441 249 LINE",
"533 260 OFFCURVE",
"617 308 OFFCURVE",
"617 421 CURVE",
"617 538 OFFCURVE",
"562 600 OFFCURVE",
"377 600 CURVE",
"70 600 LINE",
"70 600 OFFCURVE",
"91 598 OFFCURVE",
"91 540 CURVE",
"91 60 LINE",
"91 1 OFFCURVE",
"71 0 OFFCURVE",
"71 0 CURVE"
);
},
{
closed = 1;
nodes = (
"143 281 OFFCURVE",
"143 281 OFFCURVE",
"143 308 CURVE",
"143 534 LINE",
"143 560 OFFCURVE",
"143 560 OFFCURVE",
"184 560 CURVE",
"356 560 LINE",
"528 560 OFFCURVE",
"564 506 OFFCURVE",
"564 421 CURVE",
"564 328 OFFCURVE",
"496 281 OFFCURVE",
"366 281 CURVE",
"184 281 LINE"
);
}
);
};
layerId = "CA5CD7F6-F0E6-40F5-9716-481B35A0BC32";
paths = (
{
closed = 1;
nodes = (
"164 0 LINE SMOOTH",
"155 0 OFFCURVE",
"143 17 OFFCURVE",
"143 60 CURVE SMOOTH",
"143 212 LINE SMOOTH",
"143 239 OFFCURVE",
"143 242 OFFCURVE",
"184 242 CURVE SMOOTH",
"275 242 LINE SMOOTH",
"444 242 OFFCURVE",
"526 166 OFFCURVE",
"588 55 CURVE SMOOTH",
"611 15 OFFCURVE",
"605 0 OFFCURVE",
"594 0 CURVE SMOOTH",
"714 0 LINE SMOOTH",
"702 0 OFFCURVE",
"675 20 OFFCURVE",
"643 70 CURVE SMOOTH",
"593 149 OFFCURVE",
"519 223 OFFCURVE",
"441 245 CURVE",
"441 249 LINE",
"533 260 OFFCURVE",
"617 308 OFFCURVE",
"617 421 CURVE SMOOTH",
"617 538 OFFCURVE",
"562 600 OFFCURVE",
"377 600 CURVE SMOOTH",
"70 600 LINE",
"79 599 OFFCURVE",
"91 582 OFFCURVE",
"91 540 CURVE SMOOTH",
"91 60 LINE SMOOTH",
"91 17 OFFCURVE",
"80 0 OFFCURVE",
"71 0 CURVE SMOOTH"
);
},
{
closed = 1;
nodes = (
"143 281 OFFCURVE",
"143 281 OFFCURVE",
"143 308 CURVE SMOOTH",
"143 534 LINE SMOOTH",
"143 560 OFFCURVE",
"143 560 OFFCURVE",
"184 560 CURVE SMOOTH",
"356 560 LINE SMOOTH",
"528 560 OFFCURVE",
"564 506 OFFCURVE",
"564 421 CURVE SMOOTH",
"564 328 OFFCURVE",
"496 281 OFFCURVE",
"366 281 CURVE SMOOTH",
"184 281 LINE SMOOTH"
);
}
);
width = 729;
},
{
associatedMasterId = "CA5CD7F6-F0E6-40F5-9716-481B35A0BC32";
layerId = "1E78BD80-2859-4164-AE05-3D9C519AC5D6";
width = 600;
}
);
leftKerningGroup = H;
leftMetricsKey = H;
rightKerningGroup = R;
unicode = 0052;
},
{
color = 1;
glyphname = S;
lastChange = "2020-07-02 15:20:05 +0000";
layers = (
{
anchors = (
{
name = bottom;
position = "{338, 0}";
},
{
name = top;
position = "{338, 600}";
}
);
background = {
anchors = (
{
name = bottom;
position = "{338, 0}";
},
{
name = top;
position = "{338, 600}";
}
);
paths = (
{
closed = 1;
nodes = (
"566 -10 OFFCURVE",
"666 55 OFFCURVE",
"666 160 CURVE",
"666 277 OFFCURVE",
"589 324 OFFCURVE",
"374 349 CURVE",
"238 365 OFFCURVE",
"162 385 OFFCURVE",
"162 452 CURVE",
"162 502 OFFCURVE",
"203 530 OFFCURVE",
"328 530 CURVE",
"532 530 OFFCURVE",
"633 470 OFFCURVE",
"633 470 CURVE",
"603 560 LINE",
"603 580 LINE",
"603 580 OFFCURVE",
"504 610 OFFCURVE",
"313 610 CURVE",
"133 610 OFFCURVE",
"50 539 OFFCURVE",
"50 446 CURVE",
"50 335 OFFCURVE",
"126 288 OFFCURVE",
"323 263 CURVE",
"475 244 OFFCURVE",
"554 225 OFFCURVE",
"554 161 CURVE",
"554 106 OFFCURVE",
"519 70 OFFCURVE",
"356 70 CURVE",
"105 70 OFFCURVE",
"40 147 OFFCURVE",
"40 147 CURVE",
"60 40 LINE",
"60 20 LINE",
"60 20 OFFCURVE",
"174 -10 OFFCURVE",
"374 -10 CURVE"
);
}
);
};
layerId = "083550D2-F2E8-44E3-BE3D-E8BDF41EDFC4";
paths = (
{
closed = 1;
nodes = (
"566 -10 OFFCURVE",
"666 55 OFFCURVE",
"666 160 CURVE SMOOTH",
"666 277 OFFCURVE",
"589 324 OFFCURVE",
"374 349 CURVE SMOOTH",
"238 365 OFFCURVE",
"162 385 OFFCURVE",
"162 452 CURVE SMOOTH",
"162 502 OFFCURVE",
"203 530 OFFCURVE",
"328 530 CURVE SMOOTH",
"477 530 OFFCURVE",
"590 496 OFFCURVE",
"633 470 CURVE",
"603 560 LINE",
"603 580 LINE",
"560 593 OFFCURVE",
"452 610 OFFCURVE",
"313 610 CURVE SMOOTH",
"133 610 OFFCURVE",
"50 539 OFFCURVE",
"50 446 CURVE SMOOTH",
"50 335 OFFCURVE",
"126 288 OFFCURVE",
"323 263 CURVE SMOOTH",
"475 244 OFFCURVE",
"554 225 OFFCURVE",
"554 161 CURVE SMOOTH",
"554 106 OFFCURVE",
"519 70 OFFCURVE",
"356 70 CURVE SMOOTH",
"173 70 OFFCURVE",
"68 114 OFFCURVE",
"40 147 CURVE",
"60 40 LINE",
"60 20 LINE",
"109 7 OFFCURVE",
"228 -10 OFFCURVE",
"374 -10 CURVE SMOOTH"
);
}
);
width = 706;
},
{
anchors = (
{
name = bottom;
position = "{348, 0}";
},
{
name = top;
position = "{348, 600}";
}
);
background = {
anchors = (
{
name = bottom;
position = "{348, 0}";
},
{
name = top;
position = "{348, 600}";
}
);
paths = (
{
closed = 1;
nodes = (
"577 -10 OFFCURVE",
"666 47 OFFCURVE",
"666 171 CURVE",
"666 276 OFFCURVE",
"612 335 OFFCURVE",
"394 359 CURVE",
"252 375 OFFCURVE",
"202 389 OFFCURVE",
"202 438 CURVE",
"202 477 OFFCURVE",
"228 500 OFFCURVE",
"318 500 CURVE",
"514 500 OFFCURVE",
"633 440 OFFCURVE",
"633 440 CURVE",
"603 550 LINE",
"603 580 LINE",
"603 580 OFFCURVE",
"514 610 OFFCURVE",
"323 610 CURVE",
"124 610 OFFCURVE",
"50 539 OFFCURVE",
"50 436 CURVE",
"50 307 OFFCURVE",
"140 265 OFFCURVE",
"323 241 CURVE",
"475 221 OFFCURVE",
"514 210 OFFCURVE",
"514 162 CURVE",
"514 123 OFFCURVE",
"488 100 OFFCURVE",
"376 100 CURVE",
"125 100 OFFCURVE",
"40 177 OFFCURVE",
"40 177 CURVE",
"60 50 LINE",
"60 20 LINE",
"60 20 OFFCURVE",
"174 -10 OFFCURVE",
"374 -10 CURVE"
);
}
);
};
layerId = "1A280FA7-9E72-4FC3-84C1-49B7BD56B269";
paths = (
{
closed = 1;
nodes = (
"577 -10 OFFCURVE",
"666 47 OFFCURVE",
"666 171 CURVE SMOOTH",
"666 276 OFFCURVE",
"612 335 OFFCURVE",
"394 359 CURVE SMOOTH",
"252 375 OFFCURVE",
"202 389 OFFCURVE",
"202 438 CURVE SMOOTH",
"202 477 OFFCURVE",
"228 500 OFFCURVE",
"318 500 CURVE SMOOTH",
"461 500 OFFCURVE",
"582 466 OFFCURVE",
"633 440 CURVE",
"603 550 LINE",
"603 580 LINE",
"565 593 OFFCURVE",
"462 610 OFFCURVE",
"323 610 CURVE SMOOTH",
"124 610 OFFCURVE",
"50 539 OFFCURVE",
"50 436 CURVE SMOOTH",
"50 307 OFFCURVE",
"140 265 OFFCURVE",
"323 241 CURVE SMOOTH",
"475 221 OFFCURVE",
"514 210 OFFCURVE",
"514 162 CURVE SMOOTH",
"514 123 OFFCURVE",
"488 100 OFFCURVE",
"376 100 CURVE SMOOTH",
"193 100 OFFCURVE",
"77 144 OFFCURVE",
"40 177 CURVE",
"60 50 LINE",
"60 20 LINE",
"109 7 OFFCURVE",
"228 -10 OFFCURVE",
"374 -10 CURVE SMOOTH"
);
}
);
width = 706;
},
{
associatedMasterId = "083550D2-F2E8-44E3-BE3D-E8BDF41EDFC4";
layerId = "0AAF2CB4-2EBD-42C4-BAB4-4CEC92C737FB";
width = 600;
},
{
anchors = (
{
name = bottom;
position = "{348, 0}";
},
{
name = top;
position = "{328, 600}";
}
);
background = {
anchors = (
{
name = bottom;
position = "{348, 0}";
},
{
name = top;
position = "{328, 600}";
}
);
paths = (
{
closed = 1;
nodes = (
"574 -10 OFFCURVE",
"625 68 OFFCURVE",
"625 157 CURVE",
"625 260 OFFCURVE",
"571 304 OFFCURVE",
"353 329 CURVE",
"166 351 OFFCURVE",
"101 381 OFFCURVE",
"101 462 CURVE",
"101 525 OFFCURVE",
"157 570 OFFCURVE",
"317 570 CURVE",
"513 570 OFFCURVE",
"582 510 OFFCURVE",
"582 510 CURVE",
"572 560 LINE",
"572 570 LINE",
"572 570 OFFCURVE",
"513 610 OFFCURVE",
"322 610 CURVE",
"105 610 OFFCURVE",
"49 538 OFFCURVE",
"49 456 CURVE",
"49 370 OFFCURVE",
"107 316 OFFCURVE",
"302 292 CURVE",
"502 267 OFFCURVE",
"573 244 OFFCURVE",
"573 158 CURVE",
"573 68 OFFCURVE",
"504 30 OFFCURVE",
"325 30 CURVE",
"98 30 OFFCURVE",
"40 97 OFFCURVE",
"40 97 CURVE",
"50 40 LINE",
"50 30 LINE",
"50 30 OFFCURVE",
"128 -10 OFFCURVE",
"323 -10 CURVE"
);
}
);
};
layerId = "CA5CD7F6-F0E6-40F5-9716-481B35A0BC32";
paths = (
{
closed = 1;
nodes = (
"574 -10 OFFCURVE",
"625 68 OFFCURVE",
"625 157 CURVE SMOOTH",
"625 260 OFFCURVE",
"571 304 OFFCURVE",
"353 329 CURVE SMOOTH",
"166 351 OFFCURVE",
"101 381 OFFCURVE",
"101 462 CURVE SMOOTH",
"101 525 OFFCURVE",
"157 570 OFFCURVE",
"317 570 CURVE SMOOTH",
"460 570 OFFCURVE",
"552 536 OFFCURVE",
"582 510 CURVE",
"572 560 LINE",
"572 570 LINE",
"547 587 OFFCURVE",
"461 610 OFFCURVE",
"322 610 CURVE SMOOTH",
"105 610 OFFCURVE",
"49 538 OFFCURVE",
"49 456 CURVE SMOOTH",
"49 370 OFFCURVE",
"107 316 OFFCURVE",
"302 292 CURVE SMOOTH",
"502 267 OFFCURVE",
"573 244 OFFCURVE",
"573 158 CURVE SMOOTH",
"573 68 OFFCURVE",
"504 30 OFFCURVE",
"325 30 CURVE SMOOTH",
"159 30 OFFCURVE",
"65 68 OFFCURVE",
"40 97 CURVE",
"50 40 LINE",
"50 30 LINE",
"84 13 OFFCURVE",
"181 -10 OFFCURVE",
"323 -10 CURVE SMOOTH"
);
}
);
width = 665;
},
{
associatedMasterId = "CA5CD7F6-F0E6-40F5-9716-481B35A0BC32";
layerId = "A72EE2E6-73F4-4993-B340-5C1A7D0E2EFE";
width = 600;
}
);
leftKerningGroup = S;
rightKerningGroup = S;
unicode = 0053;
},
{
color = 1;
glyphname = Germandbls;
lastChange = "2020-07-02 15:20:05 +0000";
layers = (
{
background = {
paths = (
{
closed = 1;
nodes = (
"647 -10 OFFCURVE",
"687 87 OFFCURVE",
"687 154 CURVE",
"687 244 OFFCURVE",
"639 297 OFFCURVE",
"557 362 CURVE",
"499 408 OFFCURVE",
"472 434 OFFCURVE",
"472 471 CURVE",
"472 524 OFFCURVE",
"526 547 OFFCURVE",
"577 559 CURVE",
"577 631 LINE",
"577 631 OFFCURVE",
"500 671 OFFCURVE",
"365 671 CURVE",
"203 671 OFFCURVE",
"81 610 OFFCURVE",
"81 404 CURVE",
"81 60 LINE",
"81 1 OFFCURVE",
"60 0 OFFCURVE",
"60 0 CURVE",
"213 0 LINE",
"213 0 OFFCURVE",
"193 1 OFFCURVE",
"193 60 CURVE",
"193 397 LINE",
"193 552 OFFCURVE",
"246 591 OFFCURVE",
"357 591 CURVE",
"429 591 OFFCURVE",
"475 583 OFFCURVE",
"475 583 CURVE",
"475 580 LINE",
"426 563 OFFCURVE",
"374 532 OFFCURVE",
"374 466 CURVE",
"374 408 OFFCURVE",
"401 370 OFFCURVE",
"458 318 CURVE",
"502 278 OFFCURVE",
"575 237 OFFCURVE",
"575 156 CURVE",
"575 105 OFFCURVE",
"545 72 OFFCURVE",
"477 72 CURVE",
"353 72 OFFCURVE",
"287 142 OFFCURVE",
"287 142 CURVE",
"287 112 LINE",
"267 51 LINE",
"267 51 OFFCURVE",
"318 -10 OFFCURVE",
"475 -10 CURVE"
);
}
);
};
layerId = "083550D2-F2E8-44E3-BE3D-E8BDF41EDFC4";
paths = (
{
closed = 1;
nodes = (
"647 -10 OFFCURVE",
"687 87 OFFCURVE",
"687 154 CURVE SMOOTH",
"687 244 OFFCURVE",
"639 297 OFFCURVE",
"557 362 CURVE SMOOTH",
"499 408 OFFCURVE",
"472 434 OFFCURVE",
"472 471 CURVE SMOOTH",
"472 524 OFFCURVE",
"526 547 OFFCURVE",
"577 559 CURVE",
"577 631 LINE",
"544 648 OFFCURVE",
"464 671 OFFCURVE",
"365 671 CURVE SMOOTH",
"203 671 OFFCURVE",
"81 610 OFFCURVE",
"81 404 CURVE SMOOTH",
"81 60 LINE SMOOTH",
"81 17 OFFCURVE",
"69 0 OFFCURVE",
"60 0 CURVE SMOOTH",
"213 0 LINE SMOOTH",
"204 0 OFFCURVE",
"193 17 OFFCURVE",
"193 60 CURVE SMOOTH",
"193 397 LINE SMOOTH",
"193 552 OFFCURVE",
"246 591 OFFCURVE",
"357 591 CURVE SMOOTH",
"410 591 OFFCURVE",
"455 586 OFFCURVE",
"475 583 CURVE",
"475 580 LINE",
"426 563 OFFCURVE",
"374 532 OFFCURVE",
"374 466 CURVE SMOOTH",
"374 408 OFFCURVE",
"401 370 OFFCURVE",
"458 318 CURVE SMOOTH",
"502 278 OFFCURVE",
"575 237 OFFCURVE",
"575 156 CURVE SMOOTH",
"575 105 OFFCURVE",
"545 72 OFFCURVE",
"477 72 CURVE SMOOTH",
"386 72 OFFCURVE",
"315 112 OFFCURVE",
"287 142 CURVE",
"287 112 LINE",
"267 51 LINE",
"289 25 OFFCURVE",
"360 -10 OFFCURVE",
"475 -10 CURVE SMOOTH"
);
}
);
width = 732;
},
{
background = {
paths = (
{
closed = 1;
nodes = (
"626 -10 OFFCURVE",
"677 72 OFFCURVE",
"677 164 CURVE",
"677 245 OFFCURVE",
"637 291 OFFCURVE",
"577 336 CURVE",
"520 378 OFFCURVE",
"472 417 OFFCURVE",
"472 451 CURVE",
"472 500 OFFCURVE",
"516 527 OFFCURVE",
"567 539 CURVE",
"567 631 LINE",
"567 631 OFFCURVE",
"490 671 OFFCURVE",
"355 671 CURVE",
"193 671 OFFCURVE",
"71 610 OFFCURVE",
"71 404 CURVE",
"71 60 LINE",
"71 1 OFFCURVE",
"50 0 OFFCURVE",
"50 0 CURVE",
"245 0 LINE",
"245 0 OFFCURVE",
"225 1 OFFCURVE",
"225 60 CURVE",
"225 397 LINE",
"225 532 OFFCURVE",
"264 561 OFFCURVE",
"347 561 CURVE",
"399 561 OFFCURVE",
"415 553 OFFCURVE",
"415 553 CURVE",
"415 550 LINE",
"368 522 OFFCURVE",
"344 479 OFFCURVE",
"344 426 CURVE",
"344 376 OFFCURVE",
"365 341 OFFCURVE",
"422 289 CURVE",
"466 249 OFFCURVE",
"525 208 OFFCURVE",
"525 156 CURVE",
"525 122 OFFCURVE",
"507 103 OFFCURVE",
"467 103 CURVE",
"362 103 OFFCURVE",
"299 173 OFFCURVE",
"299 173 CURVE",
"299 144 LINE",
"279 51 LINE",
"279 51 OFFCURVE",
"342 -10 OFFCURVE",
"465 -10 CURVE"
);
}
);
};
layerId = "1A280FA7-9E72-4FC3-84C1-49B7BD56B269";
paths = (
{
closed = 1;
nodes = (
"626 -10 OFFCURVE",
"677 72 OFFCURVE",
"677 164 CURVE SMOOTH",
"677 245 OFFCURVE",
"637 291 OFFCURVE",
"577 336 CURVE SMOOTH",
"520 378 OFFCURVE",
"472 417 OFFCURVE",
"472 451 CURVE SMOOTH",
"472 500 OFFCURVE",
"516 527 OFFCURVE",
"567 539 CURVE",
"567 631 LINE",
"534 648 OFFCURVE",
"454 671 OFFCURVE",
"355 671 CURVE SMOOTH",
"193 671 OFFCURVE",
"71 610 OFFCURVE",
"71 404 CURVE SMOOTH",
"71 60 LINE SMOOTH",
"71 17 OFFCURVE",
"59 0 OFFCURVE",
"50 0 CURVE SMOOTH",
"245 0 LINE SMOOTH",
"236 0 OFFCURVE",
"225 17 OFFCURVE",
"225 60 CURVE SMOOTH",
"225 397 LINE SMOOTH",
"225 532 OFFCURVE",
"264 561 OFFCURVE",
"347 561 CURVE SMOOTH",
"385 561 OFFCURVE",
"408 556 OFFCURVE",
"415 553 CURVE",
"415 550 LINE",
"368 522 OFFCURVE",
"344 479 OFFCURVE",
"344 426 CURVE SMOOTH",
"344 376 OFFCURVE",
"365 341 OFFCURVE",
"422 289 CURVE SMOOTH",
"466 249 OFFCURVE",
"525 208 OFFCURVE",
"525 156 CURVE SMOOTH",
"525 122 OFFCURVE",
"507 103 OFFCURVE",
"467 103 CURVE SMOOTH",
"390 103 OFFCURVE",
"326 143 OFFCURVE",
"299 173 CURVE",
"299 144 LINE",
"279 51 LINE",
"306 25 OFFCURVE",
"375 -10 OFFCURVE",
"465 -10 CURVE SMOOTH"
);
}
);
width = 717;
},
{
background = {
paths = (
{
closed = 1;
nodes = (
"597 -10 OFFCURVE",
"677 63 OFFCURVE",
"677 154 CURVE",
"677 242 OFFCURVE",
"619 303 OFFCURVE",
"545 358 CURVE",
"486 402 OFFCURVE",
"462 433 OFFCURVE",
"462 481 CURVE",
"462 544 OFFCURVE",
"536 577 OFFCURVE",
"587 589 CURVE",
"587 631 LINE",
"587 631 OFFCURVE",
"510 671 OFFCURVE",
"375 671 CURVE",
"213 671 OFFCURVE",
"91 610 OFFCURVE",
"91 404 CURVE",
"91 60 LINE",
"91 1 OFFCURVE",
"70 0 OFFCURVE",
"70 0 CURVE",
"163 0 LINE",
"163 0 OFFCURVE",
"143 1 OFFCURVE",
"143 60 CURVE",
"143 397 LINE",
"143 568 OFFCURVE",
"224 631 OFFCURVE",
"367 631 CURVE",
"458 631 OFFCURVE",
"523 613 OFFCURVE",
"523 613 CURVE",
"523 610 LINE",
"469 591 OFFCURVE",
"414 545 OFFCURVE",
"414 476 CURVE",
"414 415 OFFCURVE",
"443 375 OFFCURVE",
"502 326 CURVE",
"554 283 OFFCURVE",
"623 232 OFFCURVE",
"623 156 CURVE",
"623 79 OFFCURVE",
"553 31 OFFCURVE",
"467 31 CURVE",
"322 31 OFFCURVE",
"257 101 OFFCURVE",
"257 101 CURVE",
"257 71 LINE",
"247 41 LINE",
"247 41 OFFCURVE",
"305 -10 OFFCURVE",
"465 -10 CURVE"
);
}
);
};
layerId = "CA5CD7F6-F0E6-40F5-9716-481B35A0BC32";
paths = (
{
closed = 1;
nodes = (
"597 -10 OFFCURVE",
"677 63 OFFCURVE",
"677 154 CURVE SMOOTH",
"677 242 OFFCURVE",
"619 303 OFFCURVE",
"545 358 CURVE SMOOTH",
"486 402 OFFCURVE",
"462 433 OFFCURVE",
"462 481 CURVE SMOOTH",
"462 544 OFFCURVE",
"536 577 OFFCURVE",
"587 589 CURVE",
"587 631 LINE",
"554 648 OFFCURVE",
"474 671 OFFCURVE",
"375 671 CURVE SMOOTH",
"213 671 OFFCURVE",
"91 610 OFFCURVE",
"91 404 CURVE SMOOTH",
"91 60 LINE SMOOTH",
"91 17 OFFCURVE",
"79 0 OFFCURVE",
"70 0 CURVE SMOOTH",
"163 0 LINE SMOOTH",
"154 0 OFFCURVE",
"143 17 OFFCURVE",
"143 60 CURVE SMOOTH",
"143 397 LINE SMOOTH",
"143 568 OFFCURVE",
"224 631 OFFCURVE",
"367 631 CURVE SMOOTH",
"433 631 OFFCURVE",
"495 621 OFFCURVE",
"523 613 CURVE",
"523 610 LINE",
"469 591 OFFCURVE",
"414 545 OFFCURVE",
"414 476 CURVE SMOOTH",
"414 415 OFFCURVE",
"443 375 OFFCURVE",
"502 326 CURVE SMOOTH",
"554 283 OFFCURVE",
"623 232 OFFCURVE",
"623 156 CURVE SMOOTH",
"623 79 OFFCURVE",
"553 31 OFFCURVE",
"467 31 CURVE SMOOTH",
"361 31 OFFCURVE",
"285 71 OFFCURVE",
"257 101 CURVE",
"257 71 LINE",
"247 41 LINE",
"272 19 OFFCURVE",
"348 -10 OFFCURVE",
"465 -10 CURVE SMOOTH"
);
}
);
width = 727;
}
);
leftKerningGroup = Germandbls;
leftMetricsKey = H;
rightKerningGroup = Germandbls;
rightMetricsKey = O;
unicode = 1E9E;
},
{
color = 1;
glyphname = Schwa;
lastChange = "2020-07-02 15:20:05 +0000";
layers = (
{
background = {
paths = (
{
closed = 1;
nodes = (
"470 -10 OFFCURVE",
"576 98 OFFCURVE",
"576 304 CURVE",
"576 486 OFFCURVE",
"494 608 OFFCURVE",
"284 608 CURVE",
"129 608 OFFCURVE",
"70 568 OFFCURVE",
"70 568 CURVE",
"80 508 LINE",
"80 478 LINE",
"80 478 OFFCURVE",
"178 538 OFFCURVE",
"284 538 CURVE",
"421 538 OFFCURVE",
"464 445 OFFCURVE",
"464 305 CURVE",
"40 305 LINE",
"40 233 LINE",
"40 91 OFFCURVE",
"117 -10 OFFCURVE",
"304 -10 CURVE"
);
},
{
closed = 1;
nodes = (
"194 61 OFFCURVE",
"152 130 OFFCURVE",
"152 203 CURVE",
"152 235 LINE",
"464 235 LINE",
"464 131 OFFCURVE",
"418 61 OFFCURVE",
"304 61 CURVE"
);
}
);
};
layerId = "083550D2-F2E8-44E3-BE3D-E8BDF41EDFC4";
paths = (
{
closed = 1;
nodes = (
"470 -10 OFFCURVE",
"576 98 OFFCURVE",
"576 304 CURVE SMOOTH",
"576 486 OFFCURVE",
"494 608 OFFCURVE",
"284 608 CURVE SMOOTH",
"171 608 OFFCURVE",
"95 585 OFFCURVE",
"70 568 CURVE",
"80 508 LINE",
"80 478 LINE",
"122 504 OFFCURVE",
"207 538 OFFCURVE",
"284 538 CURVE SMOOTH",
"421 538 OFFCURVE",
"464 445 OFFCURVE",
"464 305 CURVE",
"40 305 LINE",
"40 233 LINE SMOOTH",
"40 91 OFFCURVE",
"117 -10 OFFCURVE",
"304 -10 CURVE SMOOTH"
);
},
{
closed = 1;
nodes = (
"194 61 OFFCURVE",
"152 130 OFFCURVE",
"152 203 CURVE SMOOTH",
"152 235 LINE",
"464 235 LINE",
"464 131 OFFCURVE",
"418 61 OFFCURVE",
"304 61 CURVE SMOOTH"
);
}
);
width = 616;
},
{
background = {
paths = (
{
closed = 1;
nodes = (
"470 -10 OFFCURVE",
"576 98 OFFCURVE",
"576 304 CURVE",
"576 486 OFFCURVE",
"494 608 OFFCURVE",
"284 608 CURVE",
"129 608 OFFCURVE",
"70 568 OFFCURVE",
"70 568 CURVE",
"80 468 LINE",
"80 438 LINE",
"80 438 OFFCURVE",
"178 508 OFFCURVE",
"284 508 CURVE",
"419 508 OFFCURVE",
"424 392 OFFCURVE",
"424 305 CURVE",
"40 305 LINE",
"40 233 LINE",
"40 91 OFFCURVE",
"117 -10 OFFCURVE",
"304 -10 CURVE"
);
},
{
closed = 1;
nodes = (
"218 91 OFFCURVE",
"192 129 OFFCURVE",
"192 193 CURVE",
"192 205 LINE",
"424 205 LINE",
"424 125 OFFCURVE",
"388 91 OFFCURVE",
"304 91 CURVE"
);
}
);
};
layerId = "1A280FA7-9E72-4FC3-84C1-49B7BD56B269";
paths = (
{
closed = 1;
nodes = (
"470 -10 OFFCURVE",
"576 98 OFFCURVE",
"576 304 CURVE SMOOTH",
"576 486 OFFCURVE",
"494 608 OFFCURVE",
"284 608 CURVE SMOOTH",
"171 608 OFFCURVE",
"95 585 OFFCURVE",
"70 568 CURVE",
"80 468 LINE",
"80 438 LINE",
"122 468 OFFCURVE",
"207 508 OFFCURVE",
"284 508 CURVE SMOOTH",
"419 508 OFFCURVE",
"424 392 OFFCURVE",
"424 305 CURVE",
"40 305 LINE",
"40 233 LINE SMOOTH",
"40 91 OFFCURVE",
"117 -10 OFFCURVE",
"304 -10 CURVE SMOOTH"
);
},
{
closed = 1;
nodes = (
"218 91 OFFCURVE",
"192 129 OFFCURVE",
"192 193 CURVE SMOOTH",
"192 205 LINE",
"424 205 LINE",
"424 125 OFFCURVE",
"388 91 OFFCURVE",
"304 91 CURVE SMOOTH"
);
}
);
width = 614;
},
{
background = {
paths = (
{
closed = 1;
nodes = (
"470 -10 OFFCURVE",
"576 98 OFFCURVE",
"576 304 CURVE",
"576 486 OFFCURVE",
"494 608 OFFCURVE",
"284 608 CURVE",
"129 608 OFFCURVE",
"70 568 OFFCURVE",
"70 568 CURVE",
"80 538 LINE",
"80 508 LINE",
"80 508 OFFCURVE",
"172 568 OFFCURVE",
"284 568 CURVE",
"456 568 OFFCURVE",
"522 451 OFFCURVE",
"522 305 CURVE",
"40 305 LINE",
"40 233 LINE",
"40 91 OFFCURVE",
"117 -10 OFFCURVE",
"304 -10 CURVE"
);
},
{
closed = 1;
nodes = (
"184 30 OFFCURVE",
"94 94 OFFCURVE",
"94 223 CURVE",
"94 265 LINE",
"522 265 LINE",
"522 108 OFFCURVE",
"431 30 OFFCURVE",
"304 30 CURVE"
);
}
);
};
layerId = "CA5CD7F6-F0E6-40F5-9716-481B35A0BC32";
paths = (
{
closed = 1;
nodes = (
"470 -10 OFFCURVE",
"576 98 OFFCURVE",
"576 304 CURVE SMOOTH",
"576 486 OFFCURVE",
"494 608 OFFCURVE",
"284 608 CURVE SMOOTH",
"171 608 OFFCURVE",
"95 585 OFFCURVE",
"70 568 CURVE",
"80 538 LINE",
"80 508 LINE",
"120 534 OFFCURVE",
"202 568 OFFCURVE",
"284 568 CURVE SMOOTH",
"456 568 OFFCURVE",
"522 451 OFFCURVE",
"522 305 CURVE",
"40 305 LINE",
"40 233 LINE SMOOTH",
"40 91 OFFCURVE",
"117 -10 OFFCURVE",
"304 -10 CURVE SMOOTH"
);
},
{
closed = 1;
nodes = (
"184 30 OFFCURVE",
"94 94 OFFCURVE",
"94 223 CURVE SMOOTH",
"94 265 LINE",
"522 265 LINE",
"522 108 OFFCURVE",
"431 30 OFFCURVE",
"304 30 CURVE SMOOTH"
);
}
);
width = 618;
}
);
leftKerningGroup = O;
leftMetricsKey = a;
rightKerningGroup = O;
rightMetricsKey = a;
unicode = 018F;
},
{
color = 1;
glyphname = T;
lastChange = "2020-07-02 15:20:05 +0000";
layers = (
{
anchors = (
{
name = bottom;
position = "{319, 0}";
},
{
name = center;
position = "{319, 300}";
},
{
name = top;
position = "{319, 600}";
}
);
background = {
anchors = (
{
name = bottom;
position = "{319, 0}";
},
{
name = center;
position = "{319, 300}";
},
{
name = top;
position = "{319, 600}";
}
);
paths = (
{
closed = 1;
nodes = (
"396 0 LINE",
"396 0 OFFCURVE",
"375 1 OFFCURVE",
"375 60 CURVE",
"375 490 LINE",
"375 519 OFFCURVE",
"375 520 OFFCURVE",
"416 520 CURVE",
"488 520 LINE",
"594 520 OFFCURVE",
"628 484 OFFCURVE",
"628 484 CURVE",
"608 580 LINE",
"608 600 LINE",
"30 600 LINE",
"30 580 LINE",
"10 484 LINE",
"10 484 OFFCURVE",
"44 520 OFFCURVE",
"150 520 CURVE",
"223 520 LINE",
"263 520 OFFCURVE",
"263 519 OFFCURVE",
"263 490 CURVE",
"263 60 LINE",
"263 1 OFFCURVE",
"242 0 OFFCURVE",
"242 0 CURVE"
);
}
);
};
layerId = "083550D2-F2E8-44E3-BE3D-E8BDF41EDFC4";
paths = (
{
closed = 1;
nodes = (
"396 0 LINE SMOOTH",
"387 0 OFFCURVE",
"375 17 OFFCURVE",
"375 60 CURVE SMOOTH",
"375 490 LINE SMOOTH",
"375 519 OFFCURVE",
"375 520 OFFCURVE",
"416 520 CURVE SMOOTH",
"488 520 LINE SMOOTH",
"565 520 OFFCURVE",
"613 499 OFFCURVE",
"628 484 CURVE",
"608 580 LINE",
"608 600 LINE",
"30 600 LINE",
"30 580 LINE",
"10 484 LINE",
"25 499 OFFCURVE",
"73 520 OFFCURVE",
"150 520 CURVE SMOOTH",
"223 520 LINE SMOOTH",
"263 520 OFFCURVE",
"263 519 OFFCURVE",
"263 490 CURVE SMOOTH",
"263 60 LINE SMOOTH",
"263 17 OFFCURVE",
"251 0 OFFCURVE",
"242 0 CURVE SMOOTH"
);
}
);
width = 638;
},
{
anchors = (
{
name = bottom;
position = "{339, 0}";
},
{
name = center;
position = "{339, 300}";
},
{
name = top;
position = "{339, 600}";
}
);
background = {
anchors = (
{
name = bottom;
position = "{339, 0}";
},
{
name = center;
position = "{339, 300}";
},
{
name = top;
position = "{339, 600}";
}
);
paths = (
{
closed = 1;
nodes = (
"438 0 LINE",
"438 0 OFFCURVE",
"417 1 OFFCURVE",
"417 60 CURVE",
"417 460 LINE",
"417 489 OFFCURVE",
"417 490 OFFCURVE",
"458 490 CURVE",
"530 490 LINE",
"636 490 OFFCURVE",
"670 454 OFFCURVE",
"670 454 CURVE",
"650 570 LINE",
"650 600 LINE",
"30 600 LINE",
"30 570 LINE",
"10 454 LINE",
"10 454 OFFCURVE",
"44 490 OFFCURVE",
"150 490 CURVE",
"223 490 LINE",
"263 490 OFFCURVE",
"263 489 OFFCURVE",
"263 460 CURVE",
"263 60 LINE",
"263 1 OFFCURVE",
"242 0 OFFCURVE",
"242 0 CURVE"
);
}
);
};
layerId = "1A280FA7-9E72-4FC3-84C1-49B7BD56B269";
paths = (
{
closed = 1;
nodes = (
"438 0 LINE SMOOTH",
"429 0 OFFCURVE",
"417 17 OFFCURVE",
"417 60 CURVE SMOOTH",
"417 460 LINE SMOOTH",
"417 489 OFFCURVE",
"417 490 OFFCURVE",
"458 490 CURVE SMOOTH",
"530 490 LINE SMOOTH",
"607 490 OFFCURVE",
"655 469 OFFCURVE",
"670 454 CURVE",
"650 570 LINE",
"650 600 LINE",
"30 600 LINE",
"30 570 LINE",
"10 454 LINE",
"25 469 OFFCURVE",
"73 490 OFFCURVE",
"150 490 CURVE SMOOTH",
"223 490 LINE SMOOTH",
"263 490 OFFCURVE",
"263 489 OFFCURVE",
"263 460 CURVE SMOOTH",
"263 60 LINE SMOOTH",
"263 17 OFFCURVE",
"251 0 OFFCURVE",
"242 0 CURVE SMOOTH"
);
}
);
width = 680;
},
{
associatedMasterId = "083550D2-F2E8-44E3-BE3D-E8BDF41EDFC4";
layerId = "0AAF2CB4-2EBD-42C4-BAB4-4CEC92C737FB";
width = 600;
},
{
anchors = (
{
name = bottom;
position = "{299, 0}";
},
{
name = center;
position = "{299, 300}";
},
{
name = top;
position = "{299, 600}";
}
);
background = {
anchors = (
{
name = bottom;
position = "{299, 0}";
},
{
name = center;
position = "{299, 300}";
},
{
name = top;
position = "{299, 600}";
}
);
paths = (
{
closed = 1;
nodes = (
"346 0 LINE",
"346 0 OFFCURVE",
"325 1 OFFCURVE",
"325 60 CURVE",
"325 530 LINE",
"325 559 OFFCURVE",
"325 560 OFFCURVE",
"366 560 CURVE",
"446 560 LINE",
"552 560 OFFCURVE",
"586 544 OFFCURVE",
"586 544 CURVE",
"566 590 LINE",
"566 600 LINE",
"30 600 LINE",
"30 590 LINE",
"10 544 LINE",
"10 544 OFFCURVE",
"44 560 OFFCURVE",
"150 560 CURVE",
"232 560 LINE",
"272 560 OFFCURVE",
"272 559 OFFCURVE",
"272 530 CURVE",
"272 60 LINE",
"272 1 OFFCURVE",
"251 0 OFFCURVE",
"251 0 CURVE"
);
}
);
};
layerId = "CA5CD7F6-F0E6-40F5-9716-481B35A0BC32";
paths = (
{
closed = 1;
nodes = (
"346 0 LINE SMOOTH",
"337 0 OFFCURVE",
"325 17 OFFCURVE",
"325 60 CURVE SMOOTH",
"325 530 LINE SMOOTH",
"325 559 OFFCURVE",
"325 560 OFFCURVE",
"366 560 CURVE SMOOTH",
"446 560 LINE SMOOTH",
"523 560 OFFCURVE",
"571 551 OFFCURVE",
"586 544 CURVE",
"566 590 LINE",
"566 600 LINE",
"30 600 LINE",
"30 590 LINE",
"10 544 LINE",
"25 551 OFFCURVE",
"73 560 OFFCURVE",
"150 560 CURVE SMOOTH",
"232 560 LINE SMOOTH",
"272 560 OFFCURVE",
"272 559 OFFCURVE",
"272 530 CURVE SMOOTH",
"272 60 LINE SMOOTH",
"272 17 OFFCURVE",
"260 0 OFFCURVE",
"251 0 CURVE SMOOTH"
);
}
);
width = 596;
},
{
associatedMasterId = "CA5CD7F6-F0E6-40F5-9716-481B35A0BC32";
layerId = "9B8BD212-B9C5-4D01-9579-805C80756A03";
width = 600;
}
);
leftKerningGroup = T;
rightKerningGroup = T;
unicode = 0054;
},
{
color = 8;
glyphname = U;
lastChange = "2020-07-02 15:20:05 +0000";
layers = (
{
anchors = (
{
name = bottom;
position = "{368, 0}";
},
{
name = ogonek;
position = "{451, 2}";
},
{
name = top;
position = "{368, 600}";
},
{
name = topright;
position = "{715, 600}";
}
);
background = {
anchors = (
{
name = bottom;
position = "{368, 0}";
},
{
name = ogonek;
position = "{451, 2}";
},
{
name = top;
position = "{368, 600}";
},
{
name = topright;
position = "{715, 600}";
}
);
paths = (
{
closed = 1;
nodes = (
"373 -10 LINE SMOOTH",
"572 -10 OFFCURVE",
"665 91 OFFCURVE",
"665 259 CURVE SMOOTH",
"665 540 LINE SMOOTH",
"665 598 OFFCURVE",
"685 600 OFFCURVE",
"685 600 CURVE",
"533 600 LINE",
"533 600 OFFCURVE",
"553 599 OFFCURVE",
"553 541 CURVE SMOOTH",
"553 261 LINE SMOOTH",
"553 119 OFFCURVE",
"489 71 OFFCURVE",
"375 71 CURVE SMOOTH",
"364 71 LINE SMOOTH",
"251 71 OFFCURVE",
"182 121 OFFCURVE",
"182 261 CURVE SMOOTH",
"182 541 LINE SMOOTH",
"182 598 OFFCURVE",
"202 600 OFFCURVE",
"202 600 CURVE",
"50 600 LINE",
"50 600 OFFCURVE",
"70 600 OFFCURVE",
"70 541 CURVE SMOOTH",
"70 259 LINE SMOOTH",
"70 91 OFFCURVE",
"160 -10 OFFCURVE",
"363 -10 CURVE SMOOTH"
);
}
);
};
layerId = "083550D2-F2E8-44E3-BE3D-E8BDF41EDFC4";
paths = (
{
closed = 1;
nodes = (
"373 -10 LINE SMOOTH",
"572 -10 OFFCURVE",
"665 91 OFFCURVE",
"665 259 CURVE SMOOTH",
"665 540 LINE SMOOTH",
"665 582 OFFCURVE",
"676 599 OFFCURVE",
"685 600 CURVE",
"533 600 LINE SMOOTH",
"542 600 OFFCURVE",
"553 583 OFFCURVE",
"553 541 CURVE SMOOTH",
"553 261 LINE SMOOTH",
"553 119 OFFCURVE",
"489 71 OFFCURVE",
"375 71 CURVE SMOOTH",
"364 71 LINE SMOOTH",
"251 71 OFFCURVE",
"182 121 OFFCURVE",
"182 261 CURVE SMOOTH",
"182 541 LINE SMOOTH",
"182 583 OFFCURVE",
"193 599 OFFCURVE",
"202 600 CURVE",
"50 600 LINE SMOOTH",
"59 600 OFFCURVE",
"70 584 OFFCURVE",
"70 541 CURVE SMOOTH",
"70 259 LINE SMOOTH",
"70 91 OFFCURVE",
"160 -10 OFFCURVE",
"363 -10 CURVE SMOOTH"
);
}
);
width = 735;
},
{
anchors = (
{
name = bottom;
position = "{368, 0}";
},
{
name = ogonek;
position = "{431, 2}";
},
{
name = top;
position = "{368, 600}";
},
{
name = topright;
position = "{725, 600}";
}
);
background = {
anchors = (
{
name = bottom;
position = "{368, 0}";
},
{
name = ogonek;
position = "{431, 2}";
},
{
name = top;
position = "{368, 600}";
},
{
name = topright;
position = "{725, 600}";
}
);
paths = (
{
closed = 1;
nodes = (
"373 -10 LINE SMOOTH",
"572 -10 OFFCURVE",
"665 91 OFFCURVE",
"665 259 CURVE SMOOTH",
"665 540 LINE SMOOTH",
"665 598 OFFCURVE",
"685 600 OFFCURVE",
"685 600 CURVE",
"493 600 LINE",
"493 600 OFFCURVE",
"513 599 OFFCURVE",
"513 541 CURVE SMOOTH",
"513 261 LINE SMOOTH",
"513 130 OFFCURVE",
"462 101 OFFCURVE",
"375 101 CURVE SMOOTH",
"364 101 LINE SMOOTH",
"279 101 OFFCURVE",
"222 132 OFFCURVE",
"222 261 CURVE SMOOTH",
"222 541 LINE SMOOTH",
"222 598 OFFCURVE",
"242 600 OFFCURVE",
"242 600 CURVE",
"50 600 LINE",
"50 600 OFFCURVE",
"70 600 OFFCURVE",
"70 541 CURVE SMOOTH",
"70 259 LINE SMOOTH",
"70 91 OFFCURVE",
"160 -10 OFFCURVE",
"363 -10 CURVE SMOOTH"
);
}
);
};
layerId = "1A280FA7-9E72-4FC3-84C1-49B7BD56B269";
paths = (
{
closed = 1;
nodes = (
"373 -10 LINE SMOOTH",
"572 -10 OFFCURVE",
"665 91 OFFCURVE",
"665 259 CURVE SMOOTH",
"665 540 LINE SMOOTH",
"665 582 OFFCURVE",
"676 599 OFFCURVE",
"685 600 CURVE",
"493 600 LINE SMOOTH",
"502 600 OFFCURVE",
"513 583 OFFCURVE",
"513 541 CURVE SMOOTH",
"513 261 LINE SMOOTH",
"513 130 OFFCURVE",
"462 101 OFFCURVE",
"375 101 CURVE SMOOTH",
"364 101 LINE SMOOTH",
"279 101 OFFCURVE",
"222 132 OFFCURVE",
"222 261 CURVE SMOOTH",
"222 541 LINE SMOOTH",
"222 583 OFFCURVE",
"233 599 OFFCURVE",
"242 600 CURVE",
"50 600 LINE SMOOTH",
"59 600 OFFCURVE",
"70 584 OFFCURVE",
"70 541 CURVE SMOOTH",
"70 259 LINE SMOOTH",
"70 91 OFFCURVE",
"160 -10 OFFCURVE",
"363 -10 CURVE SMOOTH"
);
}
);
width = 735;
},
{
associatedMasterId = "083550D2-F2E8-44E3-BE3D-E8BDF41EDFC4";
layerId = "0AAF2CB4-2EBD-42C4-BAB4-4CEC92C737FB";
width = 600;
},
{
anchors = (
{
name = bottom;
position = "{348, 0}";
},
{
name = ogonek;
position = "{451, 1}";
},
{
name = top;
position = "{347, 600}";
},
{
name = topright;
position = "{685, 600}";
}
);
background = {
anchors = (
{
name = bottom;
position = "{348, 0}";
},
{
name = ogonek;
position = "{451, 1}";
},
{
name = top;
position = "{347, 600}";
},
{
name = topright;
position = "{685, 600}";
}
);
paths = (
{
closed = 1;
nodes = (
"353 -10 LINE SMOOTH",
"552 -10 OFFCURVE",
"625 75 OFFCURVE",
"625 259 CURVE SMOOTH",
"625 540 LINE SMOOTH",
"625 598 OFFCURVE",
"645 600 OFFCURVE",
"645 600 CURVE",
"551 600 LINE",
"551 600 OFFCURVE",
"571 599 OFFCURVE",
"571 541 CURVE SMOOTH",
"571 261 LINE SMOOTH",
"571 66 OFFCURVE",
"482 31 OFFCURVE",
"355 31 CURVE SMOOTH",
"344 31 LINE SMOOTH",
"209 31 OFFCURVE",
"124 68 OFFCURVE",
"124 261 CURVE SMOOTH",
"124 541 LINE SMOOTH",
"124 598 OFFCURVE",
"144 600 OFFCURVE",
"144 600 CURVE",
"50 600 LINE",
"50 600 OFFCURVE",
"70 600 OFFCURVE",
"70 541 CURVE SMOOTH",
"70 259 LINE SMOOTH",
"70 75 OFFCURVE",
"140 -10 OFFCURVE",
"343 -10 CURVE SMOOTH"
);
}
);
};
layerId = "CA5CD7F6-F0E6-40F5-9716-481B35A0BC32";
paths = (
{
closed = 1;
nodes = (
"353 -10 LINE SMOOTH",
"552 -10 OFFCURVE",
"625 75 OFFCURVE",
"625 259 CURVE SMOOTH",
"625 540 LINE SMOOTH",
"625 582 OFFCURVE",
"636 599 OFFCURVE",
"645 600 CURVE",
"551 600 LINE SMOOTH",
"560 600 OFFCURVE",
"571 583 OFFCURVE",
"571 541 CURVE SMOOTH",
"571 261 LINE SMOOTH",
"571 66 OFFCURVE",
"482 31 OFFCURVE",
"355 31 CURVE SMOOTH",
"344 31 LINE SMOOTH",
"209 31 OFFCURVE",
"124 68 OFFCURVE",
"124 261 CURVE SMOOTH",
"124 541 LINE SMOOTH",
"124 583 OFFCURVE",
"135 599 OFFCURVE",
"144 600 CURVE",
"50 600 LINE SMOOTH",
"59 600 OFFCURVE",
"70 584 OFFCURVE",
"70 541 CURVE SMOOTH",
"70 259 LINE SMOOTH",
"70 75 OFFCURVE",
"140 -10 OFFCURVE",
"343 -10 CURVE SMOOTH"
);
}
);
width = 695;
},
{
associatedMasterId = "CA5CD7F6-F0E6-40F5-9716-481B35A0BC32";
layerId = "FBEDC220-7916-40C5-BAC7-0AA4FF19FA6C";
width = 600;
}
);
leftKerningGroup = U;
rightKerningGroup = U;
unicode = 0055;
},
{
color = 1;
glyphname = V;
lastChange = "2020-07-02 15:20:05 +0000";
layers = (
{
background = {
paths = (
{
closed = 1;
nodes = (
"450 0 LINE",
"450 0 OFFCURVE",
"434 1 OFFCURVE",
"450 61 CURVE",
"466 121 OFFCURVE",
"651 483 OFFCURVE",
"680 541 CURVE",
"709 599 OFFCURVE",
"727 600 OFFCURVE",
"727 600 CURVE",
"548 600 LINE",
"548 600 OFFCURVE",
"574 599 OFFCURVE",
"548 540 CURVE",
"523 481 OFFCURVE",
"371 110 OFFCURVE",
"371 110 CURVE",
"370 110 LINE",
"370 110 OFFCURVE",
"222 477 OFFCURVE",
"195 538 CURVE",
"168 599 OFFCURVE",
"195 600 OFFCURVE",
"195 600 CURVE",
"10 600 LINE",
"10 600 OFFCURVE",
"30 597 OFFCURVE",
"61 538 CURVE",
"94 477 OFFCURVE",
"274 104 OFFCURVE",
"290 61 CURVE",
"312 1 OFFCURVE",
"290 0 OFFCURVE",
"290 0 CURVE"
);
}
);
};
layerId = "083550D2-F2E8-44E3-BE3D-E8BDF41EDFC4";
paths = (
{
closed = 1;
nodes = (
"450 0 LINE SMOOTH",
"443 0 OFFCURVE",
"438 17 OFFCURVE",
"450 61 CURVE SMOOTH",
"466 121 OFFCURVE",
"651 483 OFFCURVE",
"680 541 CURVE SMOOTH",
"701 583 OFFCURVE",
"719 600 OFFCURVE",
"727 600 CURVE SMOOTH",
"548 600 LINE SMOOTH",
"559 600 OFFCURVE",
"567 583 OFFCURVE",
"548 540 CURVE SMOOTH",
"530 497 OFFCURVE",
"436 270 OFFCURVE",
"371 110 CURVE",
"370 110 LINE",
"306 268 OFFCURVE",
"215 493 OFFCURVE",
"195 538 CURVE SMOOTH",
"175 583 OFFCURVE",
"183 600 OFFCURVE",
"195 600 CURVE SMOOTH",
"10 600 LINE",
"19 599 OFFCURVE",
"38 581 OFFCURVE",
"61 538 CURVE SMOOTH",
"94 477 OFFCURVE",
"274 104 OFFCURVE",
"290 61 CURVE SMOOTH",
"306 17 OFFCURVE",
"299 0 OFFCURVE",
"290 0 CURVE SMOOTH"
);
}
);
width = 737;
},
{
background = {
paths = (
{
closed = 1;
nodes = (
"503 0 LINE",
"503 0 OFFCURVE",
"478 2 OFFCURVE",
"503 61 CURVE",
"527 118 OFFCURVE",
"693 483 OFFCURVE",
"722 541 CURVE",
"751 599 OFFCURVE",
"769 600 OFFCURVE",
"769 600 CURVE",
"549 600 LINE",
"549 600 OFFCURVE",
"570 600 OFFCURVE",
"549 540 CURVE",
"528 479 OFFCURVE",
"392 130 OFFCURVE",
"392 130 CURVE",
"391 130 LINE",
"391 130 OFFCURVE",
"257 474 OFFCURVE",
"237 538 CURVE",
"218 599 OFFCURVE",
"237 600 OFFCURVE",
"237 600 CURVE",
"10 600 LINE",
"10 600 OFFCURVE",
"30 597 OFFCURVE",
"61 538 CURVE",
"94 477 OFFCURVE",
"258 111 OFFCURVE",
"279 61 CURVE",
"304 2 OFFCURVE",
"279 0 OFFCURVE",
"279 0 CURVE"
);
}
);
};
layerId = "1A280FA7-9E72-4FC3-84C1-49B7BD56B269";
paths = (
{
closed = 1;
nodes = (
"503 0 LINE",
"492 1 OFFCURVE",
"485 18 OFFCURVE",
"503 61 CURVE SMOOTH",
"527 118 OFFCURVE",
"693 483 OFFCURVE",
"722 541 CURVE SMOOTH",
"743 583 OFFCURVE",
"761 600 OFFCURVE",
"769 600 CURVE SMOOTH",
"549 600 LINE SMOOTH",
"558 600 OFFCURVE",
"564 584 OFFCURVE",
"549 540 CURVE SMOOTH",
"534 495 OFFCURVE",
"450 280 OFFCURVE",
"392 130 CURVE",
"391 130 LINE",
"333 278 OFFCURVE",
"252 491 OFFCURVE",
"237 538 CURVE SMOOTH",
"223 583 OFFCURVE",
"229 600 OFFCURVE",
"237 600 CURVE SMOOTH",
"10 600 LINE",
"19 599 OFFCURVE",
"38 581 OFFCURVE",
"61 538 CURVE SMOOTH",
"94 477 OFFCURVE",
"258 111 OFFCURVE",
"279 61 CURVE SMOOTH",
"297 18 OFFCURVE",
"290 1 OFFCURVE",
"279 0 CURVE"
);
}
);
width = 779;
},
{
associatedMasterId = "083550D2-F2E8-44E3-BE3D-E8BDF41EDFC4";
layerId = "0AAF2CB4-2EBD-42C4-BAB4-4CEC92C737FB";
width = 600;
},
{
background = {
paths = (
{
closed = 1;
nodes = (
"398 0 LINE",
"398 0 OFFCURVE",
"382 1 OFFCURVE",
"398 61 CURVE",
"414 121 OFFCURVE",
"609 483 OFFCURVE",
"638 541 CURVE",
"667 599 OFFCURVE",
"685 600 OFFCURVE",
"685 600 CURVE",
"579 600 LINE",
"579 600 OFFCURVE",
"604 596 OFFCURVE",
"579 540 CURVE",
"553 481 OFFCURVE",
"350 70 OFFCURVE",
"350 70 CURVE",
"349 70 LINE",
"349 70 OFFCURVE",
"150 478 OFFCURVE",
"121 538 CURVE",
"94 595 OFFCURVE",
"121 600 OFFCURVE",
"121 600 CURVE",
"10 600 LINE",
"10 600 OFFCURVE",
"29 597 OFFCURVE",
"61 538 CURVE",
"94 477 OFFCURVE",
"284 104 OFFCURVE",
"299 61 CURVE",
"321 1 OFFCURVE",
"299 0 OFFCURVE",
"299 0 CURVE"
);
}
);
};
layerId = "CA5CD7F6-F0E6-40F5-9716-481B35A0BC32";
paths = (
{
closed = 1;
nodes = (
"398 0 LINE SMOOTH",
"391 0 OFFCURVE",
"386 17 OFFCURVE",
"398 61 CURVE SMOOTH",
"414 121 OFFCURVE",
"609 483 OFFCURVE",
"638 541 CURVE SMOOTH",
"659 583 OFFCURVE",
"677 600 OFFCURVE",
"685 600 CURVE SMOOTH",
"579 600 LINE",
"590 598 OFFCURVE",
"597 581 OFFCURVE",
"579 540 CURVE SMOOTH",
"560 497 OFFCURVE",
"437 247 OFFCURVE",
"350 70 CURVE",
"349 70 LINE",
"263 245 OFFCURVE",
"142 494 OFFCURVE",
"121 538 CURVE SMOOTH",
"101 580 OFFCURVE",
"109 598 OFFCURVE",
"121 600 CURVE",
"10 600 LINE",
"18 599 OFFCURVE",
"38 581 OFFCURVE",
"61 538 CURVE SMOOTH",
"94 477 OFFCURVE",
"284 104 OFFCURVE",
"299 61 CURVE SMOOTH",
"315 17 OFFCURVE",
"308 0 OFFCURVE",
"299 0 CURVE SMOOTH"
);
}
);
width = 695;
},
{
associatedMasterId = "CA5CD7F6-F0E6-40F5-9716-481B35A0BC32";
layerId = "28E31C3A-9171-4CFB-93E0-C674C1A6D786";
width = 600;
}
);
leftKerningGroup = V;
rightKerningGroup = V;
unicode = 0056;
},
{
color = 1;
glyphname = W;
lastChange = "2020-07-02 15:20:05 +0000";
layers = (
{
anchors = (
{
name = bottom;
position = "{588, 0}";
},
{
name = top;
position = "{588, 600}";
}
);
background = {
anchors = (
{
name = bottom;
position = "{588, 0}";
},
{
name = top;
position = "{588, 600}";
}
);
paths = (
{
closed = 1;
nodes = (
"436 0 LINE",
"436 0 OFFCURVE",
"420 3 OFFCURVE",
"436 62 CURVE",
"452 121 OFFCURVE",
"585 500 OFFCURVE",
"585 500 CURVE",
"587 500 LINE",
"587 500 OFFCURVE",
"720 122 OFFCURVE",
"738 62 CURVE",
"756 2 OFFCURVE",
"738 0 OFFCURVE",
"738 0 CURVE",
"908 0 LINE",
"908 0 OFFCURVE",
"889 2 OFFCURVE",
"908 62 CURVE",
"927 122 OFFCURVE",
"1084 477 OFFCURVE",
"1116 538 CURVE",
"1146 596 OFFCURVE",
"1166 600 OFFCURVE",
"1166 600 CURVE",
"985 600 LINE",
"985 600 OFFCURVE",
"1004 599 OFFCURVE",
"985 538 CURVE",
"966 477 OFFCURVE",
"826 108 OFFCURVE",
"826 108 CURVE",
"824 108 LINE",
"824 108 OFFCURVE",
"701 476 OFFCURVE",
"683 537 CURVE",
"664 600 OFFCURVE",
"683 600 OFFCURVE",
"683 600 CURVE",
"492 600 LINE",
"492 600 OFFCURVE",
"508 598 OFFCURVE",
"492 538 CURVE",
"473 468 OFFCURVE",
"351 108 OFFCURVE",
"351 108 CURVE",
"349 108 LINE",
"349 108 OFFCURVE",
"213 478 OFFCURVE",
"192 538 CURVE",
"171 598 OFFCURVE",
"191 600 OFFCURVE",
"191 600 CURVE",
"10 600 LINE",
"10 600 OFFCURVE",
"36 597 OFFCURVE",
"61 540 CURVE",
"92 470 OFFCURVE",
"250 102 OFFCURVE",
"266 59 CURVE",
"286 4 OFFCURVE",
"266 0 OFFCURVE",
"266 0 CURVE"
);
}
);
};
layerId = "083550D2-F2E8-44E3-BE3D-E8BDF41EDFC4";
paths = (
{
closed = 1;
nodes = (
"436 0 LINE",
"429 1 OFFCURVE",
"424 19 OFFCURVE",
"436 62 CURVE SMOOTH",
"448 105 OFFCURVE",
"528 337 OFFCURVE",
"585 500 CURVE",
"587 500 LINE",
"644 337 OFFCURVE",
"725 106 OFFCURVE",
"738 62 CURVE SMOOTH",
"751 18 OFFCURVE",
"746 1 OFFCURVE",
"738 0 CURVE",
"908 0 LINE",
"900 1 OFFCURVE",
"894 18 OFFCURVE",
"908 62 CURVE SMOOTH",
"927 122 OFFCURVE",
"1084 477 OFFCURVE",
"1116 538 CURVE SMOOTH",
"1138 580 OFFCURVE",
"1157 598 OFFCURVE",
"1166 600 CURVE",
"985 600 LINE SMOOTH",
"993 600 OFFCURVE",
"999 583 OFFCURVE",
"985 538 CURVE SMOOTH",
"971 493 OFFCURVE",
"886 267 OFFCURVE",
"826 108 CURVE",
"824 108 LINE",
"771 266 OFFCURVE",
"696 492 OFFCURVE",
"683 537 CURVE SMOOTH",
"669 583 OFFCURVE",
"675 600 OFFCURVE",
"683 600 CURVE SMOOTH",
"492 600 LINE",
"499 599 OFFCURVE",
"504 582 OFFCURVE",
"492 538 CURVE SMOOTH",
"478 487 OFFCURVE",
"403 263 OFFCURVE",
"351 108 CURVE",
"349 108 LINE",
"291 267 OFFCURVE",
"207 494 OFFCURVE",
"192 538 CURVE SMOOTH",
"177 582 OFFCURVE",
"182 599 OFFCURVE",
"191 600 CURVE",
"10 600 LINE",
"21 599 OFFCURVE",
"43 582 OFFCURVE",
"61 540 CURVE SMOOTH",
"92 470 OFFCURVE",
"250 102 OFFCURVE",
"266 59 CURVE SMOOTH",
"281 19 OFFCURVE",
"275 2 OFFCURVE",
"266 0 CURVE"
);
}
);
width = 1176;
},
{
anchors = (
{
name = bottom;
position = "{608, 0}";
},
{
name = top;
position = "{608, 600}";
}
);
background = {
anchors = (
{
name = bottom;
position = "{608, 0}";
},
{
name = top;
position = "{608, 600}";
}
);
paths = (
{
closed = 1;
nodes = (
"488 0 LINE",
"488 0 OFFCURVE",
"472 3 OFFCURVE",
"488 62 CURVE",
"504 121 OFFCURVE",
"606 500 OFFCURVE",
"606 500 CURVE",
"608 500 LINE",
"608 500 OFFCURVE",
"711 122 OFFCURVE",
"729 62 CURVE",
"747 2 OFFCURVE",
"729 0 OFFCURVE",
"729 0 CURVE",
"960 0 LINE",
"960 0 OFFCURVE",
"941 2 OFFCURVE",
"960 62 CURVE",
"979 122 OFFCURVE",
"1126 477 OFFCURVE",
"1158 538 CURVE",
"1188 596 OFFCURVE",
"1208 600 OFFCURVE",
"1208 600 CURVE",
"986 600 LINE",
"986 600 OFFCURVE",
"1005 599 OFFCURVE",
"986 538 CURVE",
"967 477 OFFCURVE",
"847 128 OFFCURVE",
"847 128 CURVE",
"845 128 LINE",
"845 128 OFFCURVE",
"753 476 OFFCURVE",
"734 537 CURVE",
"716 600 OFFCURVE",
"734 600 OFFCURVE",
"734 600 CURVE",
"482 600 LINE",
"482 600 OFFCURVE",
"498 598 OFFCURVE",
"482 538 CURVE",
"463 468 OFFCURVE",
"372 128 OFFCURVE",
"372 128 CURVE",
"370 128 LINE",
"370 128 OFFCURVE",
"255 478 OFFCURVE",
"234 538 CURVE",
"213 598 OFFCURVE",
"233 600 OFFCURVE",
"233 600 CURVE",
"10 600 LINE",
"10 600 OFFCURVE",
"36 597 OFFCURVE",
"61 540 CURVE",
"92 470 OFFCURVE",
"240 102 OFFCURVE",
"256 59 CURVE",
"276 4 OFFCURVE",
"256 0 OFFCURVE",
"256 0 CURVE"
);
}
);
};
layerId = "1A280FA7-9E72-4FC3-84C1-49B7BD56B269";
paths = (
{
closed = 1;
nodes = (
"488 0 LINE",
"481 1 OFFCURVE",
"476 19 OFFCURVE",
"488 62 CURVE SMOOTH",
"500 105 OFFCURVE",
"562 337 OFFCURVE",
"606 500 CURVE",
"608 500 LINE",
"652 337 OFFCURVE",
"716 106 OFFCURVE",
"729 62 CURVE SMOOTH",
"742 18 OFFCURVE",
"737 1 OFFCURVE",
"729 0 CURVE",
"960 0 LINE",
"952 1 OFFCURVE",
"946 18 OFFCURVE",
"960 62 CURVE SMOOTH",
"979 122 OFFCURVE",
"1126 477 OFFCURVE",
"1158 538 CURVE SMOOTH",
"1180 580 OFFCURVE",
"1199 598 OFFCURVE",
"1208 600 CURVE",
"986 600 LINE SMOOTH",
"994 600 OFFCURVE",
"1000 583 OFFCURVE",
"986 538 CURVE SMOOTH",
"972 493 OFFCURVE",
"899 278 OFFCURVE",
"847 128 CURVE",
"845 128 LINE",
"805 278 OFFCURVE",
"748 492 OFFCURVE",
"734 537 CURVE SMOOTH",
"721 583 OFFCURVE",
"726 600 OFFCURVE",
"734 600 CURVE SMOOTH",
"482 600 LINE",
"489 599 OFFCURVE",
"494 582 OFFCURVE",
"482 538 CURVE SMOOTH",
"468 487 OFFCURVE",
"411 274 OFFCURVE",
"372 128 CURVE",
"370 128 LINE",
"321 279 OFFCURVE",
"249 494 OFFCURVE",
"234 538 CURVE SMOOTH",
"219 582 OFFCURVE",
"224 599 OFFCURVE",
"233 600 CURVE",
"10 600 LINE",
"21 599 OFFCURVE",
"43 582 OFFCURVE",
"61 540 CURVE SMOOTH",
"92 470 OFFCURVE",
"240 102 OFFCURVE",
"256 59 CURVE SMOOTH",
"271 19 OFFCURVE",
"265 2 OFFCURVE",
"256 0 CURVE"
);
}
);
width = 1218;
},
{
associatedMasterId = "083550D2-F2E8-44E3-BE3D-E8BDF41EDFC4";
layerId = "0AAF2CB4-2EBD-42C4-BAB4-4CEC92C737FB";
width = 600;
},
{
anchors = (
{
name = bottom;
position = "{568, 0}";
},
{
name = top;
position = "{568, 600}";
}
);
background = {
anchors = (
{
name = bottom;
position = "{568, 0}";
},
{
name = top;
position = "{568, 600}";
}
);
paths = (
{
closed = 1;
nodes = (
"381 0 LINE",
"381 0 OFFCURVE",
"365 3 OFFCURVE",
"381 62 CURVE",
"397 121 OFFCURVE",
"562 520 OFFCURVE",
"562 520 CURVE",
"564 520 LINE",
"564 520 OFFCURVE",
"731 122 OFFCURVE",
"749 62 CURVE",
"767 2 OFFCURVE",
"749 0 OFFCURVE",
"749 0 CURVE",
"853 0 LINE",
"853 0 OFFCURVE",
"834 2 OFFCURVE",
"853 62 CURVE",
"872 122 OFFCURVE",
"1040 477 OFFCURVE",
"1072 538 CURVE",
"1102 596 OFFCURVE",
"1122 600 OFFCURVE",
"1122 600 CURVE",
"1006 600 LINE",
"1006 600 OFFCURVE",
"1025 599 OFFCURVE",
"1006 538 CURVE",
"987 477 OFFCURVE",
"803 68 OFFCURVE",
"803 68 CURVE",
"801 68 LINE",
"801 68 OFFCURVE",
"637 476 OFFCURVE",
"618 537 CURVE",
"600 600 OFFCURVE",
"618 600 OFFCURVE",
"618 600 CURVE",
"513 600 LINE",
"513 600 OFFCURVE",
"529 598 OFFCURVE",
"513 538 CURVE",
"494 468 OFFCURVE",
"328 68 OFFCURVE",
"328 68 CURVE",
"326 68 LINE",
"326 68 OFFCURVE",
"148 478 OFFCURVE",
"127 538 CURVE",
"106 598 OFFCURVE",
"126 600 OFFCURVE",
"126 600 CURVE",
"10 600 LINE",
"10 600 OFFCURVE",
"36 597 OFFCURVE",
"61 540 CURVE",
"92 470 OFFCURVE",
"261 102 OFFCURVE",
"277 59 CURVE",
"297 4 OFFCURVE",
"277 0 OFFCURVE",
"277 0 CURVE"
);
}
);
};
layerId = "CA5CD7F6-F0E6-40F5-9716-481B35A0BC32";
paths = (
{
closed = 1;
nodes = (
"381 0 LINE",
"374 1 OFFCURVE",
"369 19 OFFCURVE",
"381 62 CURVE SMOOTH",
"393 105 OFFCURVE",
"491 348 OFFCURVE",
"562 520 CURVE",
"564 520 LINE",
"636 349 OFFCURVE",
"736 106 OFFCURVE",
"749 62 CURVE SMOOTH",
"762 18 OFFCURVE",
"757 1 OFFCURVE",
"749 0 CURVE",
"853 0 LINE",
"845 1 OFFCURVE",
"839 18 OFFCURVE",
"853 62 CURVE SMOOTH",
"872 122 OFFCURVE",
"1040 477 OFFCURVE",
"1072 538 CURVE SMOOTH",
"1094 580 OFFCURVE",
"1113 598 OFFCURVE",
"1122 600 CURVE",
"1006 600 LINE SMOOTH",
"1014 600 OFFCURVE",
"1020 583 OFFCURVE",
"1006 538 CURVE SMOOTH",
"992 493 OFFCURVE",
"882 244 OFFCURVE",
"803 68 CURVE",
"801 68 LINE",
"730 243 OFFCURVE",
"632 492 OFFCURVE",
"618 537 CURVE SMOOTH",
"605 583 OFFCURVE",
"610 600 OFFCURVE",
"618 600 CURVE SMOOTH",
"513 600 LINE",
"520 599 OFFCURVE",
"525 582 OFFCURVE",
"513 538 CURVE SMOOTH",
"499 487 OFFCURVE",
"399 240 OFFCURVE",
"328 68 CURVE",
"326 68 LINE",
"249 244 OFFCURVE",
"142 494 OFFCURVE",
"127 538 CURVE SMOOTH",
"112 582 OFFCURVE",
"117 599 OFFCURVE",
"126 600 CURVE",
"10 600 LINE",
"21 599 OFFCURVE",
"43 582 OFFCURVE",
"61 540 CURVE SMOOTH",
"92 470 OFFCURVE",
"261 102 OFFCURVE",
"277 59 CURVE SMOOTH",
"292 19 OFFCURVE",
"286 2 OFFCURVE",
"277 0 CURVE"
);
}
);
width = 1132;
},
{
associatedMasterId = "CA5CD7F6-F0E6-40F5-9716-481B35A0BC32";
layerId = "6E521F11-4495-4D41-9F10-88C9E35EE6F2";
width = 600;
}
);
leftKerningGroup = V;
rightKerningGroup = V;
unicode = 0057;
},
{
color = 1;
glyphname = X;
lastChange = "2020-07-02 15:21:11 +0000";
layers = (
{
background = {
paths = (
{
closed = 1;
nodes = (
"198 0 LINE",
"198 0 OFFCURVE",
"175 3 OFFCURVE",
"219 60 CURVE",
"261 115 OFFCURVE",
"350 228 OFFCURVE",
"361 243 CURVE",
"363 243 LINE",
"375 227 OFFCURVE",
"472 109 OFFCURVE",
"507 62 CURVE",
"551 2 OFFCURVE",
"528 0 OFFCURVE",
"528 0 CURVE",
"712 0 LINE",
"712 0 OFFCURVE",
"694 4 OFFCURVE",
"640 62 CURVE",
"588 118 OFFCURVE",
"432 301 OFFCURVE",
"432 301 CURVE",
"432 301 OFFCURVE",
"591 481 OFFCURVE",
"644 541 CURVE",
"696 599 OFFCURVE",
"711 600 OFFCURVE",
"711 600 CURVE",
"524 600 LINE",
"524 600 OFFCURVE",
"545 600 OFFCURVE",
"503 540 CURVE",
"464 484 OFFCURVE",
"375 368 OFFCURVE",
"364 353 CURVE",
"362 353 LINE",
"350 369 OFFCURVE",
"262 490 OFFCURVE",
"226 538 CURVE",
"177 602 OFFCURVE",
"205 600 OFFCURVE",
"205 600 CURVE",
"10 600 LINE",
"10 600 OFFCURVE",
"28 598 OFFCURVE",
"82 538 CURVE",
"133 481 OFFCURVE",
"292 301 OFFCURVE",
"292 301 CURVE",
"292 301 OFFCURVE",
"131 119 OFFCURVE",
"77 59 CURVE",
"26 3 OFFCURVE",
"10 0 OFFCURVE",
"10 0 CURVE"
);
}
);
};
layerId = "083550D2-F2E8-44E3-BE3D-E8BDF41EDFC4";
paths = (
{
closed = 1;
nodes = (
"198 0 LINE",
"188 1 OFFCURVE",
"187 18 OFFCURVE",
"219 60 CURVE SMOOTH",
"261 115 OFFCURVE",
"350 228 OFFCURVE",
"361 243 CURVE",
"363 243 LINE",
"375 227 OFFCURVE",
"472 109 OFFCURVE",
"507 62 CURVE SMOOTH",
"539 18 OFFCURVE",
"538 1 OFFCURVE",
"528 0 CURVE",
"712 0 LINE",
"704 2 OFFCURVE",
"679 20 OFFCURVE",
"640 62 CURVE SMOOTH",
"602 103 OFFCURVE",
"499 222 OFFCURVE",
"432 301 CURVE",
"503 381 OFFCURVE",
"573 461 OFFCURVE",
"644 541 CURVE SMOOTH",
"682 583 OFFCURVE",
"705 600 OFFCURVE",
"711 600 CURVE SMOOTH",
"524 600 LINE SMOOTH",
"533 600 OFFCURVE",
"534 584 OFFCURVE",
"503 540 CURVE SMOOTH",
"464 484 OFFCURVE",
"375 368 OFFCURVE",
"364 353 CURVE",
"362 353 LINE",
"350 369 OFFCURVE",
"262 490 OFFCURVE",
"226 538 CURVE SMOOTH",
"190 585 OFFCURVE",
"193 601 OFFCURVE",
"205 600 CURVE",
"10 600 LINE",
"18 599 OFFCURVE",
"43 582 OFFCURVE",
"82 538 CURVE SMOOTH",
"119 496 OFFCURVE",
"224 378 OFFCURVE",
"292 301 CURVE",
"220 220 OFFCURVE",
"149 140 OFFCURVE",
"77 59 CURVE SMOOTH",
"40 18 OFFCURVE",
"17 1 OFFCURVE",
"10 0 CURVE"
);
}
);
width = 722;
},
{
background = {
paths = (
{
closed = 1;
nodes = (
"249 0 LINE",
"249 0 OFFCURVE",
"224 0 OFFCURVE",
"270 60 CURVE",
"312 115 OFFCURVE",
"370 188 OFFCURVE",
"381 203 CURVE",
"383 203 LINE",
"395 187 OFFCURVE",
"461 109 OFFCURVE",
"496 62 CURVE",
"541 0 OFFCURVE",
"516 0 OFFCURVE",
"516 0 CURVE",
"753 0 LINE",
"753 0 OFFCURVE",
"737 1 OFFCURVE",
"681 62 CURVE",
"629 118 OFFCURVE",
"472 301 OFFCURVE",
"472 301 CURVE",
"472 301 OFFCURVE",
"632 480 OFFCURVE",
"685 541 CURVE",
"737 600 OFFCURVE",
"752 600 OFFCURVE",
"752 600 CURVE",
"512 600 LINE",
"512 600 OFFCURVE",
"529 600 OFFCURVE",
"492 540 CURVE",
"455 482 OFFCURVE",
"395 408 OFFCURVE",
"384 393 CURVE",
"382 393 LINE",
"370 409 OFFCURVE",
"308 486 OFFCURVE",
"277 538 CURVE",
"241 599 OFFCURVE",
"256 600 OFFCURVE",
"256 600 CURVE",
"10 600 LINE",
"10 600 OFFCURVE",
"28 599 OFFCURVE",
"82 538 CURVE",
"132 481 OFFCURVE",
"292 301 OFFCURVE",
"292 301 CURVE",
"292 301 OFFCURVE",
"132 118 OFFCURVE",
"77 59 CURVE",
"22 1 OFFCURVE",
"10 0 OFFCURVE",
"10 0 CURVE"
);
}
);
};
layerId = "1A280FA7-9E72-4FC3-84C1-49B7BD56B269";
paths = (
{
closed = 1;
nodes = (
"249 0 LINE SMOOTH",
"238 0 OFFCURVE",
"236 16 OFFCURVE",
"270 60 CURVE SMOOTH",
"312 115 OFFCURVE",
"370 188 OFFCURVE",
"381 203 CURVE",
"383 203 LINE",
"395 187 OFFCURVE",
"461 109 OFFCURVE",
"496 62 CURVE SMOOTH",
"529 17 OFFCURVE",
"527 0 OFFCURVE",
"516 0 CURVE SMOOTH",
"753 0 LINE SMOOTH",
"746 0 OFFCURVE",
"722 17 OFFCURVE",
"681 62 CURVE SMOOTH",
"643 103 OFFCURVE",
"540 222 OFFCURVE",
"472 301 CURVE",
"541 378 OFFCURVE",
"646 496 OFFCURVE",
"685 541 CURVE SMOOTH",
"723 584 OFFCURVE",
"746 600 OFFCURVE",
"752 600 CURVE SMOOTH",
"512 600 LINE SMOOTH",
"519 600 OFFCURVE",
"519 584 OFFCURVE",
"492 540 CURVE SMOOTH",
"455 482 OFFCURVE",
"395 408 OFFCURVE",
"384 393 CURVE",
"382 393 LINE",
"370 409 OFFCURVE",
"308 486 OFFCURVE",
"277 538 CURVE SMOOTH",
"251 583 OFFCURVE",
"250 600 OFFCURVE",
"256 600 CURVE SMOOTH",
"10 600 LINE SMOOTH",
"18 600 OFFCURVE",
"43 583 OFFCURVE",
"82 538 CURVE SMOOTH",
"119 496 OFFCURVE",
"223 378 OFFCURVE",
"292 301 CURVE",
"223 222 OFFCURVE",
"117 102 OFFCURVE",
"77 59 CURVE SMOOTH",
"37 17 OFFCURVE",
"15 0 OFFCURVE",
"10 0 CURVE SMOOTH"
);
}
);
width = 763;
},
{
associatedMasterId = "083550D2-F2E8-44E3-BE3D-E8BDF41EDFC4";
layerId = "0AAF2CB4-2EBD-42C4-BAB4-4CEC92C737FB";
width = 600;
},
{
background = {
paths = (
{
closed = 1;
nodes = (
"128 0 LINE",
"128 0 OFFCURVE",
"96 0 OFFCURVE",
"149 60 CURVE",
"195 112 OFFCURVE",
"329 258 OFFCURVE",
"340 273 CURVE",
"342 273 LINE",
"354 257 OFFCURVE",
"497 106 OFFCURVE",
"535 62 CURVE",
"587 2 OFFCURVE",
"556 0 OFFCURVE",
"556 0 CURVE",
"670 0 LINE",
"670 0 OFFCURVE",
"648 4 OFFCURVE",
"598 62 CURVE",
"548 120 OFFCURVE",
"381 301 OFFCURVE",
"381 301 CURVE",
"381 301 OFFCURVE",
"551 479 OFFCURVE",
"603 541 CURVE",
"652 599 OFFCURVE",
"670 600 OFFCURVE",
"670 600 CURVE",
"552 600 LINE",
"552 600 OFFCURVE",
"579 597 OFFCURVE",
"531 540 CURVE",
"487 488 OFFCURVE",
"354 338 OFFCURVE",
"343 323 CURVE",
"341 323 LINE",
"329 339 OFFCURVE",
"195 493 OFFCURVE",
"156 538 CURVE",
"104 598 OFFCURVE",
"135 600 OFFCURVE",
"135 600 CURVE",
"10 600 LINE",
"10 600 OFFCURVE",
"27 598 OFFCURVE",
"82 538 CURVE",
"134 482 OFFCURVE",
"301 301 OFFCURVE",
"301 301 CURVE",
"301 301 OFFCURVE",
"131 119 OFFCURVE",
"77 59 CURVE",
"25 2 OFFCURVE",
"10 0 OFFCURVE",
"10 0 CURVE"
);
}
);
};
layerId = "CA5CD7F6-F0E6-40F5-9716-481B35A0BC32";
paths = (
{
closed = 1;
nodes = (
"128 0 LINE SMOOTH",
"114 0 OFFCURVE",
"110 16 OFFCURVE",
"149 60 CURVE SMOOTH",
"195 112 OFFCURVE",
"329 258 OFFCURVE",
"340 273 CURVE",
"342 273 LINE",
"354 257 OFFCURVE",
"497 106 OFFCURVE",
"535 62 CURVE SMOOTH",
"573 18 OFFCURVE",
"569 1 OFFCURVE",
"556 0 CURVE",
"670 0 LINE",
"661 2 OFFCURVE",
"635 20 OFFCURVE",
"598 62 CURVE SMOOTH",
"562 104 OFFCURVE",
"453 223 OFFCURVE",
"381 301 CURVE",
"454 378 OFFCURVE",
"565 496 OFFCURVE",
"603 541 CURVE SMOOTH",
"639 583 OFFCURVE",
"662 600 OFFCURVE",
"670 600 CURVE SMOOTH",
"552 600 LINE",
"564 599 OFFCURVE",
"566 582 OFFCURVE",
"531 540 CURVE SMOOTH",
"487 488 OFFCURVE",
"354 338 OFFCURVE",
"343 323 CURVE",
"341 323 LINE",
"329 339 OFFCURVE",
"195 493 OFFCURVE",
"156 538 CURVE SMOOTH",
"118 582 OFFCURVE",
"122 599 OFFCURVE",
"135 600 CURVE",
"10 600 LINE",
"17 599 OFFCURVE",
"42 582 OFFCURVE",
"82 538 CURVE SMOOTH",
"155 459 OFFCURVE",
"228 380 OFFCURVE",
"301 301 CURVE",
"228 223 OFFCURVE",
"116 103 OFFCURVE",
"77 59 CURVE SMOOTH",
"39 17 OFFCURVE",
"16 1 OFFCURVE",
"10 0 CURVE"
);
}
);
width = 680;
},
{
associatedMasterId = "CA5CD7F6-F0E6-40F5-9716-481B35A0BC32";
layerId = "C22D7463-A6D5-4982-BCB1-467ED8BE9AE5";
width = 600;
}
);
leftKerningGroup = X;
rightKerningGroup = X;
unicode = 0058;
},
{
color = 1;
glyphname = Y;
lastChange = "2020-07-02 15:22:01 +0000";
layers = (
{
anchors = (
{
name = bottom;
position = "{356, 0}";
},
{
name = top;
position = "{356, 600}";
},
{
name = topleft;
position = "{15, 600}";
}
);
background = {
anchors = (
{
name = bottom;
position = "{356, 0}";
},
{
name = top;
position = "{356, 600}";
},
{
name = topleft;
position = "{15, 600}";
}
);
paths = (
{
closed = 1;
nodes = (
"433 0 LINE",
"433 0 OFFCURVE",
"413 0 OFFCURVE",
"413 60 CURVE",
"413 277 LINE",
"413 277 OFFCURVE",
"587 480 OFFCURVE",
"640 541 CURVE",
"691 599 OFFCURVE",
"707 600 OFFCURVE",
"707 600 CURVE",
"519 600 LINE",
"519 600 OFFCURVE",
"540 601 OFFCURVE",
"499 540 CURVE",
"454 473 OFFCURVE",
"358 352 OFFCURVE",
"358 352 CURVE",
"357 352 LINE",
"357 352 OFFCURVE",
"258 484 OFFCURVE",
"220 538 CURVE",
"178 598 OFFCURVE",
"200 600 OFFCURVE",
"200 600 CURVE",
"5 600 LINE",
"5 600 OFFCURVE",
"24 597 OFFCURVE",
"77 538 CURVE",
"128 481 OFFCURVE",
"301 277 OFFCURVE",
"301 277 CURVE",
"301 60 LINE",
"301 0 OFFCURVE",
"276 0 OFFCURVE",
"276 0 CURVE"
);
}
);
};
layerId = "083550D2-F2E8-44E3-BE3D-E8BDF41EDFC4";
paths = (
{
closed = 1;
nodes = (
"433 0 LINE SMOOTH",
"424 0 OFFCURVE",
"413 16 OFFCURVE",
"413 60 CURVE SMOOTH",
"413 277 LINE",
"489 365 OFFCURVE",
"564 453 OFFCURVE",
"640 541 CURVE SMOOTH",
"677 583 OFFCURVE",
"700 600 OFFCURVE",
"707 600 CURVE SMOOTH",
"519 600 LINE SMOOTH",
"528 600 OFFCURVE",
"529 585 OFFCURVE",
"499 540 CURVE SMOOTH",
"466 491 OFFCURVE",
"399 404 OFFCURVE",
"358 352 CURVE",
"357 352 LINE",
"314 409 OFFCURVE",
"248 499 OFFCURVE",
"220 538 CURVE SMOOTH",
"189 582 OFFCURVE",
"191 599 OFFCURVE",
"200 600 CURVE",
"5 600 LINE",
"13 599 OFFCURVE",
"38 581 OFFCURVE",
"77 538 CURVE SMOOTH",
"114 496 OFFCURVE",
"227 365 OFFCURVE",
"301 277 CURVE",
"301 60 LINE SMOOTH",
"301 16 OFFCURVE",
"287 0 OFFCURVE",
"276 0 CURVE SMOOTH"
);
}
);
width = 712;
},
{
anchors = (
{
name = bottom;
position = "{371, 0}";
},
{
name = top;
position = "{371, 600}";
},
{
name = topleft;
position = "{10, 600}";
}
);
background = {
anchors = (
{
name = bottom;
position = "{371, 0}";
},
{
name = top;
position = "{371, 600}";
},
{
name = topleft;
position = "{10, 600}";
}
);
paths = (
{
closed = 1;
nodes = (
"469 0 LINE",
"469 0 OFFCURVE",
"449 0 OFFCURVE",
"449 60 CURVE",
"449 266 LINE",
"449 266 OFFCURVE",
"623 480 OFFCURVE",
"676 541 CURVE",
"725 598 OFFCURVE",
"743 600 OFFCURVE",
"743 600 CURVE",
"513 600 LINE",
"513 600 OFFCURVE",
"534 601 OFFCURVE",
"493 540 CURVE",
"448 473 OFFCURVE",
"373 362 OFFCURVE",
"373 362 CURVE",
"372 362 LINE",
"372 362 OFFCURVE",
"294 484 OFFCURVE",
"256 538 CURVE",
"214 598 OFFCURVE",
"236 600 OFFCURVE",
"236 600 CURVE",
"0 600 LINE",
"0 600 OFFCURVE",
"20 600 OFFCURVE",
"72 538 CURVE",
"121 479 OFFCURVE",
"295 266 OFFCURVE",
"295 266 CURVE",
"296 60 LINE",
"296 0 OFFCURVE",
"270 0 OFFCURVE",
"270 0 CURVE"
);
}
);
};
layerId = "1A280FA7-9E72-4FC3-84C1-49B7BD56B269";
paths = (
{
closed = 1;
nodes = (
"469 0 LINE SMOOTH",
"460 0 OFFCURVE",
"449 16 OFFCURVE",
"449 60 CURVE SMOOTH",
"449 266 LINE",
"524 358 OFFCURVE",
"637 496 OFFCURVE",
"676 541 CURVE SMOOTH",
"712 583 OFFCURVE",
"735 599 OFFCURVE",
"743 600 CURVE",
"513 600 LINE SMOOTH",
"522 600 OFFCURVE",
"523 585 OFFCURVE",
"493 540 CURVE SMOOTH",
"453 481 OFFCURVE",
"413 421 OFFCURVE",
"373 362 CURVE",
"372 362 LINE",
"338 414 OFFCURVE",
"284 499 OFFCURVE",
"256 538 CURVE SMOOTH",
"225 582 OFFCURVE",
"227 599 OFFCURVE",
"236 600 CURVE",
"0 600 LINE SMOOTH",
"9 600 OFFCURVE",
"34 583 OFFCURVE",
"72 538 CURVE SMOOTH",
"108 495 OFFCURVE",
"220 358 OFFCURVE",
"295 266 CURVE",
"296 60 LINE SMOOTH",
"296 16 OFFCURVE",
"281 0 OFFCURVE",
"270 0 CURVE SMOOTH"
);
}
);
width = 743;
},
{
associatedMasterId = "083550D2-F2E8-44E3-BE3D-E8BDF41EDFC4";
layerId = "0AAF2CB4-2EBD-42C4-BAB4-4CEC92C737FB";
width = 600;
},
{
anchors = (
{
name = bottom;
position = "{336, 0}";
},
{
name = top;
position = "{336, 600}";
},
{
name = topleft;
position = "{15, 600}";
}
);
background = {
anchors = (
{
name = bottom;
position = "{336, 0}";
},
{
name = top;
position = "{336, 600}";
},
{
name = topleft;
position = "{15, 600}";
}
);
paths = (
{
closed = 1;
nodes = (
"384 0 LINE",
"384 0 OFFCURVE",
"364 0 OFFCURVE",
"364 60 CURVE",
"364 287 LINE",
"364 287 OFFCURVE",
"546 480 OFFCURVE",
"598 541 CURVE",
"646 597 OFFCURVE",
"665 600 OFFCURVE",
"665 600 CURVE",
"547 600 LINE",
"547 600 OFFCURVE",
"575 599 OFFCURVE",
"527 540 CURVE",
"476 477 OFFCURVE",
"337 322 OFFCURVE",
"337 322 CURVE",
"336 322 LINE",
"336 322 OFFCURVE",
"195 490 OFFCURVE",
"150 538 CURVE",
"96 596 OFFCURVE",
"130 600 OFFCURVE",
"130 600 CURVE",
"5 600 LINE",
"5 600 OFFCURVE",
"22 599 OFFCURVE",
"77 538 CURVE",
"128 481 OFFCURVE",
"309 287 OFFCURVE",
"309 287 CURVE",
"309 60 LINE",
"309 0 OFFCURVE",
"284 0 OFFCURVE",
"284 0 CURVE"
);
}
);
};
layerId = "CA5CD7F6-F0E6-40F5-9716-481B35A0BC32";
paths = (
{
closed = 1;
nodes = (
"384 0 LINE SMOOTH",
"375 0 OFFCURVE",
"364 16 OFFCURVE",
"364 60 CURVE SMOOTH",
"364 287 LINE",
"442 370 OFFCURVE",
"560 496 OFFCURVE",
"598 541 CURVE SMOOTH",
"633 582 OFFCURVE",
"657 599 OFFCURVE",
"665 600 CURVE",
"547 600 LINE SMOOTH",
"559 600 OFFCURVE",
"562 583 OFFCURVE",
"527 540 CURVE SMOOTH",
"490 494 OFFCURVE",
"397 389 OFFCURVE",
"337 322 CURVE",
"336 322 LINE",
"275 394 OFFCURVE",
"183 503 OFFCURVE",
"150 538 CURVE SMOOTH",
"111 580 OFFCURVE",
"115 598 OFFCURVE",
"130 600 CURVE",
"5 600 LINE SMOOTH",
"12 600 OFFCURVE",
"37 583 OFFCURVE",
"77 538 CURVE SMOOTH",
"114 496 OFFCURVE",
"231 370 OFFCURVE",
"309 287 CURVE",
"309 60 LINE SMOOTH",
"309 16 OFFCURVE",
"295 0 OFFCURVE",
"284 0 CURVE SMOOTH"
);
}
);
width = 670;
},
{
associatedMasterId = "CA5CD7F6-F0E6-40F5-9716-481B35A0BC32";
layerId = "A6B36F3E-39F7-4EFC-BCB9-28E8A14FA912";
width = 600;
}
);
leftKerningGroup = Y;
rightKerningGroup = Y;
unicode = 0059;
},
